<svg width="404" height="116" viewBox="0 0 404 116" fill="none" xmlns="http://www.w3.org/2000/svg">
    <path fillRule="evenodd" clip-rule="evenodd" d="M276.354 0.210062C209.323 2.01648 161.829 6.32565 95.7632 16.5941C41.4219 25.0405 5.40714 31.9036 -56.0845 45.5308C-92.2434 53.5438 -106.405 57.2493 -135.168 66.2214C-157.822 73.2881 -171.978 77.427 -185.386 80.9032C-205.34 86.0773 -212.373 88.4776 -212.373 90.1134C-212.373 90.8339 -211.709 91.0093 -211.137 90.4396C-210.641 89.9455 -207.927 89.1995 -191.258 84.9761C-177.303 81.4403 -167 78.597 -146.271 72.5604C-99.7672 59.0185 -95.4608 57.9919 -23.3456 43.262C78.9035 22.3767 161.938 11.2893 241.633 7.88044C317.311 4.64319 379.628 5.96709 395.616 11.1511C398.257 12.0074 398.269 11.9339 395.261 13.3191C388.26 16.5434 372.566 20.2638 341.555 26.0508C306.141 32.6595 286.927 35.7268 229.336 43.9669C185.481 50.2415 184.426 50.4124 126.509 60.653C65.8412 71.3798 39.1252 76.53 2.844 84.4929C-9.96826 87.3045 -11.0467 87.5157 -26.816 90.2946C-58.194 95.8245 -85.1396 101.84 -111.597 109.222C-120.211 111.626 -121.764 112.709 -119.512 114.74C-117.7 116.375 -102.653 113.566 -65.3081 104.621C-19.2182 93.5798 -12.7288 92.2372 13.7757 88.2553C51.7738 82.5466 83.448 78.8455 109.94 77.019C136.485 75.1888 180.872 72.858 204.909 72.0322C218.334 71.5708 270.331 71.2082 272.924 71.5579L274.94 71.8296L273.061 72.2822C269.789 73.0708 211.793 84.2856 186.291 89.0609C178.306 90.5561 166.776 92.6383 160.67 93.6878C140.763 97.1093 98.0561 105.125 90.5256 106.853C85.8219 107.933 84.1729 110.128 86.3989 112.346C87.9153 113.858 98.0906 113.988 120.189 112.781C125.45 112.494 135.134 112.02 141.71 111.729C148.286 111.438 158.115 110.821 163.552 110.358C168.989 109.894 177.136 109.351 181.657 109.15C186.179 108.949 191.877 108.665 194.319 108.518L198.76 108.252L194.831 108.199C189.69 108.129 177.588 107.582 167.332 106.955C155.304 106.22 128.96 106.385 116.774 107.273C115.397 107.373 114.912 107.318 115.295 107.105C116.042 106.688 147.084 100.899 161.695 98.4519C205.847 91.0563 281.329 76.3499 285.112 74.4066C288.468 72.6826 288.216 69.666 284.589 68.1555C278.09 65.4488 218.135 65.9524 164.428 69.1651C159.825 69.4403 149.064 70.0542 140.515 70.5292C108.364 72.3156 76.7684 74.8905 64.8471 76.6966C64.0955 76.8103 63.5687 76.8107 63.6767 76.6976C64.1109 76.2413 147.303 61.539 179.574 56.2155C186.871 55.0114 208.009 51.8732 226.546 49.2411C290.976 40.0932 305.852 37.7325 344.8 30.4741C392.893 21.5115 405.96 17.0279 403.218 10.4288C400.935 4.93431 387.851 2.43121 351.462 0.527068C342.757 0.0714631 289.79 -0.152243 276.354 0.210062Z" fill="url(#paint0_linear_278_5)"/>
    <defs>
        <linearGradient id="paint0_linear_278_5" x1="-212.373" y1="0.0297852" x2="-170.771" y2="222.555" gradientUnits="userSpaceOnUse">
            <stop offset="0.0001" stop-color="#16A9A6"/>
            <stop offset="1" stop-color="#17BEBB"/>
        </linearGradient>
    </defs>
</svg>
