<svg width="310" height="126" viewBox="0 0 310 126" fill="none" xmlns="http://www.w3.org/2000/svg">
    <path fillRule="evenodd" clip-rule="evenodd" d="M596.592 1.79017C591.606 3.75438 584.8 5.99751 573.005 9.56309C547.029 17.4157 530.633 24.3437 482.282 47.8975C449.397 63.917 439.08 68.4903 427.485 72.1872C422.384 73.8137 415.405 74.3401 412.838 73.2916L411.435 72.7192L411.693 71.0428C412.261 67.3519 414.532 62.7025 421.041 51.9112C431.411 34.7165 434.042 28.0756 433.551 20.3285C432.345 1.30169 408.022 4.87826 361.232 30.963C357.824 32.8628 347.536 38.9975 338.37 44.596C302.516 66.4928 295.521 70.3189 291.22 70.3834L289.042 70.4159L289.126 68.7738C289.259 66.187 290.732 62.1566 295.548 51.2132C305.338 28.962 306.661 19.8167 301.029 13.3202C295.728 7.20634 278.943 9.65052 258.197 19.5565C242.608 26.9999 210.362 46.1835 166.748 73.9603C126.246 99.7551 119.98 103.408 118.52 102.076C118.026 101.625 120.218 97.4433 129.925 80.3272C148.681 47.2518 151.801 40.0739 151.845 29.8858C151.928 11.1917 138.645 13.5566 99.0151 39.2917C72.9577 56.2131 49.7037 75.1606 19.2782 104.262C3.21848 119.623 0 122.966 0 124.287C0 125.292 0.949322 125.383 1.26613 124.409C1.51833 123.635 7.06004 118.521 14.5156 112.184C17.2101 109.894 22.3541 105.354 25.9467 102.095C43.3771 86.2853 74.0696 61.5329 88.3639 51.7576C114.948 33.5781 133.62 23.3947 141.709 22.6626C146.334 22.2442 147.139 23.4538 146.868 30.4168C146.522 39.2977 142.48 48.4299 125.407 78.9113C112.265 102.375 111.481 104.6 115.678 106.543C120.989 109.001 128.027 105.413 170.922 78.3846C249.203 29.0575 278.85 14.083 293.91 16.2635C301.073 17.3006 299.947 28.0632 290.362 50.1824C282.915 67.3679 282.124 72.0357 286.211 74.6972C291.892 78.3973 299.362 75.0799 343.295 49.3477C381.608 26.9068 403.04 17.1166 416.928 15.712C425.031 14.8922 426.673 16.2217 426.297 23.2994C425.998 28.9365 423.71 34.0284 414.986 48.4695C401.955 70.0404 401.149 77.6391 411.604 80.3538C422.787 83.2578 434.249 79.2132 485.911 54.1334C513.495 40.7426 523.027 36.337 543.705 27.4211C551.043 24.2576 561.331 19.53 566.568 16.9155C571.804 14.3007 580.58 10.0165 586.069 7.395C591.557 4.77346 597.028 2.16043 598.225 1.5884C601.127 0.202592 600.392 0.293212 596.592 1.79017Z" fill="url(#paint0_linear_278_3)"/>
    <defs>
        <linearGradient id="paint0_linear_278_3" x1="0" y1="0.605469" x2="49.5247" y2="239.304" gradientUnits="userSpaceOnUse">
            <stop offset="0.0001" stop-color="#16A9A6"/>
            <stop offset="1" stop-color="#17BEBB"/>
        </linearGradient>
    </defs>
</svg>
