<?xml version="1.0" encoding="UTF-8"?>
<svg id="Layer_2" data-name="Layer 2" xmlns="http://www.w3.org/2000/svg" xmlns:xlink="http://www.w3.org/1999/xlink" viewBox="0 0 800 360">
  <defs>
    <style>
      .cls-1 {
        fill: #fff;
      }

      .cls-2 {
        fill: url(#linear-gradient-5);
        filter: url(#outer-glow-4);
      }

      .cls-3 {
        fill: url(#linear-gradient-2);
        filter: url(#outer-glow-2);
      }

      .cls-4 {
        fill: url(#linear-gradient-4);
        filter: url(#outer-glow-3);
      }

      .cls-5 {
        clip-path: url(#clippath);
      }

      .cls-6 {
        fill: none;
      }

      .cls-7 {
        fill: url(#linear-gradient-3);
      }

      .cls-8 {
        fill: url(#linear-gradient);
        filter: url(#outer-glow-1);
      }
    </style>
    <clipPath id="clippath">
      <rect class="cls-6" width="800" height="360"/>
    </clipPath>
    <linearGradient id="linear-gradient" x1="430.71" y1="207.6" x2="471.79" y2="219.16" gradientUnits="userSpaceOnUse">
      <stop offset=".01" stop-color="#e6e7e8"/>
      <stop offset=".11" stop-color="#e6d3d6"/>
      <stop offset=".73" stop-color="#eb5668"/>
      <stop offset="1" stop-color="#ee243d"/>
    </linearGradient>
    <filter id="outer-glow-1" filterUnits="userSpaceOnUse">
      <feOffset dx="0" dy="0"/>
      <feGaussianBlur result="blur" stdDeviation="26"/>
      <feFlood flood-color="#ee243d" flood-opacity=".75"/>
      <feComposite in2="blur" operator="in"/>
      <feComposite in="SourceGraphic"/>
    </filter>
    <linearGradient id="linear-gradient-2" x1="-1986.75" y1="-4559.64" x2="-1949.43" y2="-4549.14" gradientTransform="translate(-1536.84 -4377.78) rotate(-180)" gradientUnits="userSpaceOnUse">
      <stop offset="0" stop-color="#fff"/>
      <stop offset=".18" stop-color="#d2f1f1"/>
      <stop offset=".71" stop-color="#55cbc9"/>
      <stop offset=".94" stop-color="#23bcba"/>
    </linearGradient>
    <filter id="outer-glow-2" filterUnits="userSpaceOnUse">
      <feOffset dx="0" dy="0"/>
      <feGaussianBlur result="blur-2" stdDeviation="26"/>
      <feFlood flood-color="#23bcba" flood-opacity=".75"/>
      <feComposite in2="blur-2" operator="in"/>
      <feComposite in="SourceGraphic"/>
    </filter>
    <linearGradient id="linear-gradient-3" x1="104.59" y1="218.54" x2="126.03" y2="218.54" gradientUnits="userSpaceOnUse">
      <stop offset="0" stop-color="#f16274"/>
      <stop offset="1" stop-color="#ee243d"/>
    </linearGradient>
    <linearGradient id="linear-gradient-4" x1="580.82" y1="215.62" x2="673.95" y2="241.83" xlink:href="#linear-gradient"/>
    <filter id="outer-glow-3" filterUnits="userSpaceOnUse">
      <feOffset dx="0" dy="0"/>
      <feGaussianBlur result="blur-3" stdDeviation="26"/>
      <feFlood flood-color="#ee243d" flood-opacity=".75"/>
      <feComposite in2="blur-3" operator="in"/>
      <feComposite in="SourceGraphic"/>
    </filter>
    <linearGradient id="linear-gradient-5" x1="-2187.54" y1="-4522.22" x2="-2094.4" y2="-4496.01" xlink:href="#linear-gradient-2"/>
    <filter id="outer-glow-4" filterUnits="userSpaceOnUse">
      <feOffset dx="0" dy="0"/>
      <feGaussianBlur result="blur-4" stdDeviation="26"/>
      <feFlood flood-color="#23bcba" flood-opacity=".75"/>
      <feComposite in2="blur-4" operator="in"/>
      <feComposite in="SourceGraphic"/>
    </filter>
  </defs>
  <g id="Arabic_Wide_Logo_-_Dark" data-name="Arabic Wide Logo - Dark">
    <g class="cls-5">
      <g id="Full_Width" data-name="Full Width">
        <g id="Letters">
          <g>
            <g id="Special_Letter" data-name="Special Letter">
              <g id="Logo">
                <path class="cls-1" d="M183.55,182.41l.03,.03c.06,.06,.13,.12,.19,.18,.06,.07,.13,.13,.19,.2l.05,.05v-.47h-.47Z"/>
                <path class="cls-1" d="M194.16,208.17c2.72,1.63,5.92,2.56,9.32,2.56h1.85v-46.41h-29.62c-.93,0-1.84,.02-2.74,.07h-.02c-.07,0-.13,0-.2-.01h-.06c-.06,0-.12,0-.18-.01-.14,0-.27-.01-.4-.01-.14,0-.27-.01-.4-.01-.04,0-.09,0-.13,0-.23,0-.45,0-.67,0s-.45,0-.67,0c-.04,0-.09,0-.13,0-.14,0-.27,0-.4,.01-.13,0-.27,0-.4,.01-.06,0-.12,0-.18,.01h-.06c-.08,0-.14,0-.22,.01-.14,0-.27,.02-.4,.03-.12,.01-.23,.02-.35,.03-.1,0-.21,.01-.32,.03-.02,0-.04,0-.07,0h-.02c-.08,.01-.16,.02-.24,.03-.08,0-.16,.02-.24,.03-.02,0-.04,0-.05,0-.11,.01-.22,.03-.33,.04-.11,.01-.22,.03-.33,.05-.01,0-.03,0-.05,0-.03,0-.05,0-.09,.01-.1,.01-.19,.03-.29,.04-.02,0-.03,0-.05,0-.07,.01-.14,.03-.21,.03-.02,0-.04,0-.06,.01-.11,.01-.21,.03-.31,.05-.02,0-.04,0-.06,0-.09,.01-.18,.03-.27,.05-.05,.01-.1,.02-.14,.03,0,0-.02,0-.03,0-.09,.02-.19,.04-.27,.05h0s-.01,0-.02,0c-.1,.02-.21,.05-.32,.07h-.01c-.08,.02-.15,.03-.23,.05-.02,0-.03,0-.05,0-.08,.02-.17,.04-.25,.06-.11,.03-.22,.05-.33,.08-.1,.02-.2,.05-.29,.08-.1,.02-.19,.05-.28,.07-.09,.03-.17,.05-.25,.07-.04,.01-.08,.02-.12,.03-.1,.03-.19,.05-.28,.08-.03,0-.05,.01-.07,.02-.12,.03-.24,.07-.36,.11-.13,.03-.25,.08-.38,.12-.12,.03-.23,.08-.34,.11-.01,0-.03,.01-.05,.02-.12,.03-.24,.08-.36,.12-.12,.05-.25,.09-.37,.14-.08,.03-.17,.06-.25,.09-.05,.02-.12,.04-.17,.07-.02,0-.03,.01-.05,.01-.21,.08-.42,.16-.62,.25-.1,.04-.19,.08-.28,.12-.04,.01-.08,.03-.12,.05-.1,.05-.21,.1-.32,.14h0c-.16,.06-.31,.13-.46,.21,0,0,0,0-.01,0-.36,.16-.71,.34-1.06,.51-.1,.05-.19,.1-.29,.14l-.12,.06c-.06,.03-.12,.07-.19,.1-.13,.07-.25,.14-.38,.21-.08,.04-.15,.08-.23,.13-.08,.04-.16,.09-.24,.13-.07,.04-.14,.08-.21,.12-.05,.03-.12,.07-.17,.1-.1,.05-.19,.11-.28,.16-.12,.08-.23,.14-.35,.22-.09,.05-.19,.11-.27,.17-.04,.03-.09,.05-.13,.08-.1,.06-.19,.12-.29,.19-.12,.08-.24,.16-.36,.25-.12,.08-.24,.16-.36,.25-.08,.05-.15,.11-.23,.16-.02,.02-.04,.03-.06,.05-.09,.07-.19,.13-.27,.2-.07,.04-.14,.09-.2,.14-.15,.12-.3,.23-.45,.34-.05,.04-.1,.08-.15,.12-.1,.08-.21,.16-.31,.25-.1,.08-.19,.15-.27,.23-.1,.08-.19,.16-.29,.24-.21,.17-.41,.35-.62,.53-.04,.03-.08,.07-.12,.1-.04,.03-.08,.07-.11,.1-.26,.24-.52,.49-.77,.73-.1,.1-.21,.2-.31,.3-.1,.1-.2,.2-.29,.3-.25,.25-.49,.51-.73,.78-.03,.03-.07,.07-.1,.1-.03,.04-.08,.08-.11,.12-.18,.2-.36,.4-.53,.62-.08,.1-.16,.19-.24,.29-.08,.09-.15,.18-.22,.27-.08,.1-.17,.21-.25,.32-.03,.05-.08,.1-.11,.14-.23,.29-.44,.58-.65,.87-.01,.01-.03,.03-.03,.05-.01,.02-.03,.03-.04,.05,0,0,0,0,0,.01-.05,.08-.11,.15-.16,.22-.17,.24-.34,.48-.49,.73-.06,.1-.12,.19-.19,.28-.03,.05-.06,.1-.09,.14-.05,.09-.12,.18-.17,.27-.08,.11-.14,.23-.21,.35-.06,.09-.12,.19-.17,.27-.03,.06-.07,.12-.1,.18-.05,.08-.1,.17-.14,.25-.05,.1-.11,.19-.16,.28-.03,.05-.05,.1-.08,.14-.05,.09-.1,.19-.14,.27h0s-.01,.03-.01,.03t0,.01s-.02,.04-.03,.06c-.03,.06-.07,.12-.1,.19-.01,.01-.02,.03-.03,.05-.01,.02-.03,.04-.03,.07-.05,.09-.1,.19-.15,.28,0,0,0,.01,0,.02,0,.01-.02,.03-.03,.05-.05,.11-.1,.21-.16,.32,0,.01-.01,.03-.02,.05-.06,.12-.12,.24-.17,.36-.05,.1-.1,.2-.14,.29-.02,.05-.04,.1-.06,.14-.05,.1-.1,.21-.14,.32-.05,.11-.1,.21-.14,.32-.02,.04-.03,.08-.05,.12-.03,.09-.08,.19-.11,.27-.09,.21-.17,.42-.25,.62,0,.02-.01,.03-.02,.05-.02,.06-.04,.12-.06,.18-.03,.08-.07,.16-.1,.25-.04,.12-.09,.25-.13,.37-.04,.12-.08,.24-.12,.36,0,.02-.01,.03-.02,.05-.03,.11-.07,.23-.11,.34h0c-.04,.13-.08,.25-.12,.38-.03,.12-.08,.24-.11,.36,0,.02-.01,.04-.02,.06-.03,.1-.05,.19-.08,.29-.01,.04-.03,.08-.03,.12-.03,.08-.05,.16-.07,.25-.03,.1-.05,.19-.08,.28-.03,.1-.05,.2-.08,.3-.03,.1-.05,.21-.08,.32-.02,.09-.03,.17-.05,.26,0,.02,0,.03-.01,.05-.02,.08-.03,.15-.05,.23,0,0,0,0,0,.01-.02,.1-.04,.21-.07,.32v.02c-.02,.1-.04,.19-.05,.28,0,.01,0,.02,0,.03-.01,.05-.02,.1-.03,.14-.02,.09-.03,.19-.05,.27,0,.02-.01,.03-.01,.05-.02,.1-.03,.21-.05,.31,0,.02,0,.04,0,.07-.01,.07-.03,.14-.03,.21,0,.01,0,.03-.01,.05-.01,.1-.03,.2-.04,.29,0,.03,0,.05-.01,.09,0,.01,0,.03,0,.05-.01,.11-.03,.22-.05,.33-.01,.1-.03,.21-.03,.32,0,.02,0,.04,0,.05-.01,.08-.02,.16-.03,.24-.01,.08-.02,.16-.03,.24v.03s0,.05-.01,.07c0,.1-.02,.21-.03,.32,0,.12-.02,.23-.03,.34-.01,.14-.02,.27-.03,.41,0,.08-.01,.14-.01,.22,0,.01,0,.03,0,.05,0,.06,0,.12,0,.19,0,.13-.01,.26-.02,.4,0,.13,0,.27-.01,.4v.14c0,.22,0,.45,0,.67s0,.45,0,.66v.14c0,.13,0,.27,.01,.4,0,.14,.01,.27,.02,.4,0,.05,0,.12,0,.18,0,.02,0,.04,0,.06,0,.07,0,.14,.01,.21,0,.14,.01,.27,.03,.41,0,.12,.02,.23,.03,.34,0,.11,.02,.21,.03,.32,0,.02,0,.05,0,.07,0,0,0,.02,0,.03,0,.08,.01,.16,.03,.24,0,.08,.01,.16,.03,.24,0,.02,0,.03,0,.05,0,.11,.02,.22,.03,.33,.01,.1,.03,.21,.05,.32,0,.02,0,.03,0,.05,0,.03,0,.06,.01,.09,.01,.1,.03,.2,.04,.29,0,.02,0,.04,.01,.06,0,.07,.02,.14,.03,.21,0,.02,0,.04,0,.06,.02,.1,.03,.21,.05,.31,0,.02,0,.04,.01,.05,.01,.1,.03,.19,.05,.27,0,.05,.01,.09,.03,.14,0,.01,0,.03,0,.03,.01,.1,.03,.19,.05,.28v.02c.03,.11,.05,.22,.07,.33,0,0,0,0,0,0,.01,.08,.03,.15,.05,.23,0,.02,0,.04,.01,.05,.02,.09,.03,.17,.05,.26,.03,.11,.05,.22,.08,.32,.02,.1,.05,.2,.08,.3,.02,.09,.05,.19,.08,.28,.02,.08,.04,.16,.07,.25,0,.04,.02,.08,.03,.12,.02,.1,.05,.19,.08,.29,0,.02,.01,.04,.02,.06,.03,.12,.08,.24,.11,.36,.04,.12,.08,.25,.12,.37h0c.04,.12,.08,.23,.11,.34,0,.02,.01,.03,.02,.05,.04,.12,.08,.23,.12,.36,.04,.12,.09,.25,.13,.37,.03,.08,.06,.16,.1,.25,.02,.06,.04,.12,.06,.18,0,.01,.01,.03,.02,.05,.08,.21,.16,.42,.25,.62,.03,.09,.08,.19,.11,.27,.02,.04,.03,.08,.05,.12,.04,.11,.09,.21,.14,.32s.1,.21,.14,.32c.02,.04,.04,.09,.06,.14,.04,.1,.09,.2,.14,.29,.05,.12,.11,.24,.17,.36,0,.02,.01,.03,.02,.05,.05,.11,.1,.22,.16,.32,0,.02,.02,.03,.03,.05,0,0,0,.01,0,.02,.05,.1,.1,.19,.15,.29,0,.02,.02,.04,.03,.07,0,.01,.01,.03,.03,.05,.03,.06,.06,.12,.1,.19,.01,.02,.02,.04,.03,.06t0,.01s0,.02,.01,.03h0c.05,.1,.1,.19,.14,.28,.03,.04,.05,.09,.08,.14,.05,.1,.1,.19,.16,.28,.05,.09,.1,.17,.14,.25,.03,.06,.07,.12,.1,.18,.05,.09,.11,.19,.17,.27,.07,.12,.14,.24,.21,.36,.05,.09,.12,.18,.17,.27,.03,.05,.05,.09,.09,.14,.06,.1,.12,.19,.19,.28,.16,.25,.32,.49,.49,.73,.05,.08,.1,.14,.16,.22,0,0,0,.01,0,.01,.01,.02,.03,.03,.04,.05,0,.01,.02,.03,.03,.05,0,.01,.01,.02,.01,.03,.05,.06,.09,.12,.14,.18,.06,.09,.12,.17,.19,.26,.07,.08,.13,.17,.2,.25,.08,.1,.15,.2,.23,.29,.02,.02,.03,.04,.05,.05,.03,.05,.08,.1,.11,.14,.03,.04,.06,.08,.1,.12,.07,.09,.14,.18,.22,.27,.08,.1,.16,.19,.24,.29,.06,.08,.12,.14,.19,.22,.1,.12,.2,.23,.3,.35,.08,.09,.17,.19,.25,.27,.06,.07,.12,.14,.19,.21,.05,.06,.12,.12,.17,.19,.12,.13,.25,.26,.38,.39,.1,.1,.2,.21,.29,.3,.1,.1,.21,.2,.31,.3,.12,.12,.26,.25,.39,.38,.06,.05,.12,.11,.18,.16,.07,.06,.14,.13,.21,.19,.1,.08,.19,.16,.28,.25,.12,.1,.23,.21,.35,.31,.07,.06,.14,.12,.21,.19,.1,.08,.19,.16,.29,.24,.09,.07,.18,.14,.27,.22,.03,.03,.08,.06,.11,.09,.05,.04,.1,.08,.14,.12,.02,.01,.04,.03,.05,.04,.1,.08,.2,.15,.29,.23,.09,.06,.17,.13,.26,.19,.08,.06,.17,.13,.25,.19,.06,.04,.12,.09,.19,.13,0,0,.01,.01,.02,.01,.02,.01,.03,.03,.05,.04,.01,.01,.03,.03,.05,.03,0,0,.01,0,.01,.01,.08,.05,.15,.1,.23,.16,.24,.16,.48,.33,.72,.49,.1,.06,.19,.12,.29,.19,.04,.03,.09,.05,.13,.08,.09,.06,.19,.12,.27,.17,.12,.08,.23,.15,.35,.22,.09,.05,.19,.11,.28,.16,.05,.03,.12,.07,.17,.1,.09,.05,.17,.1,.25,.15,.1,.05,.19,.1,.28,.16,.05,.02,.1,.05,.14,.08,.09,.05,.19,.1,.27,.15h0s.02,.01,.03,.02h0s.04,.03,.06,.03c.06,.03,.12,.07,.19,.1,.02,0,.03,.01,.05,.03,.02,.01,.04,.02,.07,.03,.1,.05,.19,.1,.29,.14,0,0,.01,0,.02,.01,.01,0,.03,.01,.04,.02,.11,.05,.22,.11,.32,.16,.01,.01,.03,.02,.05,.03,.12,.05,.24,.11,.36,.17,.1,.04,.19,.09,.29,.14,.05,.02,.1,.04,.14,.06,.1,.05,.21,.1,.32,.14,.11,.04,.22,.09,.32,.14,.04,.01,.08,.03,.12,.05,.1,.04,.19,.08,.28,.12,.21,.08,.41,.16,.62,.25,.01,0,.03,.01,.05,.01,.05,.03,.12,.05,.17,.07,.08,.03,.17,.06,.25,.09,.12,.05,.25,.09,.37,.14,.12,.04,.23,.08,.36,.12,.01,0,.03,0,.05,.01,.12,.03,.23,.08,.34,.11,.12,.04,.25,.08,.38,.12,.12,.04,.24,.08,.36,.11,.02,0,.04,.01,.07,.02,.09,.03,.19,.05,.28,.08,.04,.01,.08,.02,.12,.03,.08,.02,.16,.04,.25,.07,.09,.02,.19,.05,.28,.08,.1,.02,.2,.05,.29,.07,.11,.03,.22,.05,.33,.08,.08,.02,.17,.04,.25,.06,.02,0,.03,0,.05,0,.08,.02,.15,.03,.23,.05h.01c.11,.03,.22,.05,.32,.07,0,0,.01,0,.02,0h0c.09,.02,.19,.03,.27,.05,.01,0,.03,0,.03,0,.05,0,.1,.01,.14,.03,.09,.01,.18,.03,.27,.05,.02,0,.04,0,.06,0,.1,.02,.2,.04,.31,.05,.02,0,.04,0,.06,.01,.07,.01,.14,.02,.21,.03,.02,0,.03,0,.05,0,.1,.01,.2,.03,.29,.05,.03,0,.06,0,.09,0,.01,0,.03,0,.05,0,.11,.02,.22,.03,.33,.05,.11,.01,.22,.03,.33,.04,.01,0,.03,0,.05,0,.08,0,.16,.02,.24,.03,.08,0,.16,.01,.24,.03h.02s.05,0,.07,0c.1,.01,.21,.02,.32,.03,.12,.01,.23,.02,.35,.03,.14,0,.27,.02,.4,.03,.08,0,.14,0,.22,.01h.06c.06,0,.12,0,.18,.01,.13,0,.27,.01,.4,.01,.14,0,.27,.01,.4,.01h.13c.23,0,.45,.01,.67,.01s.45,0,.67,0h.13c.14,0,.27-.01,.4-.02,.13,0,.26,0,.4-.01,.06,0,.12,0,.18-.01h.06c.06,0,.12,0,.18-.01,.9,.05,1.83,.07,2.78,.07h8.3v3.84c0,3.8-1.16,6.61-3.47,8.43-2.31,1.82-6.11,2.73-11.4,2.73-1.9,0-4.27-.1-7.12-.31-2.85-.21-6.3-.56-10.35-1.06l-3.1,16.98c3.72,.74,7.27,1.34,10.66,1.8,3.39,.45,6.69,.68,9.91,.68,7.27,0,13.61-1.18,19.02-3.53,5.41-2.35,9.62-5.74,12.64-10.16,3.01-4.42,4.52-9.6,4.52-15.56v-3.9l-14.32-5.46c-4.96-2.17-9.25-5.59-12.46-9.87-.13-.18-.26-.35-.38-.53h0c-.06,0-.13,0-.19,0h-.04c-.05,0-.12,0-.17,0s-.1,0-.16,0c-.07,0-.14,0-.22-.01-.05,0-.12,0-.18-.01-.04,0-.08,0-.12,0-.08,0-.14-.01-.22-.02-.07,0-.14-.01-.21-.02-.07,0-.14-.01-.21-.02-.29-.03-.57-.08-.85-.12-.07,0-.14-.02-.21-.03-.08-.01-.14-.02-.21-.03-.06-.01-.12-.03-.19-.04-.04,0-.08-.01-.12-.02-.06-.01-.12-.03-.19-.04-.05,0-.09-.02-.14-.03-.18-.04-.36-.08-.53-.13l-.14-.04s-.09-.02-.14-.03c-.15-.04-.3-.08-.45-.13-.08-.02-.15-.05-.23-.07-.05-.01-.09-.03-.14-.05-.06-.02-.12-.03-.19-.06-.06-.02-.12-.04-.19-.06-.2-.07-.4-.14-.6-.22-.05-.02-.1-.04-.16-.06-.08-.03-.15-.06-.23-.1-.06-.03-.13-.05-.19-.08-.25-.11-.5-.23-.75-.35-.05-.03-.12-.05-.18-.09-.12-.06-.25-.12-.37-.19-.12-.07-.24-.13-.36-.2-.05-.03-.12-.07-.18-.1-.05-.03-.12-.07-.18-.1-.12-.07-.23-.14-.35-.21-.06-.03-.12-.07-.17-.11-.08-.05-.16-.1-.23-.14-.08-.05-.16-.1-.23-.15-.09-.06-.18-.12-.26-.18-.05-.03-.09-.06-.14-.1-.11-.08-.22-.16-.33-.25-.03-.02-.06-.04-.1-.08-.02,0-.05-.03-.07-.05-.12-.08-.22-.16-.33-.25-.05-.04-.1-.09-.16-.13-.1-.09-.19-.18-.28-.27-.5-.52-.93-1.16-1.28-1.91-.83-1.78-1.24-4.57-1.24-8.36,0-4.04,.47-7.04,1.43-8.99,.95-1.94,2.29-3.2,4.02-3.78,.53-.18,1.09-.32,1.67-.45,1.33-.28,2.8-.43,4.4-.43h8.3v23.03c2.34,.21,4.46,.52,6.33,.88v.06c.23-.19,2.67,1.1,3.81,1.78Z"/>
              </g>
            </g>
            <path class="cls-1" d="M220.38,259.74c-.91,0-2.03-.04-3.35-.12-1.32-.08-2.73-.21-4.21-.37l.37-17.72c1.49,0,2.87,.02,4.15,.06,1.28,.04,2.21,.06,2.79,.06,2.81,0,5.02-1.14,6.63-3.41,1.61-2.27,2.42-5.56,2.42-9.85v-64.07h21.31v64.07c0,6.03-1.26,11.42-3.78,16.17-2.52,4.75-6.03,8.47-10.53,11.15-4.5,2.68-9.77,4.03-15.8,4.03Zm8.8-107.07v-16.23h21.44v16.23h-21.44Zm21.31,42.26v-18.22h25.65v18.22h-25.65Zm25.53-42.26v-16.23h21.44v16.23h-21.44Zm.12,73.98v-62.33h21.31v55.27l-13.26-11.03h26.02v18.09h-34.08Zm34.08,0v-18.09c.5,0,.89,.21,1.18,.62,.29,.41,.54,1.01,.74,1.8,.21,.79,.35,1.73,.43,2.85,.08,1.12,.12,2.38,.12,3.78s-.04,2.66-.12,3.78c-.08,1.12-.23,2.07-.43,2.85-.21,.79-.46,1.38-.74,1.8-.29,.41-.68,.62-1.18,.62Z"/>
            <path class="cls-1" d="M310.22,226.66c-.41,0-.78-.21-1.12-.62-.33-.41-.58-1.01-.74-1.8-.16-.78-.31-1.73-.43-2.85-.12-1.12-.19-2.37-.19-3.78,0-1.9,.08-3.51,.25-4.83,.17-1.32,.43-2.35,.81-3.1s.85-1.12,1.42-1.12v18.09Zm0,0v-18.09h37.3l-13.26,11.03v-55.27h21.31v62.33h-45.36Zm4.96,28.13v-16.23h34.03v16.23h-34.03Z"/>
            <path class="cls-1" d="M364.24,259.74c-.91,0-2.03-.04-3.35-.12-1.32-.08-2.73-.21-4.21-.37l.37-17.72c1.49,0,2.87,.02,4.15,.06,1.28,.04,2.21,.06,2.79,.06,2.81,0,5.02-1.14,6.63-3.41,1.61-2.27,2.42-5.56,2.42-9.85v-64.07h21.31v64.07c0,6.03-1.26,11.42-3.78,16.17-2.52,4.75-6.03,8.47-10.53,11.15-4.5,2.68-9.77,4.03-15.8,4.03Z"/>
            <path class="cls-1" d="M482.09,130.25v-10.53h33.83v10.53h-33.83Zm8.3-1.61c-1.73-2.06-3.06-4.03-3.97-5.89-.91-1.86-1.36-3.86-1.36-6.01,0-3.14,.83-5.95,2.48-8.43,1.65-2.48,3.84-4.44,6.57-5.89,2.73-1.44,5.74-2.17,9.05-2.17,1.73,0,3.53,.25,5.39,.74,1.86,.5,3.41,1.16,4.65,1.98l-4.83,8.92c-.83-.41-1.63-.68-2.42-.81-.79-.12-1.55-.19-2.29-.19-1.98,0-3.51,.52-4.59,1.55-1.07,1.03-1.61,2.38-1.61,4.03,0,.99,.19,1.92,.56,2.79,.37,.87,.97,1.76,1.8,2.66l-9.42,6.69Zm-1.98,98.02v-86.74h21.19v86.74h-21.19Z"/>
            <g id="Special_Letter-2" data-name="Special Letter">
              <g id="Logo-2" data-name="Logo">
                <path class="cls-1" d="M447.91,182.41l.03,.03c.06,.06,.13,.12,.19,.18,.06,.07,.13,.13,.19,.2l.05,.05v-.47h-.47Zm.42,25.74c-.06,.06-.13,.12-.19,.19-.06,.06-.13,.12-.19,.19-.01,.01-.02,.02-.03,.03h.47v-.47s-.03,.04-.05,.06Z"/>
                <path class="cls-1" d="M458.52,208.17c2.72,1.63,5.92,2.56,9.32,2.56h1.85v-46.41h-29.62c-.93,0-1.84,.02-2.74,.07h-.02c-.07,0-.13,0-.2-.01h-.06c-.06,0-.12,0-.18-.01-.14,0-.27-.01-.4-.01-.14,0-.27-.01-.4-.01-.04,0-.09,0-.13,0-.23,0-.45,0-.67,0s-.45,0-.67,0c-.04,0-.09,0-.13,0-.14,0-.27,0-.4,.01-.13,0-.27,0-.4,.01-.06,0-.12,0-.18,.01h-.06c-.08,0-.14,0-.22,.01-.14,0-.27,.02-.4,.03-.12,.01-.23,.02-.35,.03-.1,0-.21,.01-.32,.03-.02,0-.04,0-.07,0h-.02c-.08,.01-.16,.02-.24,.03-.08,0-.16,.02-.24,.03-.02,0-.04,0-.05,0-.11,.01-.22,.03-.33,.04-.11,.01-.22,.03-.33,.05-.01,0-.03,0-.05,0-.03,0-.05,0-.09,.01-.1,.01-.19,.03-.29,.04-.02,0-.03,0-.05,0-.07,.01-.14,.03-.21,.03-.02,0-.04,0-.06,.01-.11,.01-.21,.03-.31,.05-.02,0-.04,0-.06,0-.09,.01-.18,.03-.27,.05-.05,.01-.1,.02-.14,.03,0,0-.02,0-.03,0-.09,.02-.19,.04-.27,.05h0s-.01,0-.02,0c-.1,.02-.21,.05-.32,.07h-.01c-.08,.02-.15,.03-.23,.05-.02,0-.03,0-.05,0-.08,.02-.17,.04-.25,.06-.11,.03-.22,.05-.33,.08-.1,.02-.2,.05-.29,.08-.1,.02-.19,.05-.28,.07-.09,.03-.17,.05-.25,.07-.04,.01-.08,.02-.12,.03-.1,.03-.19,.05-.28,.08-.03,0-.05,.01-.07,.02-.12,.03-.24,.07-.36,.11-.13,.03-.25,.08-.38,.12-.12,.03-.23,.08-.34,.11-.01,0-.03,.01-.05,.02-.12,.03-.24,.08-.36,.12-.12,.05-.25,.09-.37,.14-.08,.03-.17,.06-.25,.09-.05,.02-.12,.04-.17,.07-.02,0-.03,.01-.05,.01-.21,.08-.42,.16-.62,.25-.1,.04-.19,.08-.28,.12-.04,.01-.08,.03-.12,.05-.1,.05-.21,.1-.32,.14h0c-.16,.06-.31,.13-.46,.21,0,0,0,0-.01,0-.36,.16-.71,.34-1.06,.51-.1,.05-.19,.1-.29,.14l-.12,.06c-.06,.03-.12,.07-.19,.1-.13,.07-.25,.14-.38,.21-.08,.04-.15,.08-.23,.13-.08,.04-.16,.09-.24,.13-.07,.04-.14,.08-.21,.12-.05,.03-.12,.07-.17,.1-.1,.05-.19,.11-.28,.16-.12,.08-.23,.14-.35,.22-.09,.05-.19,.11-.27,.17-.04,.03-.09,.05-.13,.08-.1,.06-.19,.12-.29,.19-.12,.08-.24,.16-.36,.25-.12,.08-.24,.16-.36,.25-.08,.05-.15,.11-.23,.16-.02,.02-.04,.03-.06,.05-.09,.07-.19,.13-.27,.2-.07,.04-.14,.09-.2,.14-.15,.12-.3,.23-.45,.34-.05,.04-.1,.08-.15,.12-.1,.08-.21,.16-.31,.25-.1,.08-.19,.15-.27,.23-.1,.08-.19,.16-.29,.24-.21,.17-.41,.35-.62,.53-.04,.03-.08,.07-.12,.1-.04,.03-.08,.07-.11,.1-.26,.24-.52,.49-.77,.73-.1,.1-.21,.2-.31,.3-.1,.1-.2,.2-.29,.3-.25,.25-.49,.51-.73,.78-.03,.03-.07,.07-.1,.1-.03,.04-.08,.08-.11,.12-.18,.2-.36,.4-.53,.62-.08,.1-.16,.19-.24,.29-.08,.09-.15,.18-.22,.27-.08,.1-.17,.21-.25,.32-.03,.05-.08,.1-.11,.14-.23,.29-.44,.58-.65,.87-.01,.01-.03,.03-.03,.05-.01,.02-.03,.03-.04,.05,0,0,0,0,0,.01-.05,.08-.11,.15-.16,.22-.17,.24-.34,.48-.49,.73-.06,.1-.12,.19-.19,.28-.03,.05-.06,.1-.09,.14-.05,.09-.12,.18-.17,.27-.08,.11-.14,.23-.21,.35-.06,.09-.12,.19-.17,.27-.03,.06-.07,.12-.1,.18-.05,.08-.1,.17-.14,.25-.05,.1-.11,.19-.16,.28-.03,.05-.05,.1-.08,.14-.05,.09-.1,.19-.14,.27h0s-.01,.03-.01,.03t0,.01s-.02,.04-.03,.06c-.03,.06-.07,.12-.1,.19-.01,.01-.02,.03-.03,.05-.01,.02-.03,.04-.03,.07-.05,.09-.1,.19-.15,.28,0,0,0,.01,0,.02,0,.01-.02,.03-.03,.05-.05,.11-.1,.21-.16,.32,0,.01-.01,.03-.02,.05-.06,.12-.12,.24-.17,.36-.05,.1-.1,.2-.14,.29-.02,.05-.04,.1-.06,.14-.05,.1-.1,.21-.14,.32-.05,.11-.1,.21-.14,.32-.02,.04-.03,.08-.05,.12-.03,.09-.08,.19-.11,.27-.09,.21-.17,.42-.25,.62,0,.02-.01,.03-.02,.05-.02,.06-.04,.12-.06,.18-.03,.08-.07,.16-.1,.25-.04,.12-.09,.25-.13,.37-.04,.12-.08,.24-.12,.36,0,.02-.01,.03-.02,.05-.03,.11-.07,.23-.11,.34h0c-.04,.13-.08,.25-.12,.38-.03,.12-.08,.24-.11,.36,0,.02-.01,.04-.02,.06-.03,.1-.05,.19-.08,.29-.01,.04-.03,.08-.03,.12-.03,.08-.05,.16-.07,.25-.03,.1-.05,.19-.08,.28-.03,.1-.05,.2-.08,.3-.03,.1-.05,.21-.08,.32-.02,.09-.03,.17-.05,.26,0,.02,0,.03-.01,.05-.02,.08-.03,.15-.05,.23,0,0,0,0,0,.01-.02,.1-.04,.21-.07,.32v.02c-.02,.1-.04,.19-.05,.28,0,.01,0,.02,0,.03-.01,.05-.02,.1-.03,.14-.02,.09-.03,.19-.05,.27,0,.02-.01,.03-.01,.05-.02,.1-.03,.21-.05,.31,0,.02,0,.04,0,.07-.01,.07-.03,.14-.03,.21,0,.01,0,.03-.01,.05-.01,.1-.03,.2-.04,.29,0,.03,0,.05-.01,.09,0,.01,0,.03,0,.05-.01,.11-.03,.22-.05,.33-.01,.1-.03,.21-.03,.32,0,.02,0,.04,0,.05-.01,.08-.02,.16-.03,.24-.01,.08-.02,.16-.03,.24v.03s0,.05-.01,.07c0,.1-.02,.21-.03,.32,0,.12-.02,.23-.03,.34-.01,.14-.02,.27-.03,.41,0,.08-.01,.14-.01,.22,0,.01,0,.03,0,.05,0,.06,0,.12,0,.19,0,.13-.01,.26-.02,.4,0,.13,0,.27-.01,.4v.14c0,.22,0,.45,0,.67s0,.45,0,.66v.14c0,.13,0,.27,.01,.4,0,.14,.01,.27,.02,.4,0,.05,0,.12,0,.18,0,.02,0,.04,0,.06,0,.07,0,.14,.01,.21,0,.14,.01,.27,.03,.41,0,.12,.02,.23,.03,.34,0,.11,.02,.21,.03,.32,0,.02,0,.05,0,.07,0,0,0,.02,0,.03,0,.08,.01,.16,.03,.24,0,.08,.01,.16,.03,.24,0,.02,0,.03,0,.05,0,.11,.02,.22,.03,.33,.01,.1,.03,.21,.05,.32,0,.02,0,.03,0,.05,0,.03,0,.06,.01,.09,.01,.1,.03,.2,.04,.29,0,.02,0,.04,.01,.06,0,.07,.02,.14,.03,.21,0,.02,0,.04,0,.06,.02,.1,.03,.21,.05,.31,0,.02,0,.04,.01,.05,.01,.1,.03,.19,.05,.27,0,.05,.01,.09,.03,.14,0,.01,0,.03,0,.03,.01,.1,.03,.19,.05,.28v.02c.03,.11,.05,.22,.07,.33,0,0,0,0,0,0,.01,.08,.03,.15,.05,.23,0,.02,0,.04,.01,.05,.02,.09,.03,.17,.05,.26,.03,.11,.05,.22,.08,.32,.02,.1,.05,.2,.08,.3,.02,.09,.05,.19,.08,.28,.02,.08,.04,.16,.07,.25,0,.04,.02,.08,.03,.12,.02,.1,.05,.19,.08,.29,0,.02,.01,.04,.02,.06,.03,.12,.08,.24,.11,.36,.04,.12,.08,.25,.12,.37h0c.04,.12,.08,.23,.11,.34,0,.02,.01,.03,.02,.05,.04,.12,.08,.23,.12,.36,.04,.12,.09,.25,.13,.37,.03,.08,.06,.16,.1,.25,.02,.06,.04,.12,.06,.18,0,.01,.01,.03,.02,.05,.08,.21,.16,.42,.25,.62,.03,.09,.08,.19,.11,.27,.02,.04,.03,.08,.05,.12,.04,.11,.09,.21,.14,.32s.1,.21,.14,.32c.02,.04,.04,.09,.06,.14,.04,.1,.09,.2,.14,.29,.05,.12,.11,.24,.17,.36,0,.02,.01,.03,.02,.05,.05,.11,.1,.22,.16,.32,0,.02,.02,.03,.03,.05,0,0,0,.01,0,.02,.05,.1,.1,.19,.15,.29,0,.02,.02,.04,.03,.07,0,.01,.01,.03,.03,.05,.03,.06,.06,.12,.1,.19,.01,.02,.02,.04,.03,.06t0,.01s0,.02,.01,.03h0c.05,.1,.1,.19,.14,.28,.03,.04,.05,.09,.08,.14,.05,.1,.1,.19,.16,.28,.05,.09,.1,.17,.14,.25,.03,.06,.07,.12,.1,.18,.05,.09,.11,.19,.17,.27,.07,.12,.14,.24,.21,.36,.05,.09,.12,.18,.17,.27,.03,.05,.05,.09,.09,.14,.06,.1,.12,.19,.19,.28,.16,.25,.32,.49,.49,.73,.05,.08,.1,.14,.16,.22,0,0,0,.01,0,.01,.01,.02,.03,.03,.04,.05,0,.01,.02,.03,.03,.05,0,.01,.01,.02,.01,.03,.05,.06,.09,.12,.14,.18,.06,.09,.12,.17,.19,.26,.07,.08,.13,.17,.2,.25,.08,.1,.15,.2,.23,.29,.02,.02,.03,.04,.05,.05,.03,.05,.08,.1,.11,.14,.03,.04,.06,.08,.1,.12,.07,.09,.14,.18,.22,.27,.08,.1,.16,.19,.24,.29,.06,.08,.12,.14,.19,.22,.1,.12,.2,.23,.3,.35,.08,.09,.17,.19,.25,.27,.06,.07,.12,.14,.19,.21,.05,.06,.12,.12,.17,.19,.12,.13,.25,.26,.38,.39,.1,.1,.2,.21,.29,.3,.1,.1,.21,.2,.31,.3,.12,.12,.26,.25,.39,.38,.06,.05,.12,.11,.18,.16,.07,.06,.14,.13,.21,.19,.1,.08,.19,.16,.28,.25,.12,.1,.23,.21,.35,.31,.07,.06,.14,.12,.21,.19,.1,.08,.19,.16,.29,.24,.09,.07,.18,.14,.27,.22,.03,.03,.08,.06,.11,.09,.05,.04,.1,.08,.14,.12,.02,.01,.04,.03,.05,.04,.1,.08,.2,.15,.29,.23,.09,.06,.17,.13,.26,.19,.08,.06,.17,.13,.25,.19,.06,.04,.12,.09,.19,.13,0,0,.01,.01,.02,.01,.02,.01,.03,.03,.05,.04,.01,.01,.03,.03,.05,.03,0,0,.01,0,.01,.01,.08,.05,.15,.1,.23,.16,.24,.16,.48,.33,.72,.49,.1,.06,.19,.12,.29,.19,.04,.03,.09,.05,.13,.08,.09,.06,.19,.12,.27,.17,.12,.08,.23,.15,.35,.22,.09,.05,.19,.11,.28,.16,.05,.03,.12,.07,.17,.1,.09,.05,.17,.1,.25,.15,.1,.05,.19,.1,.28,.16,.05,.02,.1,.05,.14,.08,.09,.05,.19,.1,.27,.15h0s.02,.01,.03,.02h0s.04,.03,.06,.03c.06,.03,.12,.07,.19,.1,.02,0,.03,.01,.05,.03,.02,.01,.04,.02,.07,.03,.1,.05,.19,.1,.29,.14,0,0,.01,0,.02,.01,.01,0,.03,.01,.04,.02,.11,.05,.22,.11,.32,.16,.01,.01,.03,.02,.05,.03,.12,.05,.24,.11,.36,.17,.1,.04,.19,.09,.29,.14,.05,.02,.1,.04,.14,.06,.1,.05,.21,.1,.32,.14,.11,.04,.22,.09,.32,.14,.04,.01,.08,.03,.12,.05,.1,.04,.19,.08,.28,.12,.21,.08,.41,.16,.62,.25,.01,0,.03,.01,.05,.01,.05,.03,.12,.05,.17,.07,.08,.03,.17,.06,.25,.09,.12,.05,.25,.09,.37,.14,.12,.04,.23,.08,.36,.12,.01,0,.03,0,.05,.01,.12,.03,.23,.08,.34,.11,.12,.04,.25,.08,.38,.12,.12,.04,.24,.08,.36,.11,.02,0,.04,.01,.07,.02,.09,.03,.19,.05,.28,.08,.04,.01,.08,.02,.12,.03,.08,.02,.16,.04,.25,.07,.09,.02,.19,.05,.28,.08,.1,.02,.2,.05,.29,.07,.11,.03,.22,.05,.33,.08,.08,.02,.17,.04,.25,.06,.02,0,.03,0,.05,0,.08,.02,.15,.03,.23,.05h.01c.11,.03,.22,.05,.32,.07,0,0,.01,0,.02,0h0c.09,.02,.19,.03,.27,.05,.01,0,.03,0,.03,0,.05,0,.1,.01,.14,.03,.09,.01,.18,.03,.27,.05,.02,0,.04,0,.06,0,.1,.02,.2,.04,.31,.05,.02,0,.04,0,.06,.01,.07,.01,.14,.02,.21,.03,.02,0,.03,0,.05,0,.1,.01,.2,.03,.29,.05,.03,0,.06,0,.09,0,.01,0,.03,0,.05,0,.11,.02,.22,.03,.33,.05,.11,.01,.22,.03,.33,.04,.01,0,.03,0,.05,0,.08,0,.16,.02,.24,.03,.08,0,.16,.01,.24,.03h.02s.05,0,.07,0c.1,.01,.21,.02,.32,.03,.12,.01,.23,.02,.35,.03,.14,0,.27,.02,.4,.03,.08,0,.14,0,.22,.01h.06c.06,0,.12,0,.18,.01,.13,0,.27,.01,.4,.01,.14,0,.27,.01,.4,.01h.13c.23,0,.45,.01,.67,.01s.45,0,.67,0h.13c.14,0,.27-.01,.4-.02,.13,0,.26,0,.4-.01,.06,0,.12,0,.18-.01h.06c.06,0,.12,0,.18-.01,.9,.05,1.83,.07,2.78,.07h8.3v3.84c0,3.8-1.16,6.61-3.47,8.43-2.31,1.82-6.11,2.73-11.4,2.73-1.9,0-4.27-.1-7.12-.31-2.85-.21-6.3-.56-10.35-1.06l-3.1,16.98c3.72,.74,7.27,1.34,10.66,1.8,3.39,.45,6.69,.68,9.91,.68,7.27,0,13.61-1.18,19.02-3.53,5.41-2.35,9.62-5.74,12.64-10.16,3.01-4.42,4.52-9.6,4.52-15.56v-3.9l-14.32-5.46c-4.96-2.17-9.25-5.59-12.46-9.87-.13-.18-.26-.35-.38-.53h0c-.06,0-.13,0-.19,0h-.04c-.05,0-.12,0-.17,0s-.1,0-.16,0c-.07,0-.14,0-.22-.01-.05,0-.12,0-.18-.01-.04,0-.08,0-.12,0-.08,0-.14-.01-.22-.02-.07,0-.14-.01-.21-.02-.07,0-.14-.01-.21-.02-.29-.03-.57-.08-.85-.12-.07,0-.14-.02-.21-.03-.08-.01-.14-.02-.21-.03-.06-.01-.12-.03-.19-.04-.04,0-.08-.01-.12-.02-.06-.01-.12-.03-.19-.04-.05,0-.09-.02-.14-.03-.18-.04-.36-.08-.53-.13l-.14-.04s-.09-.02-.14-.03c-.15-.04-.3-.08-.45-.13-.08-.02-.15-.05-.23-.07-.05-.01-.09-.03-.14-.05-.06-.02-.12-.03-.19-.06-.06-.02-.12-.04-.19-.06-.2-.07-.4-.14-.6-.22-.05-.02-.1-.04-.16-.06-.08-.03-.15-.06-.23-.1-.06-.03-.13-.05-.19-.08-.25-.11-.5-.23-.75-.35-.05-.03-.12-.05-.18-.09-.12-.06-.25-.12-.37-.19-.12-.07-.24-.13-.36-.2-.05-.03-.12-.07-.18-.1-.05-.03-.12-.07-.18-.1-.12-.07-.23-.14-.35-.21-.06-.03-.12-.07-.17-.11-.08-.05-.16-.1-.23-.14-.08-.05-.16-.1-.23-.15-.09-.06-.18-.12-.26-.18-.05-.03-.09-.06-.14-.1-.11-.08-.22-.16-.33-.25-.03-.02-.06-.04-.1-.08-.02,0-.05-.03-.07-.05-.12-.08-.22-.16-.33-.25-.05-.04-.1-.09-.16-.13-.1-.09-.19-.18-.28-.27-.5-.52-.93-1.16-1.28-1.91-.83-1.78-1.24-4.57-1.24-8.36,0-4.04,.47-7.04,1.43-8.99,.95-1.94,2.29-3.2,4.02-3.78,.53-.18,1.09-.32,1.67-.45,1.33-.28,2.8-.43,4.4-.43h8.3v23.03c2.34,.21,4.46,.52,6.33,.88v.06c.23-.19,2.67,1.1,3.81,1.78Z"/>
              </g>
              <path class="cls-8" d="M467.84,210.73c-3.41,0-6.6-.93-9.32-2.56-1.14-.68-3.59-1.97-3.81-1.78v-.06c-1.87-.36-3.99-.67-6.33-.88-1.93-.17-4-.27-6.21-.24-4.26,.05-8,.52-11.1,1.11,.09,.1,.19,.18,.28,.27,.05,.04,.1,.09,.16,.13,.11,.09,.22,.17,.33,.25,.02,.02,.05,.04,.07,.05,.03,.03,.06,.05,.1,.08,.11,.09,.22,.16,.33,.25,.05,.03,.09,.06,.14,.1,.08,.06,.17,.12,.26,.18,.07,.05,.15,.1,.23,.15,.07,.05,.15,.1,.23,.14,.05,.04,.11,.08,.17,.11,.12,.08,.23,.14,.35,.21,.06,.03,.12,.07,.18,.1,.06,.03,.12,.07,.18,.1,.12,.07,.24,.13,.36,.2,.12,.06,.25,.12,.37,.19,.05,.03,.12,.06,.18,.09,.25,.12,.5,.24,.75,.35,.06,.03,.13,.05,.19,.08,.08,.03,.15,.06,.23,.1,.05,.02,.1,.04,.16,.06,.2,.08,.4,.15,.6,.22,.06,.02,.12,.04,.19,.06,.06,.03,.12,.04,.19,.06,.05,.02,.09,.03,.14,.05,.08,.02,.15,.05,.23,.07,.15,.05,.3,.09,.45,.13,.05,.01,.09,.03,.14,.03l.14,.04c.18,.05,.36,.09,.53,.13,.05,0,.09,.02,.14,.03,.06,.01,.12,.03,.19,.04,.03,0,.08,.01,.12,.02,.06,.01,.12,.03,.19,.04,.07,.01,.14,.02,.21,.03,.07,.01,.14,.03,.21,.03,.28,.05,.56,.09,.85,.12,.07,0,.14,.01,.21,.02,.07,0,.14,.01,.21,.02,.08,0,.14,.01,.22,.02,.04,0,.08,0,.12,0,.06,0,.12,.01,.18,.01,.08,0,.15,0,.22,.01,.05,0,.1,0,.16,0s.12,0,.17,0h.04c.06,0,.13,0,.19,0h0c.12,.18,.25,.35,.38,.53,3.21,4.28,7.5,7.7,12.46,9.87l14.32,5.46v-15.86h-1.85Z"/>
              <path class="cls-3" d="M409.95,177.31s.04-.05,.05-.07c.17-.23,.34-.47,.52-.7,.08-.1,.15-.2,.23-.3,.08-.1,.17-.21,.25-.31,.07-.09,.15-.18,.22-.27,.08-.1,.16-.19,.24-.29,.06-.07,.12-.14,.18-.22,.1-.12,.2-.23,.31-.35,.08-.09,.17-.19,.25-.28,.06-.07,.12-.14,.19-.2,.06-.06,.11-.12,.17-.18,.44-.47,.9-.93,1.37-1.37,.06-.06,.12-.11,.18-.17,.07-.06,.14-.13,.2-.19,.09-.08,.18-.17,.28-.25,.12-.1,.23-.2,.35-.31,.07-.06,.14-.12,.22-.18,.1-.08,.19-.16,.29-.24,.09-.07,.18-.15,.27-.22,.1-.08,.21-.17,.31-.25,.1-.08,.2-.15,.3-.23,.25-.19,.51-.38,.77-.57,.02-.01,.04-.02,.05-.04,.08-.06,.16-.11,.24-.17,.24-.17,.48-.33,.72-.49,.09-.06,.19-.12,.29-.19,.13-.09,.27-.17,.41-.26,.12-.07,.23-.14,.35-.22,.37-.23,.75-.44,1.13-.65,.09-.05,.18-.1,.28-.15,.02,0,.03-.02,.05-.02,.1-.06,.2-.11,.3-.16,.02-.01,.05-.02,.07-.04,.1-.05,.2-.1,.31-.16,.01,0,.03-.02,.05-.02,.11-.05,.21-.11,.32-.16,.02,0,.03-.02,.05-.02,.12-.06,.24-.12,.36-.17,.1-.05,.2-.09,.29-.14,.15-.07,.31-.14,.46-.21,4.96,2.17,9.25,5.59,12.47,9.87,.13,.17,.26,.35,.38,.52,0,0,0,0,0,0,.06,0,.13,0,.19,0,.01,0,.03,0,.04,0,.06,0,.12,0,.17,0,.05,0,.1,0,.16,0,.07,0,.15,0,.22,.01,.06,0,.12,0,.18,.01,.04,0,.08,0,.13,0,.07,0,.14,.01,.22,.02,.07,0,.14,.01,.21,.02,.07,0,.14,.02,.21,.02,.28,.03,.57,.07,.85,.12,.07,.01,.14,.02,.21,.04s.14,.02,.21,.04c.06,.01,.12,.02,.18,.04,.04,0,.08,.01,.12,.02,.06,.01,.12,.02,.18,.04,.04,0,.09,.02,.14,.03,.18,.04,.36,.08,.54,.13,.05,.01,.1,.02,.15,.04,.04,.01,.09,.02,.14,.04,.15,.04,.3,.09,.45,.13,.08,.02,.15,.05,.23,.07,.05,.01,.09,.03,.14,.04,.06,.02,.12,.04,.18,.06,.06,.02,.12,.04,.19,.06,.2,.07,.4,.14,.6,.22,.05,.02,.1,.04,.16,.06,.08,.03,.15,.06,.23,.09,.06,.03,.13,.05,.19,.08,.25,.11,.5,.22,.75,.34,.06,.03,.12,.06,.18,.09,.12,.06,.25,.12,.37,.19,.12,.06,.24,.13,.36,.2,.06,.03,.12,.07,.18,.1,.06,.03,.12,.07,.18,.1,.12,.07,.23,.14,.35,.21,.06,.04,.12,.07,.17,.11,.08,.05,.15,.1,.23,.15,.08,.05,.15,.1,.23,.15,.09,.06,.17,.12,.26,.18,.05,.03,.09,.06,.14,.1,.11,.08,.22,.16,.33,.24,.05,.04,.11,.08,.16,.12,.11,.08,.22,.17,.33,.26,.1,.08,.21,.17,.31,.26,.03,.03,.07,.06,.1,.08,.02,.02,.82,.73,.84,.75,0,0-7.63,.38-11.91,.42-4.88,.05-9.12-.47-12.54-1.12v-.06c-.23,.19-2.67-1.1-3.81-1.78-2.73-1.63-5.91-2.57-9.32-2.57-.13,0-.26,0-.39,0h0Z"/>
            </g>
          </g>
          <rect id="Dot" class="cls-7" x="104.59" y="209.72" width="21.44" height="17.63"/>
        </g>
        <g id="Logo-3" data-name="Logo">
          <path class="cls-1" d="M695.39,178.29c0-.11,0-.23,0-.34,0-.34-.02-.68-.03-1.03-.01-.34-.03-.68-.05-1.02,0-.15-.02-.31-.03-.46,0-.05,0-.1,0-.15-.01-.19-.02-.37-.03-.56-.02-.35-.05-.7-.07-1.04-.02-.3-.05-.59-.07-.89-.02-.27-.05-.54-.08-.8,0-.06-.01-.12-.02-.18v-.06c-.03-.2-.05-.41-.07-.61-.02-.21-.05-.41-.07-.62,0-.05-.01-.09-.02-.14-.03-.28-.07-.56-.1-.84-.03-.28-.07-.56-.11-.84,0-.04-.01-.08-.02-.12,0-.07-.02-.15-.03-.22-.03-.25-.07-.51-.11-.76,0-.05-.01-.1-.02-.14-.03-.18-.06-.36-.09-.54,0-.06-.02-.11-.03-.16-.04-.27-.09-.53-.14-.79,0-.05-.02-.1-.03-.15-.04-.23-.08-.46-.13-.69-.02-.12-.04-.24-.07-.36,0-.03-.01-.06-.02-.09-.05-.24-.09-.47-.14-.71,0,0,0,0,0,0,0-.02,0-.03-.01-.05-.06-.28-.11-.56-.18-.83,0,0,0-.02,0-.03-.04-.2-.08-.39-.13-.58-.01-.05-.02-.09-.03-.14-.05-.22-.1-.44-.15-.66-.06-.28-.13-.56-.2-.84-.06-.25-.12-.51-.19-.76-.06-.24-.12-.48-.19-.72-.06-.22-.12-.43-.18-.64-.03-.1-.06-.21-.09-.31-.07-.25-.14-.49-.21-.74-.02-.05-.03-.11-.05-.16-.09-.31-.18-.62-.28-.93-.1-.32-.2-.64-.3-.96,0,0,0,0,0,0-.09-.29-.19-.57-.28-.86-.02-.05-.03-.09-.05-.13-.1-.31-.21-.61-.31-.91-.11-.32-.22-.63-.34-.95-.08-.21-.16-.43-.24-.64-.05-.15-.11-.3-.17-.45-.02-.04-.03-.08-.05-.12-.2-.54-.41-1.07-.63-1.6-.1-.24-.19-.47-.29-.71-.04-.11-.09-.21-.13-.31-.12-.28-.23-.55-.35-.82-.12-.27-.24-.54-.36-.82-.06-.12-.11-.24-.16-.36-.11-.25-.23-.5-.35-.75-.14-.31-.29-.61-.44-.92-.02-.04-.04-.08-.06-.12-.13-.28-.27-.55-.41-.82-.02-.04-.04-.08-.06-.12,0-.02-.02-.03-.03-.05-.12-.24-.24-.49-.37-.73-.03-.06-.06-.12-.09-.18-.02-.05-.05-.09-.07-.14-.08-.16-.16-.32-.25-.48-.03-.05-.06-.11-.09-.16,0,0,0-.02-.01-.02-.01-.03-.03-.06-.05-.09,0,0,0,0,0,0-.12-.24-.26-.47-.39-.71-.07-.12-.13-.24-.2-.36-.13-.24-.27-.48-.4-.72-.12-.22-.25-.44-.37-.65-.09-.15-.18-.3-.26-.45-.14-.24-.28-.48-.43-.72-.18-.3-.36-.6-.55-.9-.15-.23-.29-.47-.44-.69-.07-.11-.15-.23-.22-.34-.16-.24-.32-.49-.48-.73-.41-.62-.83-1.24-1.26-1.85-.13-.19-.27-.38-.41-.57,0-.01-.02-.02-.02-.03-.03-.05-.06-.09-.1-.14h0s-.06-.09-.09-.13c-.01-.02-.03-.04-.04-.06-.11-.16-.22-.31-.34-.47-.16-.22-.32-.44-.48-.65-.16-.22-.33-.44-.5-.66-.19-.25-.39-.51-.59-.75-.04-.05-.07-.1-.11-.14-.1-.12-.2-.25-.3-.37-.08-.1-.15-.19-.23-.29-.19-.23-.37-.46-.56-.69-.2-.24-.41-.49-.61-.73-.15-.19-.31-.37-.47-.55-.26-.3-.52-.6-.78-.89-.21-.24-.43-.48-.64-.71-.16-.18-.32-.35-.48-.52-.14-.16-.29-.31-.43-.47-.32-.34-.64-.67-.96-1-.25-.26-.51-.52-.77-.78-.26-.26-.52-.51-.78-.77-.33-.32-.67-.64-1-.96-.15-.15-.31-.29-.47-.43-.17-.16-.35-.32-.52-.48-.24-.22-.47-.43-.71-.64-.3-.26-.59-.52-.89-.78-.18-.16-.37-.32-.55-.47-.24-.21-.49-.41-.73-.61-.23-.19-.46-.38-.69-.56-.1-.08-.19-.16-.29-.23-.12-.1-.24-.2-.37-.3-.05-.03-.09-.07-.14-.11-.25-.2-.5-.39-.75-.59-.22-.17-.44-.33-.66-.5-.22-.16-.44-.32-.65-.48-.15-.12-.31-.23-.47-.34-.02-.02-.04-.03-.06-.04-.04-.03-.09-.06-.13-.09h0s-.09-.07-.14-.1c-.01,0-.02-.02-.03-.02-.19-.14-.38-.27-.57-.41-.61-.43-1.23-.85-1.85-1.26-.24-.16-.49-.32-.73-.48-.11-.07-.23-.15-.34-.22-.23-.15-.46-.29-.69-.44-.3-.19-.6-.37-.9-.55-.24-.14-.48-.29-.72-.43-.15-.09-.3-.18-.45-.26-.22-.12-.43-.25-.65-.37-.24-.14-.48-.27-.72-.4-.12-.07-.24-.13-.36-.2-.24-.13-.47-.26-.71-.39,0,0,0,0,0,0-.03-.02-.06-.03-.09-.05,0,0-.02,0-.02-.01-.05-.03-.11-.06-.16-.09-.16-.09-.32-.17-.48-.25-.05-.02-.09-.05-.14-.07-.06-.03-.11-.06-.18-.09-.24-.13-.49-.25-.73-.37-.02-.01-.03-.02-.05-.03-.04-.02-.08-.04-.12-.06-.27-.14-.55-.27-.82-.41-.04-.02-.08-.04-.12-.06-.31-.15-.61-.3-.92-.44-.25-.12-.5-.23-.75-.35-.12-.06-.24-.11-.36-.16-.27-.12-.54-.24-.82-.36-.27-.12-.55-.24-.82-.35-.1-.04-.21-.09-.31-.13-.23-.1-.47-.2-.71-.29-.53-.22-1.06-.43-1.6-.63-.04-.02-.08-.03-.12-.05-.15-.06-.3-.11-.45-.17-.21-.08-.43-.16-.64-.24-.32-.11-.63-.23-.95-.34-.3-.11-.61-.21-.91-.31-.04-.02-.09-.03-.13-.05-.29-.09-.57-.19-.86-.28,0,0,0,0,0,0-.32-.1-.64-.2-.96-.3-.31-.1-.62-.19-.93-.28-.05-.02-.11-.03-.16-.05-.24-.07-.49-.14-.74-.21-.1-.03-.2-.06-.31-.09-.21-.06-.43-.12-.64-.18-.24-.06-.48-.13-.72-.19-.25-.07-.51-.13-.76-.19-.28-.07-.56-.14-.84-.2-.22-.05-.44-.1-.66-.15-.05-.01-.09-.02-.14-.03-.19-.05-.39-.09-.58-.13,0,0-.02,0-.03,0-.28-.06-.56-.12-.83-.18-.02,0-.03,0-.05-.01h0c-.24-.05-.48-.1-.72-.14-.03,0-.06-.01-.09-.02-.12-.02-.24-.05-.36-.07-.23-.05-.46-.09-.69-.13-.05-.01-.1-.02-.15-.03-.26-.05-.52-.09-.79-.14-.05-.01-.11-.02-.16-.03-.18-.03-.36-.06-.54-.09-.05-.01-.1-.02-.14-.02-.25-.04-.51-.08-.76-.11-.07-.01-.15-.02-.22-.03-.04,0-.08-.01-.12-.02-.28-.04-.56-.08-.84-.11-.28-.04-.56-.07-.84-.1-.05,0-.09-.01-.14-.02-.2-.03-.41-.05-.62-.07-.2-.02-.41-.05-.61-.07h-.06c-.06-.01-.12-.02-.18-.02-.27-.03-.53-.05-.8-.08-.3-.03-.59-.05-.89-.07-.35-.03-.7-.05-1.04-.07-.19-.01-.37-.02-.56-.03-.05,0-.1,0-.15,0-.15-.01-.31-.02-.46-.03-.34-.02-.68-.03-1.02-.05-.34-.01-.68-.02-1.03-.03-.11,0-.23,0-.34,0-.57-.01-1.14-.02-1.71-.02s-1.15,0-1.71,.02c-.11,0-.23,0-.34,0-.34,0-.68,.02-1.03,.03-.34,.01-.68,.03-1.02,.05-.15,0-.31,.02-.46,.03-.05,0-.1,0-.15,0-.19,.01-.37,.02-.56,.03-.35,.02-.7,.05-1.04,.07-.3,.02-.59,.05-.89,.07-.27,.02-.54,.05-.8,.08-.06,0-.12,.01-.18,.02-.02,0-.04,0-.06,0-.2,.02-.41,.04-.61,.07-.21,.02-.41,.05-.62,.07-.05,0-.09,.01-.14,.02-.28,.03-.56,.07-.84,.1-.28,.03-.56,.07-.84,.11-.04,0-.08,.01-.12,.02-.07,0-.15,.02-.22,.03-.25,.03-.51,.07-.76,.11-.05,0-.1,.01-.14,.02-.18,.03-.36,.06-.54,.09-.06,0-.11,.02-.16,.03-.27,.04-.53,.09-.79,.14-.05,0-.1,.02-.15,.03-.23,.04-.46,.08-.69,.13-.12,.02-.24,.04-.36,.07-.03,0-.06,.01-.09,.02-.24,.05-.47,.09-.71,.14h0s-.03,0-.05,.01c-.28,.06-.56,.11-.83,.18,0,0-.02,0-.03,0-.2,.04-.39,.08-.58,.13-.05,.01-.09,.02-.14,.03-.22,.05-.44,.1-.66,.15-.28,.06-.56,.13-.84,.2-.25,.06-.51,.12-.76,.19-.24,.06-.48,.12-.72,.19-.22,.06-.43,.12-.64,.18-.1,.03-.21,.06-.31,.09-.25,.07-.49,.14-.74,.21-.05,.02-.11,.03-.16,.05-.31,.09-.62,.18-.93,.28-.32,.1-.64,.2-.96,.3,0,0,0,0,0,0-.29,.09-.57,.19-.86,.28-.05,.02-.09,.03-.13,.05-.31,.1-.61,.21-.91,.31-.32,.11-.63,.22-.95,.34-.21,.08-.43,.16-.64,.24-.15,.05-.3,.11-.45,.17-.04,.02-.08,.03-.12,.05-.54,.2-1.07,.41-1.6,.63-.24,.1-.47,.19-.71,.29-.11,.04-.21,.09-.31,.13-.28,.12-.55,.23-.82,.35-.39,.17-.77,.34-1.16,.52-.94,.43-1.88,.88-2.8,1.35-.24,.12-.49,.24-.73,.37-.1,.05-.21,.11-.31,.16-.16,.08-.32,.16-.48,.25-.33,.17-.66,.35-.99,.53-.19,.11-.39,.22-.58,.32-.2,.11-.4,.23-.6,.34-.18,.1-.36,.21-.54,.31-.15,.09-.3,.18-.45,.26-.24,.14-.48,.28-.72,.43-.3,.18-.6,.36-.9,.55-.23,.15-.47,.29-.69,.44-.11,.07-.23,.15-.34,.22-.24,.16-.49,.32-.73,.48-.31,.21-.62,.41-.93,.62-.31,.21-.62,.42-.92,.64-.19,.13-.38,.27-.57,.41-.06,.04-.11,.08-.17,.12-.23,.16-.46,.33-.69,.5-.17,.12-.34,.25-.51,.38-.39,.29-.77,.58-1.15,.87-.13,.1-.25,.2-.38,.3-.27,.21-.53,.42-.8,.64-.23,.19-.47,.37-.69,.56-.24,.2-.49,.41-.73,.61-.53,.45-1.06,.91-1.58,1.38-.1,.09-.2,.18-.3,.27-.09,.08-.18,.16-.27,.25-.68,.61-1.34,1.24-1.99,1.87-.26,.25-.52,.51-.78,.77-.26,.26-.51,.52-.77,.78-.64,.65-1.26,1.32-1.87,1.99-.08,.09-.16,.18-.25,.27-.09,.1-.18,.2-.27,.3-.47,.52-.93,1.05-1.38,1.58-.21,.24-.41,.49-.61,.73-.19,.23-.38,.46-.56,.69-.22,.27-.43,.53-.64,.8-.1,.12-.2,.25-.3,.38-.57,.73-1.12,1.47-1.66,2.22-.03,.04-.06,.09-.09,.13h0s-.07,.09-.1,.14c0,.01-.02,.02-.02,.03-.14,.19-.27,.38-.41,.57-.43,.61-.85,1.23-1.26,1.85-.16,.24-.32,.49-.48,.73-.07,.11-.15,.23-.22,.34-.15,.23-.29,.46-.44,.69-.19,.3-.37,.6-.55,.9-.14,.24-.29,.48-.43,.72-.09,.15-.18,.3-.26,.45-.12,.22-.25,.43-.37,.65-.14,.24-.27,.48-.4,.72-.07,.12-.13,.24-.2,.36-.13,.24-.26,.47-.39,.71,0,0,0,0,0,0-.02,.03-.03,.06-.05,.09,0,0,0,.02-.01,.02-.03,.05-.06,.11-.09,.16-.09,.16-.17,.32-.25,.48-.02,.05-.05,.09-.07,.14-.03,.06-.06,.11-.09,.18-.13,.24-.25,.49-.37,.73-.01,.02-.02,.03-.03,.05-.02,.04-.04,.08-.06,.12-.14,.27-.27,.55-.41,.82-.02,.04-.04,.08-.06,.12-.15,.31-.3,.61-.44,.92-.12,.25-.23,.5-.35,.75-.06,.12-.11,.24-.16,.36-.12,.27-.24,.54-.36,.82s-.24,.55-.35,.82c-.04,.1-.09,.21-.13,.31-.1,.23-.2,.47-.29,.71-.22,.53-.43,1.06-.63,1.6-.02,.04-.03,.08-.05,.12-.06,.15-.11,.3-.17,.45-.08,.21-.16,.43-.24,.64-.11,.32-.23,.63-.34,.95-.11,.3-.21,.61-.31,.91-.02,.04-.03,.09-.05,.13-.09,.29-.19,.57-.28,.86,0,0,0,0,0,0-.1,.32-.2,.64-.3,.96-.1,.31-.19,.62-.28,.93-.02,.05-.03,.11-.05,.16-.07,.24-.14,.49-.21,.74-.03,.1-.06,.2-.09,.31-.06,.21-.12,.43-.18,.64-.06,.24-.13,.48-.19,.72-.07,.25-.13,.51-.19,.76-.07,.28-.14,.56-.2,.84-.05,.22-.1,.44-.15,.66-.01,.05-.02,.09-.03,.14-.05,.19-.09,.39-.13,.58,0,0,0,.02,0,.03-.06,.28-.12,.56-.18,.83,0,.02,0,.03-.01,.05h0c-.05,.25-.1,.48-.14,.72,0,.03-.01,.06-.02,.09-.02,.12-.05,.24-.07,.36-.05,.23-.09,.46-.13,.69-.01,.05-.02,.1-.03,.15-.05,.26-.09,.52-.14,.79-.01,.05-.02,.11-.03,.16-.03,.18-.06,.36-.09,.54-.01,.05-.02,.1-.02,.14-.04,.25-.08,.51-.11,.76-.01,.07-.02,.15-.03,.22,0,.04-.01,.08-.02,.12-.04,.28-.08,.56-.11,.84-.04,.28-.07,.56-.1,.84,0,.05-.01,.09-.02,.14-.03,.2-.05,.41-.07,.62-.02,.2-.05,.41-.07,.61v.06c-.01,.06-.02,.12-.02,.18-.03,.27-.05,.53-.08,.8-.03,.3-.05,.59-.07,.89-.03,.35-.05,.7-.07,1.04-.01,.19-.02,.37-.03,.56,0,.05,0,.1,0,.15-.01,.15-.02,.31-.03,.46-.02,.34-.03,.68-.05,1.02-.01,.34-.02,.68-.03,1.03v.34c-.02,.57-.03,1.14-.03,1.71s0,1.15,.02,1.71v.34c.02,.34,.03,.68,.04,1.03,.01,.34,.03,.68,.05,1.02,0,.15,.02,.31,.03,.46,0,.05,0,.1,0,.15,.01,.19,.02,.37,.03,.56,.02,.35,.05,.7,.07,1.04,.02,.3,.05,.59,.07,.89,.02,.27,.05,.54,.08,.8,0,.06,.01,.12,.02,.18,0,.02,0,.04,0,.06,.02,.2,.04,.41,.07,.61,.02,.21,.05,.41,.07,.62,0,.05,.01,.09,.02,.14,.03,.28,.07,.56,.1,.84,.03,.28,.07,.56,.11,.84,0,.04,.01,.08,.02,.12,0,.07,.02,.15,.03,.22,.03,.25,.07,.51,.11,.76,0,.05,.01,.1,.02,.14,.03,.18,.06,.36,.09,.54,0,.06,.02,.11,.03,.16,.04,.27,.09,.53,.14,.79,0,.05,.02,.1,.03,.15,.04,.23,.08,.46,.13,.69,.02,.12,.04,.24,.07,.36,0,.03,.01,.06,.02,.09,.05,.24,.09,.48,.14,.72h0s0,.04,.01,.05c.06,.28,.11,.56,.18,.83,0,0,0,.02,0,.03,.04,.2,.08,.39,.13,.58,.01,.05,.02,.09,.03,.14,.05,.22,.1,.44,.15,.66,.06,.28,.13,.56,.2,.84,.06,.25,.12,.51,.19,.76,.06,.24,.12,.48,.19,.72,.06,.22,.12,.43,.18,.64,.03,.1,.06,.21,.09,.31,.07,.25,.14,.49,.21,.74,.02,.05,.03,.11,.05,.16,.09,.31,.18,.62,.28,.93,.1,.32,.2,.64,.3,.96,0,0,0,0,0,0,.09,.29,.19,.57,.28,.86,.02,.05,.03,.09,.05,.13,.1,.31,.21,.61,.31,.91,.11,.32,.22,.63,.34,.95,.08,.21,.16,.43,.24,.64,.05,.15,.11,.3,.17,.45,.02,.04,.03,.08,.05,.12,.2,.54,.41,1.07,.63,1.6,.1,.24,.19,.47,.29,.71,.04,.11,.09,.21,.13,.31,.12,.28,.23,.55,.35,.82,.12,.27,.24,.54,.36,.82,.06,.12,.11,.24,.16,.36,.11,.25,.23,.5,.35,.75,.14,.31,.29,.61,.44,.92,.02,.04,.04,.08,.06,.12,.13,.28,.27,.55,.41,.82,.02,.04,.04,.08,.06,.12,0,.02,.02,.03,.03,.05,.12,.24,.24,.49,.37,.73,.03,.06,.06,.12,.09,.18,.02,.05,.05,.09,.07,.14,.08,.16,.16,.32,.25,.48,.03,.05,.06,.11,.09,.16,0,0,0,.02,.01,.02,.01,.03,.03,.06,.05,.09,0,0,0,0,0,0,.12,.24,.26,.47,.39,.71,.07,.12,.13,.24,.2,.36,.13,.24,.27,.48,.4,.72,.12,.22,.25,.44,.37,.65,.09,.15,.18,.3,.26,.45,.14,.24,.28,.48,.43,.72,.18,.3,.36,.6,.55,.9,.15,.23,.29,.47,.44,.69,.07,.11,.15,.23,.22,.34,.16,.24,.32,.49,.48,.73,.41,.62,.83,1.24,1.26,1.85,.13,.19,.27,.38,.41,.57,0,.01,.02,.02,.02,.03,.03,.05,.06,.09,.1,.14h0s.06,.09,.09,.13c.01,.02,.03,.04,.04,.06,.11,.16,.22,.31,.34,.47,.16,.22,.32,.44,.48,.65,.16,.22,.33,.44,.5,.66,.19,.25,.39,.51,.59,.75,.04,.05,.07,.1,.11,.14,.1,.12,.2,.25,.3,.37,.08,.1,.15,.19,.23,.29,.19,.23,.37,.46,.56,.69,.2,.24,.41,.49,.61,.73,.15,.19,.31,.37,.47,.55,.26,.3,.52,.6,.78,.89,.21,.24,.43,.48,.64,.71,.16,.18,.32,.35,.48,.52,.14,.16,.29,.31,.43,.47,.32,.34,.64,.67,.96,1,.25,.26,.51,.52,.77,.78,.26,.26,.52,.51,.78,.77,.33,.32,.67,.64,1,.96,.15,.15,.31,.29,.47,.43,.17,.16,.35,.32,.52,.48,.24,.22,.47,.43,.71,.64,.3,.26,.59,.52,.89,.78,.18,.16,.37,.32,.55,.47,.24,.21,.49,.41,.73,.61,.23,.19,.46,.38,.69,.56,.1,.08,.19,.16,.29,.23,.12,.1,.24,.2,.37,.3,.05,.03,.09,.07,.14,.11,.25,.2,.5,.39,.75,.59,.22,.17,.44,.33,.66,.5,.22,.16,.44,.32,.65,.48,.15,.12,.31,.23,.47,.34,.02,.02,.04,.03,.06,.04,.04,.03,.09,.06,.13,.09h0s.09,.07,.14,.1c.01,0,.02,.02,.03,.02,.19,.14,.38,.27,.57,.41,.61,.43,1.23,.85,1.85,1.26,.24,.16,.49,.32,.73,.48,.11,.07,.23,.15,.34,.22,.23,.15,.46,.29,.69,.44,.3,.19,.6,.37,.9,.55,.24,.14,.48,.29,.72,.43,.15,.09,.3,.18,.45,.26,.22,.12,.43,.25,.65,.37,.24,.14,.48,.27,.72,.4,.12,.07,.24,.13,.36,.2,.24,.13,.47,.26,.71,.39,0,0,0,0,0,0,.03,.02,.06,.03,.09,.05,0,0,.02,0,.02,.01,.05,.03,.11,.06,.16,.09,.16,.09,.32,.17,.48,.25,.05,.02,.09,.05,.14,.07,.06,.03,.11,.06,.18,.09,.24,.13,.49,.25,.73,.37,.02,.01,.03,.02,.05,.03,.04,.02,.08,.04,.12,.06,.27,.14,.55,.27,.82,.41,.04,.02,.08,.04,.12,.06,.31,.15,.61,.3,.92,.44,.25,.12,.5,.23,.75,.35,.12,.06,.24,.11,.36,.16,.27,.12,.54,.24,.82,.36,.27,.12,.55,.24,.82,.35,.1,.04,.21,.09,.31,.13,.23,.1,.47,.2,.71,.29,.53,.22,1.06,.43,1.6,.63,.04,.02,.08,.03,.12,.05,.15,.06,.3,.11,.45,.17,.21,.08,.43,.16,.64,.24,.32,.11,.63,.23,.95,.34,.3,.11,.61,.21,.91,.31,.04,.02,.09,.03,.13,.05,.29,.09,.57,.19,.86,.28,0,0,0,0,0,0,.32,.1,.64,.2,.96,.3,.31,.1,.62,.19,.93,.28,.05,.02,.11,.03,.16,.05,.24,.07,.49,.14,.74,.21,.1,.03,.2,.06,.31,.09,.21,.06,.43,.12,.64,.18,.24,.06,.48,.13,.72,.19,.25,.07,.51,.13,.76,.19,.28,.07,.56,.14,.84,.2,.22,.05,.44,.1,.66,.15,.05,.01,.09,.02,.14,.03,.19,.05,.39,.09,.58,.13,0,0,.02,0,.03,0,.28,.06,.56,.12,.83,.18,.02,0,.03,0,.05,.01,0,0,0,0,0,0,.24,.05,.47,.1,.71,.14,.03,0,.06,.01,.09,.02,.12,.02,.24,.05,.36,.07,.23,.05,.46,.09,.69,.13,.05,.01,.1,.02,.15,.03,.26,.05,.52,.09,.79,.14,.05,.01,.11,.02,.16,.03,.18,.03,.36,.06,.54,.09,.05,.01,.1,.02,.14,.02,.25,.04,.51,.08,.76,.11,.07,.01,.15,.02,.22,.03,.04,0,.08,.01,.12,.02,.28,.04,.56,.08,.84,.11,.28,.04,.56,.07,.84,.1,.05,0,.09,.01,.14,.02,.2,.03,.41,.05,.62,.07,.2,.02,.41,.05,.61,.07,.02,0,.04,0,.06,0,.06,0,.12,.01,.18,.02,.27,.03,.53,.05,.8,.08,.3,.03,.59,.05,.89,.07,.35,.03,.7,.05,1.04,.07,.19,.01,.37,.02,.56,.03,.05,0,.1,0,.15,0,.15,.01,.31,.02,.46,.03,.34,.02,.68,.03,1.02,.05,.34,.01,.68,.02,1.03,.03h.34c.57,.02,1.14,.03,1.71,.03s1.15,0,1.71-.02h.34c.34-.02,.68-.03,1.03-.04,.34-.01,.68-.03,1.02-.05,.15,0,.31-.02,.46-.03,.05,0,.1,0,.15,0,.19-.01,.37-.02,.56-.03,.35-.02,.7-.05,1.04-.07,.3-.02,.59-.05,.89-.07,.27-.02,.54-.05,.8-.08,.06,0,.12-.01,.18-.02h.06c.2-.03,.41-.05,.61-.07,.21-.02,.41-.05,.62-.07,.05,0,.09-.01,.14-.02,.28-.03,.56-.07,.84-.1,.28-.03,.56-.07,.84-.11,.04,0,.08-.01,.12-.02,.07,0,.15-.02,.22-.03,.25-.03,.51-.07,.76-.11,.05,0,.1-.01,.14-.02,.18-.03,.36-.06,.54-.09,.06,0,.11-.02,.16-.03,.27-.04,.53-.09,.79-.14,.05,0,.1-.02,.15-.03,.23-.04,.46-.08,.69-.13,.12-.02,.24-.04,.36-.07,.03,0,.06-.01,.09-.02,.24-.05,.48-.09,.72-.14t0,0s.03,0,.05-.01c.28-.06,.56-.11,.83-.18,0,0,.02,0,.03,0,.2-.04,.39-.08,.58-.13,.05-.01,.09-.02,.14-.03,.22-.05,.44-.1,.66-.15,.28-.06,.56-.13,.84-.2,.25-.06,.51-.12,.76-.19,.24-.06,.48-.12,.72-.19,.22-.06,.43-.12,.64-.18,.1-.03,.21-.06,.31-.09,.25-.07,.49-.14,.74-.21,.05-.02,.11-.03,.16-.05,.31-.09,.62-.18,.93-.28,.32-.1,.64-.2,.96-.3,0,0,0,0,0,0,.29-.09,.57-.19,.86-.28,.05-.02,.09-.03,.13-.05,.31-.1,.61-.21,.91-.31,.32-.11,.63-.22,.95-.34,.21-.08,.43-.16,.64-.24,.15-.05,.3-.11,.45-.17,.04-.02,.08-.03,.12-.05,.54-.2,1.07-.41,1.6-.63,.24-.1,.47-.19,.71-.29,.11-.04,.21-.09,.31-.13,.28-.12,.55-.23,.82-.35,.39-.17,.78-.35,1.17-.53,.25-.11,.5-.23,.75-.35,.31-.14,.61-.29,.92-.44,.04-.02,.08-.04,.12-.06,.28-.13,.55-.27,.82-.41,.04-.02,.08-.04,.12-.06,.26-.13,.52-.26,.78-.4,.06-.03,.12-.06,.18-.09,.26-.13,.51-.27,.77-.41,.04-.02,.08-.04,.12-.06,.24-.12,.47-.26,.71-.39,.98-.54,1.94-1.09,2.89-1.67,.3-.18,.6-.36,.9-.55,.35-.22,.69-.44,1.04-.66,.24-.16,.49-.32,.73-.48,.62-.41,1.24-.83,1.85-1.26,.2-.14,.41-.28,.61-.43,.05-.03,.09-.06,.14-.1,.66-.48,1.32-.96,1.97-1.46,.25-.19,.51-.39,.75-.59,.27-.21,.53-.42,.8-.64,.23-.19,.47-.37,.69-.56,.24-.2,.49-.41,.73-.61,.19-.15,.37-.31,.55-.47,.3-.26,.6-.52,.89-.78,.24-.21,.48-.43,.71-.64,.18-.16,.35-.32,.52-.48,.16-.14,.31-.29,.47-.43,1.21-1.13,2.38-2.3,3.51-3.51,.15-.15,.29-.31,.43-.47,.16-.17,.32-.35,.48-.52,.22-.24,.43-.47,.64-.71,.26-.3,.52-.59,.78-.89,.16-.18,.32-.37,.47-.55,.21-.24,.41-.49,.61-.73,.19-.23,.38-.46,.56-.69,.22-.27,.43-.53,.64-.8,.2-.25,.39-.5,.59-.75,.45-.58,.89-1.18,1.32-1.78,.05-.06,.09-.13,.14-.19h0s.07-.09,.1-.14c0-.01,.02-.02,.02-.03,.14-.19,.27-.38,.41-.57,.43-.61,.85-1.23,1.26-1.85,.16-.24,.32-.49,.48-.73,.07-.11,.15-.23,.22-.34,.15-.23,.29-.46,.44-.69,.19-.3,.37-.6,.55-.9,.14-.24,.29-.48,.43-.72,.09-.15,.18-.3,.26-.45,.12-.22,.25-.43,.37-.65,.14-.24,.27-.48,.4-.72,.07-.12,.13-.24,.2-.36,.13-.24,.26-.47,.39-.71,0,0,0,0,0,0,.02-.03,.03-.06,.05-.09,0,0,0-.02,.01-.02,.03-.05,.06-.11,.09-.16,.09-.16,.17-.32,.25-.48,.02-.05,.05-.09,.07-.14,.03-.06,.06-.11,.09-.18,.13-.24,.25-.49,.37-.73,.01-.02,.02-.03,.03-.05,.02-.04,.04-.08,.06-.12,.14-.27,.27-.55,.41-.82,.02-.04,.04-.08,.06-.12,.15-.31,.3-.61,.44-.92,.12-.25,.23-.5,.35-.75,.06-.12,.11-.24,.16-.36,.12-.27,.24-.54,.36-.82,.12-.27,.24-.55,.35-.82,.04-.1,.09-.21,.13-.31,.1-.23,.2-.47,.29-.71,.22-.53,.43-1.06,.63-1.6,.02-.04,.03-.08,.05-.12,.06-.15,.11-.3,.17-.45,.08-.21,.16-.43,.24-.64,.11-.32,.23-.63,.34-.95,.11-.3,.21-.61,.31-.91,.02-.04,.03-.09,.05-.13,.09-.29,.19-.57,.28-.86,0,0,0,0,0,0,.1-.32,.2-.64,.3-.96,.1-.31,.19-.62,.28-.93,.02-.05,.03-.11,.05-.16,.07-.24,.14-.49,.21-.74,.03-.1,.06-.2,.09-.31,.06-.21,.12-.43,.18-.64,.06-.24,.13-.48,.19-.72,.07-.25,.13-.51,.19-.76,.07-.28,.14-.56,.2-.84,.05-.22,.1-.44,.15-.66,.01-.05,.02-.09,.03-.14,.05-.19,.09-.39,.13-.58,0,0,0-.02,0-.03,.06-.28,.12-.56,.18-.83,0-.02,0-.03,.01-.05t0,0c.05-.24,.1-.48,.14-.72,0-.03,.01-.06,.02-.09,.02-.12,.05-.24,.07-.36,.05-.23,.09-.46,.13-.69,.01-.05,.02-.1,.03-.15,.05-.26,.09-.52,.14-.79,.01-.05,.02-.11,.03-.16,.03-.18,.06-.36,.09-.54,.01-.05,.02-.1,.02-.14,.04-.25,.08-.51,.11-.76,.01-.07,.02-.15,.03-.22,0-.04,.01-.08,.02-.12,.04-.28,.08-.56,.11-.84,.04-.28,.07-.56,.1-.84,0-.05,.01-.09,.02-.14,.03-.2,.05-.41,.07-.62,.02-.2,.05-.41,.07-.61,0-.02,0-.04,0-.06,0-.06,.01-.12,.02-.18,.03-.27,.05-.53,.08-.8,.03-.3,.05-.59,.07-.89,.03-.35,.05-.7,.07-1.04,.01-.19,.02-.37,.03-.56,0-.05,0-.1,0-.15,.01-.15,.02-.31,.03-.46,.02-.34,.03-.68,.05-1.02,.01-.34,.02-.68,.03-1.03,0-.11,0-.23,0-.34,.01-.57,.02-1.14,.02-1.71s0-1.15-.02-1.71Zm-110.85,36.28c-.13-.11-.26-.23-.39-.35-.13-.12-.26-.24-.38-.36-.17-.16-.33-.32-.5-.48-.16-.16-.33-.32-.49-.49s-.33-.33-.49-.49c-.16-.16-.32-.33-.48-.5-.12-.13-.24-.26-.36-.38-.12-.13-.24-.26-.35-.39-.12-.13-.23-.26-.35-.39-.11-.12-.22-.25-.32-.37-.05-.06-.1-.11-.15-.17-.07-.08-.14-.17-.21-.25-.22-.26-.44-.53-.65-.79-.22-.28-.44-.56-.66-.84-.11-.14-.22-.28-.32-.41-.21-.28-.42-.56-.62-.85-.09-.12-.17-.23-.25-.35-.15-.22-.31-.44-.45-.66-.13-.19-.26-.39-.39-.58-.13-.19-.25-.39-.37-.58-.1-.15-.19-.3-.28-.45-.19-.3-.37-.6-.54-.9-.09-.15-.18-.3-.26-.45-.09-.15-.18-.31-.26-.46-.17-.31-.34-.61-.5-.93-.16-.31-.33-.62-.48-.94-.08-.16-.16-.32-.23-.47-.31-.64-.6-1.28-.88-1.93-.07-.16-.14-.32-.2-.48-.08-.19-.16-.39-.24-.58-.06-.14-.11-.27-.16-.4-.2-.51-.39-1.01-.56-1.52-.06-.16-.11-.32-.16-.48-.06-.16-.11-.32-.16-.47-.04-.12-.08-.23-.11-.35-.06-.19-.12-.38-.18-.58-.12-.38-.23-.77-.33-1.16-.03-.11-.06-.23-.09-.35-.03-.12-.07-.25-.1-.37-.12-.45-.23-.91-.33-1.37-.03-.11-.05-.23-.08-.35-.03-.16-.07-.31-.1-.47-.02-.1-.04-.2-.06-.31-.03-.16-.06-.31-.09-.47-.03-.18-.07-.36-.1-.54s-.06-.36-.09-.54c-.12-.72-.22-1.44-.3-2.17-.02-.18-.04-.36-.06-.55-.02-.18-.04-.36-.05-.55-.02-.18-.03-.37-.05-.55-.01-.11-.02-.21-.02-.32-.01-.15-.02-.31-.03-.46-.01-.19-.02-.37-.03-.56,0-.13-.01-.27-.02-.4,0-.15-.01-.3-.02-.45,0-.03,0-.07,0-.1,0-.16-.01-.33-.01-.49,0-.03,0-.07,0-.1,0-.13,0-.26,0-.39,0-.16,0-.33,0-.49s0-.33,0-.49c0-.13,0-.27,0-.4,0-.03,0-.06,0-.09h0c0-.17,0-.33,.01-.49,0-.03,0-.07,0-.1,0-.15,0-.3,.02-.45,0-.13,.01-.27,.02-.4,0-.19,.02-.37,.03-.56,0-.15,.02-.31,.03-.46,0-.11,.01-.22,.02-.32,.01-.19,.03-.37,.05-.55,.02-.18,.03-.37,.05-.55,.02-.18,.04-.37,.06-.55,.08-.73,.18-1.45,.3-2.17,.03-.18,.06-.36,.09-.54s.06-.36,.1-.54c.03-.16,.06-.31,.09-.47,.02-.1,.04-.2,.06-.31,.03-.16,.06-.31,.1-.47,.02-.11,.05-.23,.08-.35,.1-.46,.21-.92,.33-1.37,.03-.12,.06-.25,.1-.37,.03-.11,.06-.23,.09-.35,.11-.39,.22-.78,.33-1.16,.06-.19,.12-.39,.18-.58,.04-.12,.07-.23,.11-.35,.05-.16,.1-.32,.16-.47,.05-.16,.11-.32,.16-.48,.18-.51,.37-1.02,.56-1.52,.05-.14,.1-.27,.16-.4,.08-.19,.15-.39,.24-.58,.07-.16,.14-.32,.2-.48,.28-.65,.57-1.29,.88-1.93,.07-.16,.15-.32,.23-.47,.15-.31,.32-.63,.48-.94,.16-.31,.33-.62,.5-.93,.09-.15,.17-.31,.26-.46,.09-.15,.17-.3,.26-.45,.18-.3,.36-.6,.54-.9,.09-.15,.18-.3,.28-.45,.12-.19,.25-.39,.37-.58,.12-.19,.26-.39,.39-.58,.15-.22,.3-.44,.45-.66,.08-.12,.16-.23,.25-.35,.2-.28,.41-.57,.62-.85,.1-.14,.21-.28,.32-.41,.21-.28,.43-.56,.66-.84,.21-.27,.43-.53,.65-.79,.07-.08,.14-.17,.21-.25,.05-.06,.1-.11,.15-.17,.11-.12,.22-.25,.32-.37,.11-.13,.23-.26,.35-.39,.11-.13,.23-.26,.35-.39,.12-.13,.24-.26,.36-.38,.16-.17,.32-.33,.48-.5,.16-.16,.32-.33,.49-.49s.33-.33,.49-.49c.16-.16,.33-.32,.5-.48,.32-.3,.65-.6,.98-.89,.1-.09,.19-.17,.29-.26,.23-.2,.45-.39,.68-.58,.24-.2,.48-.4,.72-.6,.54-.44,1.08-.86,1.63-1.27,.18-.13,.35-.26,.53-.39,1.28-.91,2.6-1.77,3.97-2.55,.15-.09,.31-.18,.46-.26,.31-.17,.61-.34,.93-.5,.31-.16,.62-.32,.94-.48,.16-.08,.32-.16,.47-.23,1.11-.54,2.24-1.03,3.39-1.48,.19-.07,.37-.14,.56-.21,.19-.07,.37-.14,.56-.21,.14-.05,.29-.11,.44-.16s.3-.1,.44-.15c.1-.03,.2-.07,.3-.1,.17-.06,.35-.11,.52-.17,.19-.06,.38-.12,.58-.18,.5-.15,1-.3,1.5-.43,.12-.03,.25-.07,.37-.1,.54-.14,1.08-.27,1.62-.39,.19-.04,.37-.08,.56-.12,.1-.02,.2-.04,.31-.06,1.86-.37,3.75-.63,5.68-.77,.15-.01,.31-.02,.46-.03,.19-.01,.37-.02,.56-.03,.28-.02,.56-.03,.85-.03,.2,0,.4-.01,.6-.02,.33,0,.66-.01,.99-.01s.66,0,.99,.01c.16,0,.33,0,.49,.01,.03,0,.07,0,.1,0,.15,0,.3,0,.45,.02,.13,0,.27,.01,.4,.02,.19,0,.37,.02,.56,.03,.15,0,.31,.02,.46,.03,.11,0,.22,.01,.32,.02,.19,.01,.37,.03,.55,.05,.18,.02,.37,.03,.55,.05,.18,.02,.37,.04,.55,.06,.73,.08,1.45,.18,2.17,.3,.18,.03,.36,.06,.54,.09,.18,.03,.36,.06,.54,.1,.16,.03,.31,.06,.47,.09,.1,.02,.2,.04,.31,.06,.16,.03,.31,.06,.47,.1,.11,.02,.23,.05,.35,.08,.46,.1,.92,.21,1.37,.33,.12,.03,.25,.06,.37,.1,.11,.03,.23,.06,.35,.09,.39,.11,.78,.22,1.16,.33,.19,.06,.39,.12,.58,.18,.12,.04,.23,.07,.35,.11,.16,.05,.32,.1,.47,.16,.16,.05,.32,.11,.48,.16,.51,.18,1.02,.37,1.52,.56,.14,.05,.27,.1,.4,.16,.19,.08,.39,.15,.58,.24,.16,.07,.32,.14,.48,.2,.65,.28,1.29,.57,1.93,.88,.16,.07,.32,.15,.47,.23,.31,.15,.63,.32,.94,.48,.31,.16,.62,.33,.93,.5,.15,.09,.31,.17,.46,.26,.15,.09,.3,.17,.45,.26,.3,.18,.6,.36,.9,.54,.15,.09,.3,.18,.45,.28,.19,.12,.39,.25,.58,.37,.19,.12,.39,.26,.58,.39,.22,.15,.44,.3,.66,.45,.12,.08,.23,.16,.35,.25,.28,.2,.57,.41,.85,.62,.14,.1,.28,.21,.41,.32,.28,.21,.56,.43,.84,.66,.27,.21,.53,.43,.79,.65,.08,.07,.17,.14,.25,.21,.06,.05,.11,.1,.17,.15,.12,.11,.25,.22,.37,.32,.13,.11,.26,.23,.39,.35,.13,.11,.26,.23,.39,.35,.13,.12,.26,.24,.38,.36,.17,.16,.33,.32,.5,.48,.16,.16,.33,.32,.49,.49s.33,.33,.49,.49c.16,.16,.32,.33,.48,.5,.12,.13,.24,.26,.36,.38,.12,.13,.24,.26,.35,.39,.12,.13,.23,.26,.35,.39,.11,.12,.22,.25,.32,.37,.05,.06,.1,.11,.15,.17,.07,.08,.14,.17,.21,.25,.22,.26,.44,.53,.65,.79,.22,.28,.44,.56,.66,.84,.11,.14,.22,.28,.32,.41,.21,.28,.42,.56,.62,.85,.09,.12,.17,.23,.25,.35,.15,.22,.31,.44,.45,.66,.13,.19,.26,.39,.39,.58,.13,.19,.25,.39,.37,.58,.1,.15,.19,.3,.28,.45,.19,.3,.37,.6,.54,.9,.09,.15,.18,.3,.26,.45,.09,.15,.18,.31,.26,.46,.17,.31,.34,.61,.5,.93,.16,.31,.33,.62,.48,.94,.08,.16,.16,.32,.23,.47,.31,.64,.6,1.28,.88,1.93,.07,.16,.14,.32,.2,.48,.08,.19,.16,.39,.24,.58,.06,.14,.11,.27,.16,.4,.2,.51,.39,1.01,.56,1.52,.06,.16,.11,.32,.16,.48,.06,.16,.11,.32,.16,.47,.04,.12,.08,.23,.11,.35,.06,.19,.12,.38,.18,.58,.12,.38,.23,.77,.33,1.16,.03,.11,.06,.23,.09,.35,.03,.12,.07,.25,.1,.37,.12,.45,.23,.91,.33,1.37,.03,.11,.05,.23,.08,.35,.03,.16,.07,.31,.1,.47,.02,.1,.04,.2,.06,.31,.03,.16,.06,.31,.09,.47,.03,.18,.07,.36,.1,.54,.03,.18,.06,.36,.09,.54,.12,.72,.22,1.44,.3,2.17,.02,.18,.04,.36,.06,.55,.02,.18,.04,.36,.05,.55,.02,.18,.03,.37,.05,.55,.01,.11,.02,.21,.02,.32,.01,.15,.02,.31,.03,.46,.01,.19,.02,.37,.03,.56,0,.13,.01,.27,.02,.4,0,.15,.01,.3,.02,.45,0,.03,0,.07,0,.1,0,.16,.01,.33,.01,.49h0s0,.06,0,.1c0,.13,0,.27,0,.4,0,.16,0,.33,0,.49s0,.33,0,.49c0,.13,0,.26,0,.39,0,.03,0,.07,0,.1,0,.16,0,.33-.01,.49,0,.03,0,.07,0,.1,0,.15,0,.3-.02,.45,0,.13-.01,.27-.02,.4,0,.19-.02,.37-.03,.56,0,.15-.02,.31-.03,.46,0,.11-.01,.22-.02,.32-.01,.19-.03,.37-.05,.55-.02,.18-.03,.37-.05,.55-.02,.18-.04,.37-.06,.55-.08,.73-.18,1.45-.3,2.17-.03,.18-.06,.36-.09,.54-.03,.18-.06,.36-.1,.54-.03,.16-.06,.31-.09,.47-.02,.1-.04,.2-.06,.31-.03,.16-.06,.31-.1,.47-.02,.11-.05,.23-.08,.35-.1,.46-.21,.92-.33,1.37-.03,.12-.06,.25-.1,.37-.03,.11-.06,.23-.09,.35-.11,.39-.22,.78-.33,1.16-.06,.19-.12,.39-.18,.58-.04,.12-.07,.23-.11,.35-.05,.16-.1,.32-.16,.47-.05,.16-.11,.32-.16,.48-.18,.51-.37,1.02-.56,1.52-.05,.14-.1,.27-.16,.4-.08,.19-.15,.39-.24,.58-.07,.16-.14,.32-.2,.48-.28,.65-.57,1.29-.88,1.93-.07,.16-.15,.32-.23,.47-.15,.31-.32,.63-.48,.94-.16,.31-.33,.62-.5,.93-.09,.15-.17,.31-.26,.46-.09,.15-.17,.3-.26,.45-.18,.3-.36,.6-.54,.9-.09,.15-.18,.3-.28,.45-.12,.19-.25,.39-.37,.58-.12,.19-.26,.39-.39,.58-.15,.22-.3,.44-.45,.66-.08,.12-.16,.23-.25,.35-.2,.28-.41,.57-.62,.85-.1,.14-.21,.28-.32,.41-.21,.28-.43,.56-.66,.84-.21,.27-.43,.53-.65,.79-.07,.08-.14,.17-.21,.25-.05,.06-.1,.11-.15,.17-.11,.12-.22,.25-.32,.37-.11,.13-.23,.26-.35,.39-.11,.13-.23,.26-.35,.39-.12,.13-.24,.26-.36,.38-.16,.17-.32,.33-.48,.5-.16,.16-.32,.33-.49,.49s-.33,.33-.49,.49c-.16,.16-.33,.32-.5,.48-.55,.52-1.12,1.03-1.7,1.53-.08,.07-.17,.14-.25,.21-.26,.22-.53,.44-.79,.65-.69,.55-1.38,1.08-2.1,1.59-.12,.09-.23,.17-.35,.25-.6,.42-1.2,.82-1.82,1.21-.15,.1-.3,.19-.45,.28-.3,.19-.6,.37-.9,.54-.15,.09-.3,.18-.45,.26-.15,.09-.31,.18-.46,.26-.31,.17-.61,.34-.93,.5-.31,.16-.62,.32-.94,.48-.16,.08-.32,.16-.47,.23-.64,.31-1.28,.6-1.93,.88-.16,.07-.32,.14-.48,.2-.19,.08-.38,.16-.58,.24-.13,.05-.27,.11-.4,.16-1.48,.58-3.01,1.09-4.56,1.51-.11,.03-.23,.06-.35,.09-.12,.03-.25,.07-.37,.1-.57,.15-1.14,.28-1.72,.41-.16,.03-.31,.07-.47,.1-.1,.02-.2,.04-.31,.06-.16,.03-.31,.06-.47,.09-.18,.03-.36,.07-.54,.1s-.36,.06-.54,.09c-.72,.12-1.44,.22-2.17,.3-.18,.02-.36,.04-.55,.06s-.36,.04-.55,.05c-.18,.02-.37,.03-.55,.05-.11,0-.21,.02-.32,.02-.15,.01-.31,.02-.46,.03-.19,.01-.37,.02-.56,.03-.13,0-.27,.01-.4,.02-.15,0-.3,.01-.45,.02-.2,0-.4,.01-.6,.02-.03,0-.07,0-.1,0-.13,0-.26,0-.39,0-.16,0-.33,0-.49,0s-.33,0-.49,0c-.13,0-.26,0-.39,0-.03,0-.07,0-.1,0-.16,0-.33,0-.49-.01-.03,0-.07,0-.1,0-.15,0-.3,0-.45-.02-.13,0-.27-.01-.4-.02-.19,0-.37-.02-.56-.03-.15,0-.31-.02-.46-.03-.11,0-.22-.01-.32-.02-.19-.01-.37-.03-.55-.05-.18-.02-.37-.03-.55-.05-.18-.02-.37-.04-.55-.06-.73-.08-1.45-.18-2.17-.3-.18-.03-.36-.06-.54-.09s-.36-.06-.54-.1c-.16-.03-.31-.06-.47-.09-.1-.02-.2-.04-.31-.06-.16-.03-.31-.06-.47-.1-.11-.02-.23-.05-.35-.08-.46-.1-.92-.21-1.37-.33-.12-.03-.25-.06-.37-.1-.11-.03-.23-.06-.35-.09-.39-.11-.78-.22-1.16-.33-.19-.06-.39-.12-.58-.18-.12-.04-.23-.07-.35-.11-.16-.05-.32-.1-.47-.16-.16-.05-.32-.11-.48-.16-.51-.18-1.02-.37-1.52-.56-.14-.05-.27-.1-.4-.16-.19-.08-.39-.15-.58-.24-.16-.07-.32-.14-.48-.2-.65-.28-1.29-.57-1.93-.88-.16-.07-.32-.15-.47-.23-.31-.15-.63-.32-.94-.48-.31-.16-.62-.33-.93-.5-.15-.09-.31-.17-.46-.26-.15-.09-.3-.17-.45-.26-.3-.18-.6-.36-.9-.54-.15-.09-.3-.18-.45-.28-.19-.12-.39-.25-.58-.37-.19-.12-.39-.26-.58-.39-.22-.15-.44-.3-.66-.45-.12-.08-.23-.16-.35-.25-.28-.2-.57-.41-.85-.62-.14-.1-.28-.21-.41-.32-.28-.21-.56-.43-.84-.66-.27-.21-.53-.43-.79-.65-.08-.07-.17-.14-.25-.21-.06-.05-.11-.1-.17-.15-.12-.11-.25-.22-.37-.32-.13-.11-.26-.23-.39-.35Z"/>
          <path class="cls-4" d="M680.45,226.51c-.05,.06-.09,.13-.14,.19-.43,.6-.87,1.19-1.32,1.78-.19,.25-.39,.51-.59,.75-.21,.27-.42,.53-.64,.8-.19,.23-.37,.47-.56,.69-.2,.24-.41,.49-.61,.73-.15,.19-.31,.37-.47,.55-.26,.3-.52,.6-.78,.89-.21,.24-.43,.48-.64,.71-.16,.18-.32,.35-.48,.52-.14,.16-.29,.31-.43,.47-1.13,1.21-2.3,2.38-3.51,3.51-.15,.15-.31,.29-.47,.43-.17,.16-.35,.32-.52,.48-.24,.22-.47,.43-.71,.64-.3,.26-.59,.52-.89,.78-.18,.16-.37,.32-.55,.47-.24,.21-.49,.41-.73,.61-.23,.19-.46,.38-.69,.56-.27,.22-.53,.43-.8,.64-.25,.2-.5,.39-.75,.59-.65,.5-1.31,.98-1.97,1.46-.05,.03-.09,.06-.14,.1-.2,.15-.4,.29-.61,.43-.61,.43-1.23,.85-1.85,1.26-.24,.16-.49,.32-.73,.48-.34,.22-.69,.44-1.04,.66-.3,.19-.6,.37-.9,.55-.95,.58-1.91,1.13-2.89,1.67-.24,.13-.47,.26-.71,.39-.04,.02-.08,.04-.12,.06-.26,.14-.51,.28-.77,.41-.06,.03-.12,.06-.18,.09-.26,.14-.52,.27-.78,.4-.04,.02-.08,.04-.12,.06-.27,.14-.55,.27-.82,.41-.04,.02-.08,.04-.12,.06-.31,.15-.61,.3-.92,.44-.25,.12-.5,.23-.75,.35-.39,.18-.78,.35-1.17,.53-12.7-5.55-23.68-14.31-31.9-25.26-.33-.44-.66-.89-.98-1.33,0,0,0,0,0-.01-.16,0-.33,0-.49-.01-.03,0-.07,0-.1,0-.15,0-.3,0-.45-.02-.13,0-.27-.01-.4-.02-.19,0-.37-.02-.56-.03-.15,0-.31-.02-.46-.03-.11,0-.22-.01-.32-.02-.19-.01-.37-.03-.55-.05-.18-.02-.37-.03-.55-.05-.18-.02-.37-.04-.55-.06-.73-.08-1.45-.18-2.17-.3-.18-.03-.36-.06-.54-.09s-.36-.06-.54-.1c-.16-.03-.31-.06-.47-.09-.1-.02-.2-.04-.31-.06-.16-.03-.31-.06-.47-.1-.11-.02-.23-.05-.35-.08-.46-.1-.92-.21-1.37-.33-.12-.03-.25-.06-.37-.1-.11-.03-.23-.06-.35-.09-.39-.11-.78-.22-1.16-.33-.19-.06-.39-.12-.58-.18-.12-.04-.23-.07-.35-.11-.16-.05-.32-.1-.47-.16-.16-.05-.32-.11-.48-.16-.51-.18-1.02-.37-1.52-.56-.14-.05-.27-.1-.4-.16-.19-.08-.39-.15-.58-.24-.16-.07-.32-.14-.48-.2-.65-.28-1.29-.57-1.93-.88-.16-.07-.32-.15-.47-.23-.31-.15-.63-.32-.94-.48-.31-.16-.62-.33-.93-.5-.15-.09-.31-.17-.46-.26-.15-.09-.3-.17-.45-.26-.3-.18-.6-.36-.9-.54-.15-.09-.3-.18-.45-.28-.19-.12-.39-.25-.58-.37-.19-.12-.39-.26-.58-.39-.22-.15-.44-.3-.66-.45-.12-.08-.23-.16-.35-.25-.28-.2-.57-.41-.85-.62-.14-.1-.28-.21-.41-.32-.28-.21-.56-.43-.84-.66-.27-.21-.53-.43-.79-.65-.08-.07-.17-.14-.25-.21-.06-.05-.11-.1-.17-.15,7.95-1.52,17.56-2.74,28.49-2.86,12.48-.14,23.35,1.19,32.08,2.86v.15c.58-.49,6.84,2.83,9.74,4.56,6.97,4.18,15.13,6.57,23.85,6.57,.33,0,.66,0,.99-.01h0Z"/>
          <path class="cls-2" d="M550.85,133.49c.05-.06,.09-.13,.14-.19,.43-.6,.87-1.19,1.32-1.78,.19-.25,.39-.51,.59-.75,.21-.27,.42-.53,.64-.8,.19-.23,.37-.47,.56-.69,.2-.24,.41-.49,.61-.73,.15-.19,.31-.37,.47-.55,.26-.3,.52-.6,.78-.89,.21-.24,.43-.48,.64-.71,.16-.18,.32-.35,.48-.52,.14-.16,.29-.31,.43-.47,1.13-1.21,2.3-2.38,3.51-3.51,.15-.15,.31-.29,.47-.43,.17-.16,.35-.32,.52-.48,.24-.22,.47-.43,.71-.64,.3-.26,.59-.52,.89-.78,.18-.16,.37-.32,.55-.47,.24-.21,.49-.41,.73-.61,.23-.19,.46-.38,.69-.56,.27-.22,.53-.43,.8-.64,.25-.2,.5-.39,.75-.59,.65-.5,1.31-.98,1.97-1.46,.05-.03,.09-.06,.14-.1,.2-.15,.4-.29,.61-.43,.61-.43,1.23-.85,1.85-1.26,.24-.16,.49-.32,.73-.48,.34-.22,.69-.44,1.04-.66,.3-.19,.6-.37,.9-.55,.95-.58,1.91-1.13,2.89-1.67,.24-.13,.47-.26,.71-.39,.04-.02,.08-.04,.12-.06,.26-.14,.51-.28,.77-.41,.06-.03,.12-.06,.18-.09,.26-.14,.52-.27,.78-.4,.04-.02,.08-.04,.12-.06,.27-.14,.55-.27,.82-.41,.04-.02,.08-.04,.12-.06,.31-.15,.61-.3,.92-.44,.25-.12,.5-.23,.75-.35,.39-.18,.78-.35,1.17-.53,12.7,5.55,23.68,14.31,31.9,25.26,.33,.44,.66,.89,.98,1.33,0,0,0,0,0,.01,.16,0,.33,0,.49,.01,.03,0,.07,0,.1,0,.15,0,.3,0,.45,.02,.13,0,.27,.01,.4,.02,.19,0,.37,.02,.56,.03,.15,0,.31,.02,.46,.03,.11,0,.22,.01,.32,.02,.19,.01,.37,.03,.55,.05,.18,.02,.37,.03,.55,.05,.18,.02,.37,.04,.55,.06,.73,.08,1.45,.18,2.17,.3,.18,.03,.36,.06,.54,.09s.36,.06,.54,.1c.16,.03,.31,.06,.47,.09,.1,.02,.2,.04,.31,.06,.16,.03,.31,.06,.47,.1,.11,.02,.23,.05,.35,.08,.46,.1,.92,.21,1.37,.33,.12,.03,.25,.06,.37,.1,.11,.03,.23,.06,.35,.09,.39,.11,.78,.22,1.16,.33,.19,.06,.39,.12,.58,.18,.12,.04,.23,.07,.35,.11,.16,.05,.32,.1,.47,.16,.16,.05,.32,.11,.48,.16,.51,.18,1.02,.37,1.52,.56,.14,.05,.27,.1,.4,.16,.19,.08,.39,.15,.58,.24,.16,.07,.32,.14,.48,.2,.65,.28,1.29,.57,1.93,.88,.16,.07,.32,.15,.47,.23,.31,.15,.63,.32,.94,.48,.31,.16,.62,.33,.93,.5,.15,.09,.31,.17,.46,.26,.15,.09,.3,.17,.45,.26,.3,.18,.6,.36,.9,.54,.15,.09,.3,.18,.45,.28,.19,.12,.39,.25,.58,.37,.19,.12,.39,.26,.58,.39,.22,.15,.44,.3,.66,.45,.12,.08,.23,.16,.35,.25,.28,.2,.57,.41,.85,.62,.14,.1,.28,.21,.41,.32,.28,.21,.56,.43,.84,.66,.27,.21,.53,.43,.79,.65,.08,.07,.17,.14,.25,.21,.06,.05,.11,.1,.17,.15-7.95,1.52-17.56,2.74-28.49,2.86-12.48,.14-23.35-1.19-32.08-2.86v-.15c-.58,.49-6.84-2.83-9.74-4.56-6.97-4.18-15.13-6.57-23.85-6.57-.33,0-.66,0-.99,.01h0Z"/>
        </g>
      </g>
    </g>
  </g>
</svg>