<?xml version="1.0" encoding="UTF-8"?>
<svg id="Layer_2" data-name="Layer 2" xmlns="http://www.w3.org/2000/svg" xmlns:xlink="http://www.w3.org/1999/xlink" viewBox="0 0 800 360">
  <defs>
    <style>
      .cls-1 {
        fill: #fff;
      }

      .cls-2 {
        clip-path: url(#clippath);
      }

      .cls-3 {
        fill: none;
      }
    </style>
    <clipPath id="clippath">
      <rect class="cls-3" width="800" height="360"/>
    </clipPath>
  </defs>
  <g id="Arabic_Wide_Logo_-_Bold_Dark" data-name="Arabic Wide Logo - Bold Dark">
    <g class="cls-2">
      <g>
        <g id="Full_Width" data-name="Full Width">
          <g id="Letters">
            <g>
              <g id="Special_Letter" data-name="Special Letter">
                <g id="Logo">
                  <path class="cls-1" d="M178.08,182.48l.04,.04c.06,.06,.13,.13,.2,.19,.06,.07,.13,.13,.2,.2l.06,.06v-.49h-.49Z"/>
                  <path class="cls-1" d="M188.98,208.91c2.79,1.67,6.07,2.63,9.57,2.63h1.9v-47.64h-30.4c-.96,0-1.89,.02-2.81,.07h-.02c-.07,0-.13,0-.2-.01h-.06c-.06,0-.12,0-.18-.01-.14,0-.27-.01-.41-.01-.14,0-.27-.01-.42-.01-.04,0-.09,0-.13,0-.23,0-.46,0-.69,0s-.46,0-.69,0c-.04,0-.09,0-.13,0-.14,0-.27,0-.42,.01-.13,0-.27,0-.41,.01-.06,0-.12,0-.18,.01h-.06c-.08,0-.15,0-.23,.01-.14,0-.27,.02-.42,.03-.12,.01-.24,.02-.36,.04-.11,0-.22,.01-.32,.03-.02,0-.04,0-.07,0h-.02c-.08,.01-.17,.02-.25,.03-.08,0-.17,.02-.25,.03-.02,0-.04,0-.06,0-.11,.01-.23,.03-.34,.04-.11,.01-.23,.03-.34,.05-.01,0-.04,0-.05,0-.03,0-.06,0-.09,.01-.1,.01-.2,.03-.3,.04-.02,0-.04,0-.06,0-.07,.01-.15,.03-.22,.04-.02,0-.04,0-.06,.01-.11,.01-.22,.04-.32,.06-.02,0-.04,0-.06,0-.09,.01-.18,.04-.27,.05-.05,.01-.1,.02-.15,.03,0,0-.02,0-.04,0-.09,.02-.19,.04-.28,.06h0s-.01,0-.02,0c-.11,.02-.22,.05-.33,.07h-.01c-.08,.02-.15,.04-.23,.06-.02,0-.04,0-.06,0-.08,.02-.18,.04-.26,.06-.11,.03-.23,.06-.34,.08-.1,.02-.2,.05-.3,.08-.1,.02-.2,.05-.29,.07-.09,.03-.18,.05-.26,.07-.04,.01-.08,.02-.13,.04-.1,.03-.2,.06-.29,.08-.03,0-.05,.01-.07,.02-.12,.04-.25,.07-.37,.11-.13,.04-.26,.08-.39,.12-.12,.04-.23,.08-.35,.11-.01,0-.04,.01-.05,.02-.13,.04-.25,.08-.37,.12-.13,.05-.25,.09-.38,.14-.08,.03-.18,.06-.26,.09-.06,.02-.12,.04-.18,.07-.02,0-.04,.01-.05,.01-.22,.08-.43,.17-.64,.25-.1,.04-.19,.08-.29,.12-.04,.01-.08,.04-.13,.05-.11,.05-.22,.1-.33,.15h0c-.16,.06-.32,.13-.47,.21,0,0,0,0-.01,0-.37,.17-.73,.34-1.09,.53-.1,.05-.2,.1-.3,.15l-.13,.06c-.06,.04-.13,.07-.19,.11-.13,.07-.26,.14-.39,.21-.08,.04-.15,.08-.23,.13-.08,.04-.16,.09-.25,.13-.07,.04-.14,.08-.22,.13-.06,.04-.12,.07-.18,.11-.1,.06-.2,.11-.29,.17-.12,.08-.24,.15-.36,.23-.09,.06-.19,.11-.28,.18-.04,.03-.09,.06-.13,.08-.1,.06-.2,.13-.3,.19-.13,.08-.25,.17-.37,.25-.12,.08-.25,.17-.37,.25-.08,.06-.15,.11-.23,.16-.02,.02-.04,.04-.06,.05-.09,.07-.19,.13-.28,.2-.07,.04-.14,.09-.2,.15-.15,.12-.31,.23-.46,.35-.06,.04-.11,.08-.15,.12-.11,.08-.21,.17-.32,.25-.1,.08-.19,.15-.28,.23-.1,.08-.2,.16-.3,.25-.21,.18-.42,.36-.63,.55-.04,.04-.08,.07-.12,.11-.04,.04-.08,.07-.11,.1-.27,.25-.53,.5-.8,.75-.11,.11-.21,.2-.32,.31-.1,.1-.2,.2-.3,.31-.26,.26-.51,.53-.75,.8-.04,.04-.07,.07-.1,.11-.04,.04-.08,.08-.11,.13-.18,.2-.37,.42-.55,.63-.08,.1-.17,.2-.25,.3-.08,.09-.15,.18-.23,.27-.08,.11-.18,.22-.26,.32-.04,.05-.08,.1-.11,.15-.23,.3-.45,.59-.67,.89-.01,.01-.03,.04-.04,.05-.01,.02-.03,.04-.04,.06,0,0,0,0,0,.01-.06,.08-.11,.15-.16,.23-.18,.25-.34,.49-.51,.75-.06,.1-.13,.2-.19,.29-.04,.05-.06,.1-.09,.14-.06,.09-.12,.18-.18,.28-.08,.11-.15,.24-.22,.36-.06,.09-.12,.19-.18,.28-.04,.06-.07,.12-.11,.18-.05,.08-.1,.18-.15,.26-.06,.1-.11,.19-.16,.29-.03,.05-.06,.1-.08,.15-.05,.09-.1,.19-.15,.28h0s-.01,.03-.01,.04t0,.01s-.02,.04-.04,.06c-.04,.06-.07,.13-.1,.19-.01,.01-.02,.04-.03,.06-.01,.02-.03,.04-.04,.07-.06,.09-.11,.19-.15,.29,0,0,0,.01,0,.02,0,.01-.02,.04-.03,.05-.06,.11-.11,.22-.16,.33,0,.01-.01,.03-.02,.05-.06,.12-.12,.25-.18,.37-.05,.1-.1,.2-.14,.3-.02,.05-.04,.1-.06,.15-.05,.11-.1,.21-.15,.32-.05,.11-.1,.22-.14,.33-.02,.04-.04,.08-.06,.13-.04,.09-.08,.19-.11,.28-.09,.21-.18,.43-.25,.64,0,.02-.01,.04-.02,.05-.02,.06-.04,.12-.06,.18-.04,.08-.07,.17-.1,.25-.04,.13-.09,.25-.13,.38-.04,.13-.08,.25-.13,.37,0,.02-.01,.04-.02,.06-.04,.11-.07,.23-.11,.34h0c-.04,.13-.08,.26-.12,.39-.04,.13-.08,.25-.11,.37,0,.02-.01,.04-.02,.06-.03,.1-.06,.2-.08,.3-.01,.04-.03,.08-.04,.13-.03,.08-.05,.17-.07,.25-.03,.1-.06,.2-.08,.29-.03,.11-.06,.2-.08,.31-.03,.11-.06,.22-.08,.33-.02,.09-.04,.18-.06,.27,0,.02,0,.04-.01,.06-.02,.08-.04,.15-.05,.23,0,0,0,0,0,.01-.02,.11-.04,.22-.07,.33v.02c-.02,.1-.04,.19-.06,.29,0,.01,0,.02,0,.04-.01,.05-.02,.1-.03,.14-.02,.09-.04,.19-.05,.28,0,.02-.01,.04-.01,.06-.02,.11-.04,.21-.06,.32,0,.02,0,.04,0,.07-.01,.07-.03,.14-.04,.22,0,.01,0,.04-.01,.06-.01,.1-.03,.2-.04,.3,0,.03,0,.06-.01,.09,0,.01,0,.03,0,.05-.01,.11-.04,.23-.05,.34-.01,.11-.03,.22-.04,.33,0,.02,0,.04,0,.06-.01,.08-.02,.17-.03,.25-.01,.08-.02,.17-.03,.25v.03s0,.05-.01,.07c0,.11-.02,.21-.03,.32,0,.12-.02,.23-.03,.35-.01,.14-.02,.28-.03,.42,0,.08-.01,.15-.01,.23,0,.01,0,.04,0,.06,0,.06,0,.13,0,.19,0,.13-.01,.27-.02,.41,0,.13,0,.27-.01,.41v.14c0,.23,0,.46,0,.69s0,.46,0,.68v.14c0,.13,0,.27,.01,.41,0,.14,.01,.27,.02,.42,0,.06,0,.12,0,.18,0,.02,0,.04,0,.06,0,.07,0,.15,.01,.22,0,.14,.01,.28,.03,.42,0,.12,.02,.24,.03,.35,0,.11,.02,.22,.03,.32,0,.02,0,.05,0,.07,0,0,0,.02,0,.03,0,.08,.01,.16,.03,.25,0,.08,.01,.16,.03,.25,0,.02,0,.04,0,.06,0,.11,.02,.23,.04,.34,.01,.11,.04,.22,.05,.33,0,.02,0,.04,0,.05,0,.04,0,.06,.01,.09,.01,.1,.03,.2,.04,.3,0,.02,0,.04,.01,.06,0,.07,.02,.14,.04,.22,0,.02,0,.04,0,.06,.02,.11,.04,.21,.06,.32,0,.02,0,.04,.01,.06,.01,.1,.03,.19,.05,.28,0,.05,.01,.09,.03,.14,0,.01,0,.03,0,.04,.01,.1,.04,.19,.06,.29v.02c.03,.11,.05,.23,.07,.34,0,0,0,0,0,0,.01,.08,.03,.15,.05,.23,0,.02,0,.04,.01,.06,.02,.09,.04,.18,.06,.27,.03,.11,.06,.23,.08,.33,.02,.11,.05,.2,.08,.31,.02,.09,.05,.19,.08,.29,.02,.08,.04,.17,.07,.25,0,.04,.02,.08,.04,.13,.02,.1,.05,.2,.08,.3,0,.02,.01,.04,.02,.06,.04,.13,.08,.25,.11,.37,.04,.13,.08,.25,.12,.38h0c.04,.12,.08,.24,.11,.35,0,.02,.01,.04,.02,.06,.04,.12,.08,.24,.13,.37,.04,.13,.09,.25,.13,.38,.03,.08,.06,.17,.1,.25,.02,.06,.04,.12,.06,.18,0,.01,.01,.03,.02,.05,.08,.21,.16,.43,.25,.64,.04,.09,.08,.19,.11,.28,.02,.04,.04,.08,.06,.13,.04,.11,.09,.22,.14,.33s.1,.22,.15,.33c.02,.04,.04,.09,.06,.14,.04,.1,.09,.2,.14,.3,.06,.12,.11,.25,.18,.37,0,.02,.01,.04,.02,.05,.06,.11,.11,.23,.16,.33,0,.02,.02,.04,.03,.05,0,0,0,.01,0,.02,.05,.1,.1,.2,.15,.3,0,.02,.02,.04,.04,.07,0,.01,.01,.04,.03,.05,.03,.06,.06,.13,.1,.19,.01,.02,.02,.04,.04,.06t0,.01s0,.02,.01,.04h0c.05,.1,.1,.19,.15,.29,.03,.04,.06,.09,.08,.14,.05,.1,.11,.19,.16,.29,.05,.09,.1,.18,.15,.26,.04,.06,.07,.12,.11,.18,.06,.09,.11,.19,.18,.28,.07,.13,.14,.25,.22,.37,.06,.09,.12,.18,.18,.27,.03,.05,.06,.09,.09,.14,.06,.1,.13,.2,.19,.29,.16,.25,.33,.5,.51,.75,.05,.08,.11,.15,.16,.23,0,0,0,.01,0,.01,.01,.02,.03,.04,.04,.06,0,.01,.02,.04,.04,.05,0,.01,.01,.02,.01,.03,.05,.06,.09,.13,.14,.18,.06,.09,.13,.18,.19,.27,.07,.08,.13,.18,.2,.26,.08,.11,.15,.2,.23,.3,.02,.02,.04,.04,.05,.06,.04,.05,.08,.1,.11,.15,.04,.04,.06,.08,.1,.12,.07,.09,.15,.18,.23,.27,.08,.1,.16,.2,.25,.3,.06,.08,.13,.15,.19,.23,.1,.12,.2,.24,.31,.36,.08,.09,.18,.19,.26,.28,.06,.07,.13,.14,.19,.21,.06,.06,.12,.13,.18,.19,.13,.13,.25,.27,.39,.4,.1,.11,.2,.21,.3,.31,.11,.11,.21,.2,.32,.31,.13,.13,.27,.26,.4,.39,.06,.06,.12,.11,.18,.17,.07,.06,.14,.13,.21,.2,.1,.08,.19,.17,.29,.25,.12,.11,.24,.21,.36,.32,.07,.06,.15,.13,.22,.19,.1,.08,.2,.16,.3,.25,.09,.07,.18,.15,.28,.23,.04,.03,.08,.06,.11,.09,.05,.04,.1,.08,.15,.12,.02,.01,.04,.03,.06,.04,.1,.08,.2,.15,.3,.24,.09,.06,.18,.13,.27,.2,.08,.06,.18,.13,.26,.2,.06,.04,.13,.09,.19,.13,0,0,.01,.01,.02,.01,.02,.01,.04,.03,.06,.04,.01,.01,.04,.03,.05,.04,0,0,.01,0,.01,.01,.08,.06,.15,.11,.23,.16,.25,.17,.49,.34,.74,.51,.1,.06,.2,.13,.3,.19,.04,.03,.09,.06,.13,.08,.09,.06,.19,.12,.28,.18,.12,.08,.24,.15,.36,.23,.09,.06,.19,.11,.29,.17,.06,.04,.12,.07,.18,.11,.09,.05,.18,.1,.26,.15,.1,.05,.2,.11,.29,.16,.05,.02,.1,.05,.15,.08,.09,.05,.19,.11,.28,.15h0s.02,.01,.04,.02h0s.04,.03,.06,.04c.06,.04,.13,.07,.19,.11,.02,0,.04,.01,.06,.03,.02,.01,.04,.02,.07,.04,.1,.05,.2,.1,.3,.15,0,0,.01,0,.02,.01,.01,0,.03,.01,.04,.02,.11,.06,.23,.11,.33,.16,.01,.01,.04,.02,.05,.03,.13,.06,.25,.11,.37,.18,.1,.04,.2,.09,.3,.14,.05,.02,.1,.04,.15,.06,.11,.05,.22,.1,.32,.15,.11,.04,.23,.09,.33,.14,.04,.01,.08,.04,.13,.05,.1,.04,.19,.08,.29,.12,.21,.08,.42,.17,.64,.25,.01,0,.03,.01,.05,.01,.06,.03,.12,.05,.18,.07,.08,.04,.18,.06,.26,.09,.13,.05,.25,.09,.38,.14,.12,.04,.24,.08,.37,.13,.01,0,.04,0,.05,.01,.12,.04,.23,.08,.35,.11,.13,.04,.25,.08,.39,.12,.12,.04,.25,.08,.37,.11,.02,0,.04,.01,.07,.02,.09,.03,.19,.06,.29,.08,.04,.01,.08,.02,.13,.04,.08,.02,.17,.04,.26,.07,.09,.02,.19,.05,.29,.08,.1,.02,.2,.05,.3,.07,.11,.03,.23,.06,.34,.08,.08,.02,.18,.04,.26,.06,.02,0,.04,0,.06,0,.08,.02,.15,.04,.23,.06h.01c.11,.03,.23,.05,.33,.07,0,0,.01,0,.02,0h0c.09,.02,.19,.04,.28,.06,.01,0,.03,0,.04,0,.05,0,.1,.01,.15,.03,.09,.01,.18,.04,.27,.05,.02,0,.04,0,.06,0,.1,.02,.2,.04,.32,.06,.02,0,.04,0,.06,.01,.07,.01,.15,.02,.22,.04,.02,0,.04,0,.06,0,.11,.01,.2,.04,.3,.05,.04,0,.06,0,.09,0,.01,0,.04,0,.05,0,.11,.02,.23,.04,.34,.05,.11,.01,.23,.03,.34,.04,.01,0,.04,0,.06,0,.08,0,.16,.02,.25,.03,.08,0,.16,.01,.25,.03h.02s.05,0,.07,0c.11,.01,.22,.02,.32,.03,.12,.01,.24,.02,.36,.04,.14,0,.27,.02,.42,.03,.08,0,.15,0,.23,.01h.06c.06,0,.12,0,.18,.01,.13,0,.27,.01,.41,.01,.14,0,.27,.01,.42,.01h.13c.23,0,.46,.01,.69,.01s.46,0,.69,0h.13c.14,0,.27-.01,.42-.02,.13,0,.27,0,.41-.01,.06,0,.12,0,.18-.01h.06c.06,0,.12,0,.18-.01,.93,.05,1.88,.07,2.85,.07h8.52v3.94c0,3.9-1.19,6.78-3.56,8.65-2.37,1.86-6.28,2.8-11.7,2.8-1.95,0-4.38-.11-7.31-.32-2.93-.21-6.47-.58-10.63-1.08l-3.18,17.43c3.82,.76,7.47,1.37,10.94,1.84,3.48,.46,6.87,.7,10.18,.7,7.46,0,13.97-1.21,19.53-3.62,5.55-2.41,9.88-5.9,12.98-10.43,3.09-4.54,4.64-9.86,4.64-15.97v-4l-14.7-5.61c-5.09-2.23-9.5-5.74-12.79-10.13-.13-.18-.27-.36-.39-.54h0c-.06,0-.13,0-.2,0h-.04c-.06,0-.12,0-.18,0s-.11,0-.16,0c-.07,0-.15,0-.23-.01-.06,0-.12,0-.18-.01-.04,0-.08,0-.13,0-.08,0-.15-.01-.23-.02-.07,0-.15-.01-.22-.02-.07,0-.15-.01-.22-.02-.3-.04-.58-.08-.87-.13-.07,0-.14-.02-.21-.04-.08-.01-.15-.02-.22-.04-.06-.01-.13-.03-.19-.04-.04,0-.08-.01-.12-.02-.06-.01-.13-.03-.19-.04-.05,0-.09-.02-.14-.03-.18-.04-.37-.08-.55-.13l-.15-.04s-.09-.02-.14-.04c-.15-.04-.31-.08-.46-.13-.08-.02-.15-.05-.23-.07-.05-.01-.09-.03-.14-.05-.06-.02-.13-.04-.19-.06-.06-.02-.13-.04-.19-.06-.2-.07-.41-.15-.61-.23-.06-.02-.11-.04-.16-.06-.08-.04-.15-.06-.23-.1-.06-.03-.13-.05-.2-.08-.26-.11-.51-.23-.77-.36-.06-.03-.13-.06-.18-.09-.13-.06-.25-.13-.38-.19-.13-.07-.25-.13-.37-.2-.06-.04-.12-.07-.18-.11-.06-.04-.12-.07-.18-.11-.12-.07-.24-.14-.36-.22-.06-.04-.12-.07-.18-.11-.08-.05-.16-.1-.23-.15-.08-.05-.16-.11-.23-.15-.09-.06-.18-.12-.27-.18-.05-.04-.09-.06-.14-.1-.11-.08-.23-.16-.34-.25-.04-.02-.06-.04-.1-.08-.02,0-.05-.03-.07-.05-.12-.08-.23-.16-.34-.26-.06-.04-.11-.09-.16-.13-.1-.09-.2-.18-.29-.28-.51-.53-.95-1.19-1.31-1.96-.85-1.82-1.27-4.69-1.27-8.59,0-4.15,.49-7.23,1.46-9.23,.97-1.99,2.35-3.29,4.13-3.88,.54-.18,1.12-.33,1.72-.46,1.37-.29,2.87-.44,4.52-.44h8.52v23.64c2.4,.21,4.57,.53,6.5,.9v.06c.23-.2,2.74,1.13,3.91,1.83Z"/>
                </g>
              </g>
              <path class="cls-1" d="M215.88,261.86c-.93,0-2.08-.04-3.43-.13-1.36-.09-2.8-.21-4.32-.38l.38-18.19c1.53,0,2.95,.02,4.26,.06,1.31,.04,2.27,.06,2.86,.06,2.88,0,5.15-1.17,6.81-3.5,1.65-2.33,2.48-5.7,2.48-10.11v-65.76h21.88v65.76c0,6.19-1.29,11.72-3.88,16.6-2.59,4.88-6.19,8.69-10.81,11.45-4.62,2.75-10.03,4.13-16.22,4.13Zm9.03-109.9v-16.66h22.01v16.66h-22.01Zm21.88,43.38v-18.7h26.33v18.7h-26.33Zm26.2-43.38v-16.66h22.01v16.66h-22.01Zm.13,75.94v-63.98h21.88v56.73l-13.61-11.32h26.71v18.57h-34.98Zm34.98,0v-18.57c.51,0,.91,.21,1.21,.64,.3,.43,.55,1.04,.76,1.84,.21,.81,.36,1.78,.45,2.93,.08,1.14,.13,2.44,.13,3.88s-.04,2.73-.13,3.88c-.09,1.14-.23,2.12-.45,2.93-.21,.81-.47,1.42-.76,1.84-.3,.43-.7,.64-1.21,.64Z"/>
              <path class="cls-1" d="M308.11,227.89c-.42,0-.8-.21-1.14-.64-.34-.42-.59-1.04-.76-1.84-.17-.8-.32-1.78-.45-2.93-.13-1.14-.19-2.44-.19-3.88,0-1.95,.09-3.6,.25-4.96,.17-1.36,.45-2.42,.83-3.18s.87-1.14,1.46-1.14v18.57Zm0,0v-18.57h38.29l-13.61,11.32v-56.73h21.88v63.98h-46.56Zm5.09,28.88v-16.66h34.93v16.66h-34.93Z"/>
              <path class="cls-1" d="M363.56,261.86c-.93,0-2.08-.04-3.43-.13-1.36-.09-2.8-.21-4.32-.38l.38-18.19c1.53,0,2.95,.02,4.26,.06,1.31,.04,2.27,.06,2.86,.06,2.88,0,5.15-1.17,6.81-3.5,1.65-2.33,2.48-5.7,2.48-10.11v-65.76h21.88v65.76c0,6.19-1.29,11.72-3.88,16.6-2.59,4.88-6.19,8.69-10.81,11.45-4.62,2.75-10.03,4.13-16.22,4.13Z"/>
              <path class="cls-1" d="M484.53,128.93v-10.81h34.73v10.81h-34.73Zm8.52-1.65c-1.78-2.12-3.14-4.13-4.07-6.04-.93-1.91-1.4-3.96-1.4-6.17,0-3.22,.85-6.11,2.54-8.65,1.7-2.54,3.94-4.56,6.74-6.04,2.8-1.48,5.89-2.23,9.29-2.23,1.78,0,3.63,.25,5.53,.76s3.5,1.19,4.77,2.04l-4.96,9.16c-.85-.42-1.68-.7-2.48-.83-.81-.13-1.59-.19-2.35-.19-2.04,0-3.61,.53-4.71,1.59-1.1,1.06-1.65,2.44-1.65,4.13,0,1.02,.19,1.97,.57,2.86,.38,.89,1,1.8,1.84,2.73l-9.67,6.87Zm-2.04,100.62v-89.04h21.75v89.04h-21.75Z"/>
              <g id="Special_Letter-2" data-name="Special Letter">
                <g id="Logo-2" data-name="Logo">
                  <path class="cls-1" d="M471.8,163.91v47.64h-1.9c-3.5,0-6.78-.96-9.57-2.63-1.17-.7-3.68-2.03-3.91-1.83v-.06c-1.92-.37-4.1-.69-6.5-.9v-23.64h-.49s-.84-.75-.86-.77c-.04-.03-.07-.06-.11-.08-.11-.08-.21-.18-.32-.26-.11-.09-.22-.18-.33-.26-.06-.04-.11-.09-.17-.13-.11-.08-.23-.17-.34-.25-.05-.03-.1-.06-.14-.1-.09-.06-.18-.12-.27-.18-.08-.05-.15-.11-.23-.15-.08-.05-.15-.1-.23-.15-.06-.04-.12-.08-.18-.11-.12-.08-.24-.15-.37-.22-.06-.04-.12-.07-.18-.11-.06-.04-.13-.07-.19-.11-.12-.06-.25-.13-.37-.2-.13-.07-.25-.13-.38-.2-.06-.03-.13-.06-.19-.09-.25-.13-.51-.25-.77-.36-.06-.02-.13-.05-.19-.08-.08-.04-.15-.06-.23-.1-.06-.02-.11-.04-.16-.06-.2-.08-.41-.15-.61-.23-.06-.02-.13-.04-.19-.06-.06-.02-.13-.04-.19-.06-.05-.01-.1-.04-.14-.05-.08-.02-.15-.05-.23-.07-.15-.05-.31-.09-.46-.13-.05-.01-.1-.03-.14-.04-.05-.01-.1-.03-.15-.04-.18-.05-.37-.09-.55-.13-.05,0-.1-.02-.14-.03-.06-.01-.13-.03-.19-.04-.04,0-.08-.01-.12-.02-.06-.01-.13-.03-.19-.04-.07-.01-.15-.03-.22-.04s-.14-.03-.21-.04c-.29-.05-.58-.09-.87-.13-.07,0-.15-.01-.22-.02-.08,0-.15-.01-.23-.02-.07,0-.14-.01-.22-.02-.04,0-.08,0-.13,0-.06,0-.13,0-.19-.01-.07,0-.15,0-.22-.01-.06,0-.11,0-.16,0-.06,0-.12,0-.18,0h-.04c-.06,0-.13,0-.2,0-.13-.18-.26-.36-.39-.53-3.3-4.4-7.69-7.91-12.79-10.13,.11-.05,.23-.1,.33-.15,.04-.01,.08-.04,.13-.05,.1-.04,.19-.08,.29-.12,.21-.08,.42-.17,.64-.25,.01,0,.03,0,.05-.01,.06-.03,.12-.05,.18-.07,.08-.03,.18-.06,.26-.09,.13-.05,.25-.09,.38-.14,.12-.04,.24-.08,.37-.12,.01,0,.04-.01,.05-.02,.12-.04,.23-.08,.35-.11,.13-.04,.25-.08,.39-.12,.12-.04,.25-.08,.37-.11,.02,0,.04-.01,.07-.02,.09-.03,.19-.06,.29-.08,.04-.01,.08-.02,.13-.04,.08-.02,.17-.04,.26-.07,.09-.02,.19-.05,.29-.07,.1-.03,.2-.06,.3-.08,.11-.03,.23-.06,.34-.08,.08-.02,.18-.04,.26-.06,.02,0,.04,0,.06,0,.08-.02,.15-.04,.23-.06h.01c.11-.02,.23-.05,.33-.07,0,0,.01,0,.02,0h0c.09-.01,.19-.04,.28-.06,.01,0,.03,0,.04,0,.05,0,.1-.01,.15-.03,.09-.01,.18-.04,.27-.05,.02,0,.04,0,.06,0,.1-.02,.2-.04,.32-.06,.02,0,.04,0,.06-.01,.07,0,.15-.02,.22-.04,.02,0,.04,0,.06,0,.11-.01,.2-.03,.3-.04,.04,0,.06-.01,.09-.01,.01,0,.04,0,.05,0,.11-.02,.23-.04,.34-.05,.11-.01,.23-.03,.34-.04,.01,0,.04,0,.06,0,.08,0,.16-.02,.25-.03,.08,0,.16-.01,.25-.03h.02s.05,0,.07,0c.11-.01,.22-.02,.32-.03,.12-.01,.24-.02,.36-.04,.14,0,.27-.02,.42-.03,.08,0,.15,0,.23-.01h.06c.06,0,.12,0,.18-.01,.13,0,.27-.01,.41-.01,.14,0,.27-.01,.42-.01,.04,0,.09,0,.13,0,.23,0,.46,0,.69,0s.46,0,.69,0c.04,0,.09,0,.13,0,.14,0,.27,0,.42,.01,.13,0,.27,0,.41,.01,.06,0,.12,0,.18,.01h.06c.07,0,.13,0,.2,.01h.02c.91-.05,1.85-.07,2.81-.07h30.4Z"/>
                  <path class="cls-1" d="M471.8,227.83v4c0,6.11-1.55,11.43-4.64,15.97-3.1,4.53-7.42,8.01-12.98,10.43-5.56,2.41-12.07,3.62-19.53,3.62-3.31,0-6.7-.23-10.18-.7-3.48-.47-7.12-1.08-10.94-1.84l3.18-17.43c4.16,.51,7.7,.87,10.63,1.08,2.93,.21,5.36,.32,7.31,.32,5.43,0,9.33-.94,11.7-2.8,2.37-1.86,3.56-4.75,3.56-8.65v-3.94h-8.52c-.97,0-1.92-.02-2.85-.07-.06,0-.12,0-.18,.01h-.06c-.06,0-.12,0-.18,.01-.14,0-.27,.01-.41,.01-.14,0-.27,.01-.42,.01h-.13c-.23,0-.46,.01-.69,.01s-.46,0-.69,0h-.13c-.14,0-.27-.01-.42-.02-.13,0-.27,0-.41-.01-.06,0-.12,0-.18-.01h-.06c-.08,0-.15,0-.23-.01-.14,0-.27-.02-.42-.03-.12-.01-.24-.02-.36-.04-.11,0-.22-.01-.32-.03-.02,0-.04,0-.07,0h-.02c-.08-.01-.17-.02-.25-.03-.08,0-.17-.02-.25-.03-.02,0-.04,0-.06,0-.11-.01-.23-.03-.34-.04-.11-.01-.23-.03-.34-.05-.01,0-.04,0-.05,0-.03,0-.06,0-.09,0-.1-.01-.2-.04-.3-.05-.02,0-.04,0-.06,0-.07-.01-.15-.02-.22-.04-.02,0-.04,0-.06-.01-.11-.01-.22-.04-.32-.06-.02,0-.04,0-.06,0-.09-.01-.18-.04-.27-.05-.05-.01-.1-.02-.15-.03,0,0-.02,0-.04,0-.09-.02-.19-.04-.28-.06h0s-.01,0-.02,0c-.11-.02-.22-.04-.33-.07h-.01c-.08-.02-.15-.04-.23-.06-.02,0-.04,0-.06,0-.08-.02-.18-.04-.26-.06-.11-.03-.23-.06-.34-.08-.1-.02-.2-.05-.3-.07-.1-.03-.2-.06-.29-.08-.09-.03-.18-.05-.26-.07-.04-.01-.08-.02-.13-.04-.1-.03-.2-.06-.29-.08-.03,0-.05-.01-.07-.02-.12-.04-.25-.07-.37-.11-.13-.04-.26-.08-.39-.12-.12-.04-.23-.08-.35-.11-.01,0-.04-.01-.05-.01-.13-.04-.25-.08-.37-.13-.13-.05-.25-.09-.38-.14-.08-.03-.18-.06-.26-.09-.06-.02-.12-.04-.18-.07-.02,0-.04,0-.05-.01-.22-.08-.43-.17-.64-.25-.1-.04-.19-.08-.29-.12-.04-.01-.08-.04-.13-.05-.11-.05-.22-.1-.33-.14-.11-.05-.22-.1-.32-.15-.05-.02-.1-.04-.15-.06-.1-.05-.2-.1-.3-.14-.13-.06-.25-.12-.37-.18-.01,0-.04-.01-.05-.03-.11-.05-.22-.11-.33-.16l-.04-.02s-.01,0-.02-.01c-.1-.05-.2-.1-.3-.15-.03-.01-.05-.02-.07-.04s-.04-.02-.06-.03c-.06-.04-.13-.07-.19-.11-.02,0-.04-.02-.06-.04h0s-.03-.01-.04-.02h0c-.09-.05-.19-.11-.28-.15-.05-.03-.1-.06-.15-.08-.09-.06-.19-.11-.29-.16-.08-.06-.17-.11-.26-.15-.06-.04-.12-.07-.18-.11-.1-.06-.2-.11-.29-.17-.12-.07-.24-.15-.36-.23-.09-.06-.19-.11-.28-.18-.04-.03-.09-.06-.13-.08-.1-.06-.2-.13-.3-.19-.25-.17-.49-.34-.74-.51-.08-.06-.15-.11-.23-.16,0,0,0,0-.01-.01-.01,0-.04-.02-.05-.04-.02-.01-.04-.03-.06-.04,0,0-.01,0-.02-.01-.06-.04-.13-.09-.19-.13-.08-.06-.18-.13-.26-.2-.09-.06-.18-.13-.27-.2-.1-.08-.2-.16-.3-.24-.01-.01-.04-.03-.06-.04-.05-.04-.1-.08-.15-.12-.04-.03-.08-.06-.11-.09-.1-.08-.19-.15-.28-.23-.1-.08-.2-.17-.3-.25-.07-.06-.15-.13-.22-.19-.12-.11-.24-.21-.36-.32-.1-.08-.19-.17-.29-.25-.07-.06-.14-.13-.21-.2-.06-.06-.12-.11-.18-.17-.13-.13-.27-.26-.4-.39-.11-.11-.21-.2-.32-.31-.1-.1-.2-.2-.3-.31-.13-.13-.26-.27-.39-.4-.06-.06-.12-.13-.18-.19-.06-.07-.13-.14-.19-.21-.08-.09-.18-.19-.26-.28-.11-.12-.21-.24-.31-.36-.06-.08-.13-.15-.19-.23-.08-.1-.17-.2-.25-.3-.08-.09-.15-.18-.23-.27-.04-.04-.06-.08-.1-.12-.04-.05-.08-.1-.11-.15-.01-.01-.03-.04-.05-.06-.08-.1-.15-.2-.23-.3-.07-.08-.13-.18-.2-.26-.06-.09-.13-.18-.19-.27-.05-.06-.09-.12-.14-.18,0,0,0-.01-.01-.03-.01-.01-.03-.04-.04-.05-.01-.02-.03-.04-.04-.06,0,0,0,0,0-.01-.06-.08-.11-.15-.16-.23-.18-.25-.34-.49-.51-.75-.06-.09-.13-.19-.19-.29-.04-.05-.06-.09-.09-.14-.06-.09-.12-.18-.18-.27-.08-.12-.15-.24-.22-.37-.06-.09-.12-.19-.18-.28-.04-.06-.07-.12-.11-.18-.05-.08-.1-.17-.15-.26-.06-.1-.11-.19-.16-.29-.03-.05-.06-.1-.08-.14-.05-.1-.1-.19-.15-.29h0s-.01-.03-.01-.04t0-.01s-.02-.04-.04-.06c-.04-.06-.07-.13-.1-.19-.01-.01-.02-.04-.03-.05-.01-.03-.03-.05-.04-.07-.06-.1-.11-.2-.15-.3,0,0,0-.01,0-.02,0-.01-.02-.03-.03-.05-.06-.11-.11-.22-.16-.33,0-.01-.01-.03-.02-.05-.06-.12-.12-.25-.18-.37-.05-.1-.1-.2-.14-.3-.02-.05-.04-.1-.06-.14-.05-.11-.1-.22-.15-.33-.05-.11-.1-.22-.14-.33-.02-.04-.04-.08-.06-.13-.04-.09-.08-.19-.11-.28-.09-.21-.18-.43-.25-.64,0-.02-.01-.04-.02-.05-.02-.06-.04-.12-.06-.18-.04-.08-.07-.17-.1-.25-.04-.13-.09-.25-.13-.38-.04-.13-.08-.25-.13-.37,0-.02-.01-.04-.02-.06-.04-.11-.07-.23-.11-.34h0c-.04-.13-.08-.26-.12-.39-.04-.13-.08-.25-.11-.37,0-.02-.01-.04-.02-.06-.03-.1-.06-.2-.08-.3-.01-.04-.03-.08-.04-.13-.03-.08-.05-.17-.07-.25-.03-.1-.06-.2-.08-.29-.03-.11-.06-.2-.08-.31-.03-.11-.06-.22-.08-.33-.02-.09-.04-.18-.06-.27,0-.01,0-.04-.01-.06-.02-.08-.04-.15-.05-.23,0,0,0,0,0,0-.02-.11-.04-.23-.07-.34v-.02c-.02-.1-.04-.19-.06-.29,0,0,0-.02,0-.04-.01-.05-.02-.09-.03-.14-.02-.09-.04-.18-.05-.28,0-.01-.01-.04-.01-.06-.02-.11-.04-.21-.06-.32,0-.02,0-.04,0-.06-.01-.08-.03-.15-.04-.22,0-.02,0-.04-.01-.06-.01-.1-.03-.2-.04-.3,0-.03,0-.06-.01-.09,0-.01,0-.03,0-.05-.01-.11-.04-.23-.05-.33-.01-.11-.03-.23-.04-.34,0-.02,0-.04,0-.06-.01-.08-.02-.16-.03-.25-.01-.08-.02-.17-.03-.25,0,0,0-.02,0-.03,0-.02,0-.05,0-.07,0-.11-.02-.21-.03-.32s-.02-.23-.03-.35c-.01-.14-.02-.28-.03-.42,0-.07-.01-.15-.01-.22,0-.02,0-.04,0-.06,0-.06,0-.13,0-.18,0-.14-.01-.27-.02-.42,0-.13,0-.27-.01-.41v-.14c0-.23,0-.46,0-.68s0-.46,0-.69v-.14c0-.13,0-.27,.01-.41,0-.14,.01-.27,.02-.41,0-.06,0-.13,0-.19,0-.02,0-.04,0-.06,0-.08,0-.15,.01-.23,0-.14,.01-.28,.03-.42,0-.12,.02-.23,.03-.35,0-.11,.02-.22,.03-.32,0-.02,0-.05,0-.07v-.03c.01-.08,.02-.16,.04-.25,0-.08,.01-.16,.03-.25,0-.01,0-.04,0-.06,0-.11,.02-.23,.04-.33,.01-.11,.04-.23,.05-.34,0-.02,0-.04,0-.05,0-.04,0-.06,.01-.09,.01-.1,.03-.2,.04-.3,0-.02,0-.04,.01-.06,0-.08,.02-.15,.04-.22,0-.03,0-.05,0-.07,.02-.11,.04-.21,.06-.32,0-.02,0-.04,.01-.06,.01-.09,.03-.19,.05-.28,0-.04,.01-.09,.03-.14,0-.01,0-.02,0-.04,.01-.1,.04-.19,.06-.29v-.02c.03-.11,.05-.23,.07-.33,0,0,0-.01,0-.01,.01-.08,.03-.15,.05-.23,0-.02,0-.04,.01-.06,.02-.09,.04-.18,.06-.27,.03-.11,.06-.23,.08-.33,.02-.11,.05-.2,.08-.31,.02-.09,.05-.19,.08-.29,.02-.08,.04-.17,.07-.25,0-.04,.02-.08,.04-.13,.02-.1,.05-.2,.08-.3,0-.02,.01-.04,.02-.06,.04-.13,.08-.25,.11-.37,.04-.13,.08-.25,.12-.38h0c.04-.12,.08-.24,.11-.35,0-.02,.01-.04,.02-.06,.04-.12,.08-.24,.13-.37,.04-.13,.09-.25,.13-.38,.03-.08,.06-.17,.1-.25,.02-.06,.04-.12,.06-.18,0-.01,.01-.03,.02-.05,.08-.21,.16-.43,.25-.64,.04-.09,.08-.19,.11-.28,.02-.04,.04-.08,.06-.13,.04-.11,.09-.22,.14-.33,.05-.11,.1-.22,.15-.32,.02-.05,.04-.1,.06-.15,.04-.1,.09-.2,.14-.3,.06-.12,.11-.25,.18-.37,0-.02,.01-.04,.02-.05,.06-.11,.11-.22,.16-.33,0-.01,.02-.04,.03-.05,0,0,0-.01,0-.02,.05-.1,.1-.2,.15-.29,0-.03,.02-.05,.04-.07,0-.02,.01-.04,.03-.06,.03-.06,.06-.13,.1-.19,.01-.02,.02-.04,.04-.06t0-.01s0-.02,.01-.04h0c.05-.09,.1-.19,.15-.28,.03-.05,.06-.1,.08-.15,.05-.1,.11-.19,.16-.29,.05-.08,.1-.18,.15-.26,.04-.06,.07-.12,.11-.18,.06-.09,.11-.19,.18-.28,.07-.12,.14-.25,.22-.36,.06-.1,.12-.19,.18-.28,.03-.04,.06-.09,.09-.14,.06-.09,.13-.19,.19-.29,.16-.25,.33-.5,.51-.75,.05-.07,.11-.15,.16-.23,0,0,0,0,0-.01,.01-.02,.03-.04,.04-.06h.38c3.5,0,6.77,.96,9.57,2.63,1.16,.7,3.68,2.03,3.91,1.83v.06c3.43,.65,7.66,1.18,12.53,1.15-.59,.13-1.17,.27-1.7,.46-1.78,.59-3.16,1.89-4.13,3.88-.98,2-1.46,5.07-1.46,9.23,0,3.9,.42,6.76,1.27,8.59,.36,.77,.8,1.42,1.31,1.96,.09,.1,.19,.19,.29,.28,.06,.04,.11,.09,.16,.13,.11,.1,.22,.18,.34,.26,.02,.02,.05,.04,.07,.05,.04,.04,.06,.06,.1,.08,.11,.09,.23,.17,.34,.25,.05,.04,.09,.06,.14,.1,.08,.06,.18,.12,.27,.18,.07,.05,.15,.11,.23,.15,.07,.05,.15,.1,.23,.15,.06,.04,.11,.08,.18,.11,.12,.08,.24,.15,.36,.22,.06,.04,.13,.07,.18,.11,.06,.04,.13,.07,.18,.11,.13,.07,.25,.13,.37,.2,.13,.06,.25,.13,.38,.19,.06,.04,.13,.06,.18,.09,.26,.13,.51,.25,.77,.36,.06,.03,.13,.05,.2,.08,.08,.04,.15,.06,.23,.1,.06,.02,.11,.04,.16,.06,.2,.08,.41,.15,.61,.23,.06,.02,.13,.04,.19,.06,.06,.03,.13,.04,.19,.06,.05,.02,.09,.04,.14,.05,.08,.02,.15,.05,.23,.07,.15,.05,.31,.09,.46,.13,.05,.01,.09,.03,.14,.04l.15,.04c.18,.05,.37,.09,.55,.13,.05,0,.09,.02,.14,.03,.06,.01,.13,.03,.19,.04,.04,0,.08,.01,.12,.02,.06,.01,.13,.03,.19,.04,.07,.01,.14,.02,.22,.04,.07,.01,.14,.03,.21,.04,.29,.05,.58,.09,.87,.13,.07,0,.15,.01,.22,.02,.07,0,.15,.01,.22,.02,.08,0,.15,.01,.23,.02,.04,0,.08,0,.13,0,.06,0,.13,.01,.18,.01,.08,0,.15,0,.23,.01,.06,0,.11,0,.16,0s.12,0,.18,0h.04c.06,0,.13,0,.2,0h0c.13,.18,.26,.36,.39,.54,3.29,4.39,7.7,7.9,12.79,10.13l14.7,5.61Z"/>
                </g>
              </g>
            </g>
            <rect id="Dot" class="cls-1" x="97.04" y="210.51" width="22.01" height="18.1"/>
          </g>
        </g>
        <g id="Logo-3" data-name="Logo">
          <path class="cls-1" d="M702.96,180c0,.59,0,1.18-.02,1.76v.35c-.02,.35-.03,.7-.04,1.05-.01,.35-.03,.7-.05,1.05,0,.16-.02,.31-.03,.47,0,.05,0,.11,0,.16-.01,.19-.02,.38-.04,.57-.02,.36-.05,.71-.08,1.07-.02,.31-.05,.61-.08,.91-.02,.28-.05,.55-.08,.82,0,.06-.01,.12-.02,.18,0,.02,0,.04,0,.07-.02,.21-.04,.42-.07,.63-.02,.21-.05,.42-.07,.63,0,.05-.01,.1-.02,.14-.03,.29-.07,.58-.11,.86-.04,.29-.08,.57-.12,.86,0,.04-.01,.08-.02,.13,0,.08-.02,.15-.03,.23-.04,.26-.08,.52-.12,.78,0,.05-.01,.1-.02,.15-.03,.19-.06,.37-.09,.56,0,.06-.02,.11-.03,.17-.04,.27-.09,.54-.14,.81,0,.05-.02,.1-.03,.15-.04,.24-.08,.47-.13,.71-.02,.12-.04,.25-.07,.37,0,.03-.01,.06-.02,.09-.05,.25-.1,.49-.14,.73t0,0s0,.03-.01,.05c-.06,.29-.12,.57-.18,.86,0,0,0,.02,0,.03-.04,.2-.08,.4-.13,.6-.01,.05-.02,.1-.03,.14-.05,.23-.1,.45-.16,.67-.07,.29-.14,.58-.21,.86-.06,.26-.13,.52-.2,.78-.06,.25-.13,.5-.19,.74-.06,.22-.12,.44-.18,.66-.03,.11-.06,.21-.09,.32-.07,.25-.14,.5-.22,.76-.02,.05-.03,.11-.05,.16-.09,.32-.19,.64-.29,.95-.1,.33-.2,.66-.31,.98,0,0,0,0,0,0-.1,.3-.19,.59-.29,.88-.02,.05-.03,.09-.05,.14-.11,.31-.21,.63-.32,.94-.11,.32-.23,.65-.35,.97-.08,.22-.16,.44-.24,.65-.05,.15-.11,.31-.17,.46-.02,.04-.03,.08-.05,.13-.21,.55-.43,1.1-.65,1.64-.1,.24-.2,.49-.3,.73-.04,.11-.09,.22-.13,.32-.12,.28-.24,.56-.36,.85-.12,.28-.25,.56-.37,.84-.06,.12-.11,.25-.17,.37-.12,.26-.24,.52-.36,.77-.15,.32-.3,.63-.45,.94-.02,.04-.04,.08-.06,.12-.14,.28-.28,.56-.42,.85-.02,.04-.04,.08-.06,.12,0,.02-.02,.04-.03,.05-.13,.25-.25,.5-.38,.75-.03,.06-.06,.12-.1,.18-.02,.05-.05,.09-.07,.14-.08,.16-.17,.32-.26,.49-.03,.05-.06,.11-.09,.16,0,0,0,.02-.01,.02-.01,.03-.03,.06-.05,.09,0,0,0,0,0,0-.13,.24-.26,.49-.4,.73-.07,.12-.14,.25-.2,.37-.14,.25-.28,.49-.41,.74-.13,.22-.26,.45-.38,.67-.09,.15-.18,.31-.27,.46-.14,.25-.29,.49-.44,.73-.19,.31-.37,.62-.56,.92-.15,.24-.3,.48-.45,.71-.07,.12-.15,.23-.23,.35-.16,.25-.32,.5-.49,.75-.42,.64-.85,1.27-1.29,1.9-.14,.2-.28,.39-.42,.59,0,.01-.02,.02-.02,.04-.03,.05-.06,.09-.1,.14h0c-.34,0-.67,.01-1.01,.01-8.95,0-17.32-2.46-24.48-6.75-2.98-1.78-9.41-5.19-10-4.68,.59-.51,1.18-1.03,1.74-1.57,.17-.16,.34-.32,.51-.49,.17-.16,.34-.33,.51-.5s.34-.34,.5-.51c.17-.17,.33-.34,.49-.51,.12-.13,.25-.26,.37-.39,.12-.13,.24-.26,.36-.4,.12-.13,.24-.26,.36-.4,.11-.13,.22-.25,.33-.38,.05-.06,.1-.12,.15-.17,.07-.08,.14-.17,.22-.26,.23-.27,.45-.54,.67-.81,.23-.28,.46-.57,.67-.86,.11-.14,.22-.28,.32-.43,.22-.29,.43-.58,.64-.87,.09-.12,.17-.24,.26-.36,.16-.22,.31-.45,.47-.68,.13-.2,.27-.4,.4-.59,.13-.2,.26-.4,.38-.59,.1-.15,.19-.3,.29-.46,.19-.31,.38-.61,.56-.92,.09-.16,.18-.31,.27-.47,.09-.16,.18-.31,.27-.47,.17-.31,.35-.63,.52-.95,.17-.32,.34-.64,.49-.96,.08-.16,.16-.32,.24-.49,.32-.65,.62-1.31,.91-1.98,.07-.16,.14-.33,.21-.5,.08-.2,.16-.4,.24-.59,.06-.14,.11-.28,.16-.41,.2-.52,.4-1.04,.58-1.56,.06-.16,.11-.33,.17-.49,.06-.16,.11-.32,.16-.49,.04-.12,.08-.24,.12-.36,.06-.2,.13-.39,.18-.59,.12-.39,.23-.79,.34-1.19,.03-.12,.07-.24,.1-.35,.04-.13,.07-.25,.1-.38,.12-.46,.23-.94,.34-1.41,.03-.12,.05-.24,.08-.35,.04-.16,.07-.32,.1-.48,.02-.1,.04-.21,.06-.31,.04-.16,.07-.32,.1-.48,.04-.18,.07-.37,.1-.55,.03-.18,.06-.37,.09-.55,.12-.74,.23-1.48,.31-2.23,.02-.19,.04-.37,.06-.56,.02-.19,.04-.37,.05-.56,.02-.19,.04-.38,.05-.57,.01-.11,.02-.22,.02-.33,.01-.16,.02-.31,.03-.47,.01-.19,.02-.38,.03-.57,0-.14,.01-.27,.02-.41,0-.15,.01-.31,.02-.46,0-.04,0-.07,0-.11,0-.17,.01-.34,.01-.5,0-.04,0-.07,0-.1,0-.13,0-.27,0-.4,0-.17,0-.34,0-.51s0-.34,0-.51c0-.14,0-.27,0-.41,0-.03,0-.06,0-.1h0c0-.17,0-.34-.01-.51,0-.04,0-.07,0-.11,0-.15,0-.31-.02-.46,0-.14-.01-.27-.02-.41,0-.19-.02-.38-.03-.57,0-.16-.02-.32-.03-.47,0-.11-.01-.22-.02-.33-.01-.19-.03-.38-.05-.57-.02-.19-.04-.38-.05-.56-.02-.19-.04-.38-.06-.56-.08-.75-.19-1.49-.31-2.23-.03-.18-.06-.37-.09-.55-.03-.18-.07-.37-.1-.55-.03-.16-.06-.32-.1-.48-.02-.1-.04-.21-.06-.31-.03-.16-.07-.32-.1-.48-.02-.12-.05-.24-.08-.35-.11-.47-.22-.94-.34-1.41-.03-.13-.07-.26-.1-.38-.03-.12-.06-.24-.1-.35-.11-.4-.22-.8-.34-1.19-.06-.2-.12-.4-.18-.59-.04-.12-.08-.24-.12-.36-.05-.16-.1-.32-.16-.49-.05-.16-.11-.33-.17-.49-.18-.52-.38-1.05-.58-1.56-.05-.14-.11-.28-.16-.41-.08-.2-.16-.4-.24-.59-.07-.17-.14-.33-.21-.5-.29-.67-.59-1.33-.91-1.98-.08-.16-.16-.32-.24-.49-.16-.32-.32-.64-.49-.96-.17-.32-.34-.64-.52-.95-.09-.16-.17-.31-.27-.47-.09-.16-.18-.31-.27-.47-.18-.31-.37-.62-.56-.92-.09-.16-.19-.31-.29-.46-.13-.2-.25-.4-.38-.59-.13-.2-.26-.4-.4-.59-.15-.23-.31-.45-.47-.68-.08-.12-.17-.24-.26-.36-.21-.29-.42-.58-.64-.87-.1-.14-.21-.28-.32-.43-.22-.29-.44-.58-.67-.86-.22-.27-.44-.54-.67-.81-.07-.08-.14-.17-.22-.26-.05-.06-.1-.12-.15-.17-.11-.13-.22-.26-.33-.38-.12-.13-.23-.27-.36-.4-.12-.13-.24-.26-.36-.4-.12-.13-.24-.26-.37-.39-.16-.17-.32-.34-.49-.51-.16-.17-.33-.34-.5-.51s-.34-.34-.51-.5c-.17-.17-.34-.33-.51-.49-.13-.12-.26-.25-.39-.37-.13-.12-.26-.24-.4-.36-.13-.12-.26-.24-.4-.36-.13-.11-.25-.22-.38-.33-.06-.05-.12-.1-.17-.15-.08-.07-.17-.14-.26-.22-.27-.23-.54-.45-.81-.67-.28-.23-.57-.46-.86-.67-.14-.11-.28-.22-.43-.32-.29-.22-.58-.43-.87-.64-.12-.09-.24-.17-.36-.26-.22-.16-.45-.31-.68-.47-.2-.13-.4-.27-.59-.4-.2-.13-.4-.26-.59-.38-.15-.1-.3-.19-.46-.29-.31-.19-.61-.38-.92-.56-.16-.09-.31-.18-.47-.27-.16-.09-.31-.18-.47-.27-.31-.17-.63-.35-.95-.52-.32-.17-.64-.34-.96-.49-.16-.08-.32-.16-.49-.24-.65-.32-1.31-.62-1.98-.91-.16-.07-.33-.14-.5-.21-.2-.08-.4-.16-.59-.24-.14-.06-.28-.11-.41-.16-.52-.2-1.04-.4-1.56-.58-.16-.06-.33-.11-.49-.17-.16-.06-.32-.11-.49-.16-.12-.04-.24-.08-.36-.12-.2-.06-.39-.13-.59-.18-.39-.12-.79-.23-1.19-.34-.12-.03-.24-.07-.35-.1-.13-.04-.25-.07-.38-.1-.46-.12-.94-.23-1.41-.34-.12-.03-.24-.05-.35-.08-.16-.04-.32-.07-.48-.1-.1-.02-.21-.04-.31-.06-.16-.04-.32-.07-.48-.1-.18-.04-.37-.07-.55-.1-.18-.03-.37-.06-.55-.09-.74-.12-1.48-.23-2.23-.31-.19-.02-.37-.04-.56-.06-.19-.02-.37-.04-.56-.05-.19-.02-.38-.04-.57-.05-.11-.01-.22-.02-.33-.02-.16-.01-.31-.02-.47-.03-.19-.01-.38-.02-.57-.03-.14,0-.27-.01-.41-.02h-.03c-.14,0-.28-.01-.43-.02-.04,0-.07,0-.11,0h-.03c-.17,0-.34-.01-.5-.01,0,0,0,0,0-.01-.33-.46-.67-.92-1.01-1.37-8.44-11.23-19.7-20.22-32.73-25.92,0,0,.01,0,.02,0,.28-.12,.56-.24,.85-.36,.11-.04,.21-.09,.32-.13,.24-.1,.48-.2,.73-.3,.54-.22,1.09-.44,1.64-.65,.04-.02,.08-.03,.13-.05,.15-.06,.31-.12,.46-.17,.22-.08,.44-.16,.65-.24,.32-.12,.65-.23,.97-.35,.31-.11,.62-.22,.94-.32,.04-.02,.09-.03,.14-.05,.29-.1,.59-.19,.88-.29,0,0,0,0,0,0,.32-.1,.65-.21,.98-.31,.32-.1,.64-.19,.95-.29,.05-.02,.11-.03,.16-.05,.25-.07,.5-.14,.76-.22,.1-.03,.21-.06,.32-.09,.22-.06,.44-.12,.66-.18,.25-.07,.49-.13,.74-.19,.26-.07,.52-.13,.78-.2,.28-.07,.57-.14,.86-.21,.22-.05,.45-.11,.67-.16,.05-.01,.1-.02,.14-.03,.2-.05,.4-.09,.6-.13,0,0,.02,0,.03,0,.28-.06,.57-.12,.86-.18,.02,0,.03,0,.05-.01h0c.25-.05,.49-.1,.73-.15,.03,0,.06-.01,.09-.02,.12-.02,.24-.05,.37-.07,.23-.05,.47-.09,.71-.13,.05-.01,.1-.02,.15-.03,.27-.05,.54-.1,.81-.14,.05-.01,.11-.02,.17-.03,.19-.03,.37-.06,.56-.09,.05-.01,.1-.02,.15-.02,.26-.04,.52-.08,.78-.12,.07-.01,.15-.02,.23-.03,.04,0,.08-.01,.13-.02,.29-.04,.57-.08,.86-.12,.28-.04,.57-.07,.86-.11,.05,0,.1-.01,.14-.02,.21-.03,.42-.05,.63-.07,.21-.02,.42-.05,.63-.07h.07c.06-.01,.12-.02,.18-.02,.27-.03,.55-.05,.82-.08,.3-.03,.61-.05,.91-.08,.36-.03,.71-.05,1.07-.08,.19-.01,.38-.02,.57-.04,.05,0,.11,0,.16,0,.16-.01,.31-.02,.47-.03,.35-.02,.7-.03,1.05-.05,.35-.01,.7-.02,1.05-.03,.12,0,.23,0,.35,0,.58-.01,1.17-.02,1.76-.02s1.18,0,1.76,.02c.12,0,.23,0,.35,0,.35,0,.7,.02,1.05,.03,.35,.01,.7,.03,1.05,.05,.16,0,.31,.02,.47,.03,.05,0,.11,0,.16,0,.19,.01,.38,.02,.57,.04,.36,.02,.71,.05,1.07,.08,.31,.02,.61,.05,.91,.08,.28,.02,.55,.05,.82,.08,.06,0,.12,.01,.18,.02h.07c.21,.03,.42,.05,.63,.08,.21,.02,.42,.05,.63,.07,.05,0,.1,.01,.14,.02,.29,.03,.58,.07,.86,.11,.29,.04,.57,.08,.86,.12,.04,0,.08,.01,.13,.02,.08,0,.15,.02,.23,.03,.26,.04,.52,.08,.78,.12,.05,0,.1,.01,.15,.02,.19,.03,.37,.06,.56,.09,.06,0,.11,.02,.17,.03,.27,.04,.54,.09,.81,.14,.05,0,.1,.02,.15,.03,.24,.04,.47,.08,.71,.13,.12,.02,.25,.04,.37,.07,.03,0,.06,.01,.09,.02,.25,.05,.49,.1,.73,.15h0s.03,0,.05,.01c.29,.06,.57,.12,.86,.18,0,0,.02,0,.03,0,.2,.04,.4,.08,.6,.13,.05,.01,.1,.02,.14,.03,.23,.05,.45,.1,.67,.16,.29,.07,.58,.14,.86,.21,.26,.06,.52,.13,.78,.2,.25,.06,.5,.13,.74,.19,.22,.06,.44,.12,.66,.18,.11,.03,.21,.06,.32,.09,.25,.07,.5,.14,.76,.22,.05,.02,.11,.03,.16,.05,.32,.09,.64,.19,.95,.29,.33,.1,.66,.2,.98,.31,0,0,0,0,0,0,.3,.1,.59,.19,.88,.29,.05,.02,.09,.03,.14,.05,.31,.11,.63,.21,.94,.32,.32,.11,.65,.23,.97,.35,.22,.08,.44,.16,.65,.24,.15,.05,.31,.11,.46,.17,.04,.02,.08,.03,.13,.05,.55,.21,1.1,.42,1.64,.65,.24,.1,.49,.2,.73,.3,.11,.04,.22,.09,.32,.13,.28,.12,.56,.24,.85,.36,.28,.12,.56,.25,.84,.37,.12,.06,.25,.11,.37,.17,.26,.12,.52,.24,.77,.36,.32,.15,.63,.3,.94,.45,.04,.02,.08,.04,.12,.06,.28,.14,.56,.28,.85,.42,.04,.02,.08,.04,.12,.06,.02,0,.04,.02,.05,.03,.25,.13,.5,.25,.75,.38,.06,.03,.12,.06,.18,.1,.05,.02,.09,.05,.14,.07,.16,.08,.32,.17,.49,.26,.05,.03,.11,.06,.16,.09,0,0,.02,0,.02,.01,.03,.01,.06,.03,.09,.05,0,0,0,0,0,0,.24,.13,.49,.26,.73,.4,.12,.07,.25,.14,.37,.2,.25,.14,.49,.28,.74,.41,.22,.13,.45,.26,.67,.38,.15,.09,.31,.18,.46,.27,.25,.14,.49,.29,.73,.44,.31,.19,.62,.37,.92,.56,.24,.15,.48,.3,.71,.45,.12,.07,.23,.15,.35,.23,.25,.16,.5,.32,.75,.49,.64,.42,1.27,.85,1.9,1.29,.2,.14,.39,.28,.59,.42,.01,0,.02,.02,.04,.02,.05,.03,.09,.06,.14,.1h0s.09,.06,.13,.1c.02,.01,.04,.03,.06,.04,.16,.11,.32,.23,.48,.35,.22,.16,.45,.33,.67,.5,.23,.17,.45,.34,.68,.51,.26,.2,.52,.4,.77,.6,.05,.04,.1,.08,.14,.11,.13,.1,.25,.2,.38,.3,.1,.08,.2,.16,.3,.24,.24,.19,.47,.38,.71,.58,.25,.21,.5,.42,.75,.63,.19,.16,.38,.32,.57,.48,.31,.26,.61,.53,.92,.8,.25,.22,.49,.44,.73,.66,.18,.16,.36,.33,.54,.49,.16,.14,.32,.29,.48,.44,.35,.32,.69,.65,1.03,.98,.27,.26,.53,.52,.8,.79,.26,.26,.53,.53,.79,.8,.33,.34,.66,.68,.99,1.03,.15,.16,.3,.32,.44,.48,.17,.18,.33,.35,.49,.54,.22,.24,.44,.49,.66,.73,.27,.3,.54,.61,.8,.92,.16,.19,.32,.38,.48,.57,.21,.25,.42,.5,.63,.75,.2,.24,.39,.47,.58,.71,.08,.1,.16,.2,.24,.3,.1,.13,.2,.25,.3,.38,.04,.05,.07,.1,.11,.14,.2,.26,.4,.52,.6,.77,.17,.22,.34,.45,.51,.68,.17,.22,.33,.45,.5,.67,.12,.16,.23,.32,.35,.48,.02,.02,.03,.04,.04,.06,.04,.04,.07,.09,.1,.13h0s.07,.09,.1,.14c0,.01,.02,.02,.02,.04,.14,.19,.28,.39,.42,.59,.44,.62,.87,1.26,1.29,1.9,.16,.25,.33,.5,.49,.75,.08,.12,.15,.23,.23,.35,.15,.23,.3,.47,.45,.71,.19,.3,.38,.61,.56,.92,.15,.24,.29,.49,.44,.73,.09,.15,.18,.31,.27,.46,.13,.22,.26,.44,.38,.67,.14,.25,.28,.49,.41,.74,.07,.12,.14,.25,.2,.37,.13,.24,.27,.49,.4,.73,0,0,0,0,0,0,.02,.03,.03,.06,.05,.09,0,0,0,.02,.01,.02,.03,.05,.06,.11,.09,.16,.09,.16,.17,.32,.26,.49,.02,.05,.05,.09,.07,.14,.04,.06,.07,.12,.1,.18,.13,.25,.26,.5,.38,.75,.01,.02,.02,.04,.03,.05,.02,.04,.04,.08,.06,.12,.14,.28,.28,.56,.42,.85,.02,.04,.04,.08,.06,.12,.15,.31,.3,.63,.45,.94,.12,.26,.24,.51,.36,.77,.06,.12,.11,.25,.17,.37,.13,.28,.25,.56,.37,.84s.24,.56,.36,.85c.04,.11,.09,.21,.13,.32,.1,.24,.2,.48,.3,.73,.22,.54,.44,1.09,.65,1.64,.02,.04,.03,.08,.05,.13,.06,.15,.12,.31,.17,.46,.08,.22,.16,.44,.24,.65,.12,.32,.23,.65,.35,.97,.11,.31,.22,.62,.32,.94,.02,.04,.03,.09,.05,.14,.1,.29,.19,.59,.29,.88,0,0,0,0,0,0,.1,.32,.21,.65,.31,.98,.1,.32,.19,.64,.29,.95,.02,.05,.03,.11,.05,.16,.07,.25,.14,.5,.22,.76,.03,.1,.06,.21,.09,.32,.06,.22,.12,.44,.18,.66,.07,.25,.13,.49,.19,.74,.07,.26,.13,.52,.2,.78,.07,.28,.14,.57,.21,.86,.05,.22,.11,.45,.16,.67,.01,.05,.02,.1,.03,.14,.05,.2,.09,.4,.13,.6,0,0,0,.02,0,.03,.06,.28,.12,.57,.18,.86,0,.02,0,.03,.01,.05,0,0,0,0,0,0,.05,.25,.1,.49,.14,.73,0,.03,.01,.06,.02,.09,.02,.12,.05,.24,.07,.37,.05,.23,.09,.47,.13,.71,.01,.05,.02,.1,.03,.15,.05,.27,.1,.54,.14,.81,.01,.05,.02,.11,.03,.17,.03,.19,.06,.37,.09,.56,.01,.05,.02,.1,.02,.15,.04,.26,.08,.52,.12,.78,.01,.07,.02,.15,.03,.23,0,.04,.01,.08,.02,.13,.04,.29,.08,.57,.12,.86,.04,.28,.07,.57,.11,.86,0,.05,.01,.1,.02,.14,.03,.21,.05,.42,.07,.63,.02,.21,.05,.42,.07,.63v.07c.01,.06,.02,.12,.02,.18,.03,.27,.05,.55,.08,.82,.03,.3,.05,.61,.08,.91,.03,.36,.05,.71,.08,1.07,.01,.19,.02,.38,.04,.57,0,.05,0,.11,0,.16,.01,.16,.02,.31,.03,.47,.02,.35,.03,.7,.05,1.05,.01,.35,.02,.7,.03,1.05v.35c.02,.58,.03,1.17,.03,1.76Z"/>
          <path class="cls-1" d="M653.85,255.04c-.28,.12-.56,.24-.85,.36-.11,.04-.21,.09-.32,.13-.24,.1-.48,.2-.73,.3-.54,.22-1.09,.44-1.64,.65-.04,.02-.08,.03-.13,.05-.15,.06-.31,.12-.46,.17-.22,.08-.44,.16-.65,.24-.32,.12-.65,.23-.97,.35-.31,.11-.62,.22-.94,.32-.04,.02-.09,.03-.14,.05-.29,.1-.59,.19-.88,.29,0,0,0,0,0,0-.32,.1-.65,.21-.98,.31-.32,.1-.64,.19-.95,.29-.05,.02-.11,.03-.16,.05-.25,.07-.5,.14-.76,.22-.1,.03-.21,.06-.32,.09-.22,.06-.44,.12-.66,.18-.25,.07-.49,.13-.74,.19-.26,.07-.52,.13-.78,.2-.28,.07-.57,.14-.86,.21-.22,.05-.45,.11-.67,.16-.05,.01-.1,.02-.14,.03-.2,.05-.4,.09-.6,.13,0,0-.02,0-.03,0-.28,.06-.57,.12-.86,.18-.02,0-.03,0-.05,.01t0,0c-.25,.05-.49,.1-.73,.14-.03,0-.06,.01-.09,.02-.12,.02-.24,.05-.37,.07-.23,.05-.47,.09-.71,.13-.05,.01-.1,.02-.15,.03-.27,.05-.54,.1-.81,.14-.05,.01-.11,.02-.17,.03-.19,.03-.37,.06-.56,.09-.05,.01-.1,.02-.15,.02-.26,.04-.52,.08-.78,.12-.07,.01-.15,.02-.23,.03-.04,0-.08,.01-.13,.02-.29,.04-.57,.08-.86,.12-.28,.04-.57,.07-.86,.11-.05,0-.1,.01-.14,.02-.21,.03-.42,.05-.63,.07-.21,.02-.42,.05-.63,.07h-.07c-.06,.01-.12,.02-.18,.02-.27,.03-.55,.05-.82,.08-.3,.03-.61,.05-.91,.08-.36,.03-.71,.05-1.07,.08-.19,.01-.38,.02-.57,.04-.05,0-.11,0-.16,0-.16,.01-.31,.02-.47,.03-.35,.02-.7,.03-1.05,.05-.35,.01-.7,.02-1.05,.03h-.35c-.58,.02-1.17,.03-1.76,.03s-1.18,0-1.76-.02h-.35c-.35-.02-.7-.03-1.05-.04-.35-.01-.7-.03-1.05-.05-.16,0-.31-.02-.47-.03-.05,0-.11,0-.16,0-.19-.01-.38-.02-.57-.04-.36-.02-.71-.05-1.07-.08-.31-.02-.61-.05-.91-.08-.28-.02-.55-.05-.82-.08-.06,0-.12-.01-.18-.02h-.07c-.21-.03-.42-.05-.63-.08-.21-.02-.42-.05-.63-.07-.05,0-.1-.01-.14-.02-.29-.03-.58-.07-.86-.11-.29-.04-.57-.08-.86-.12-.04,0-.08-.01-.13-.02-.08,0-.15-.02-.23-.03-.26-.04-.52-.08-.78-.12-.05,0-.1-.01-.15-.02-.19-.03-.37-.06-.56-.09-.06,0-.11-.02-.17-.03-.27-.04-.54-.09-.81-.14-.05,0-.1-.02-.15-.03-.24-.04-.47-.08-.71-.13-.12-.02-.25-.04-.37-.07-.03,0-.06-.01-.09-.02-.25-.05-.49-.1-.73-.14,0,0,0,0,0,0-.02,0-.03,0-.05-.01-.29-.06-.57-.12-.86-.18,0,0-.02,0-.03,0-.2-.04-.4-.08-.6-.13-.05-.01-.1-.02-.14-.03-.23-.05-.45-.1-.67-.16-.29-.07-.58-.14-.86-.21-.26-.06-.52-.13-.78-.2-.25-.06-.5-.13-.74-.19-.22-.06-.44-.12-.66-.18-.11-.03-.21-.06-.32-.09-.25-.07-.5-.14-.76-.22-.05-.02-.11-.03-.16-.05-.32-.09-.64-.19-.95-.29-.33-.1-.66-.2-.98-.31,0,0,0,0,0,0-.3-.1-.59-.19-.88-.29-.05-.02-.09-.03-.14-.05-.31-.11-.63-.21-.94-.32-.32-.11-.65-.23-.97-.35-.22-.08-.44-.16-.65-.24-.15-.05-.31-.11-.46-.17-.04-.02-.08-.03-.13-.05-.55-.21-1.1-.43-1.64-.65-.24-.1-.49-.2-.73-.3-.11-.04-.22-.09-.32-.13-.28-.12-.56-.24-.85-.36s-.56-.25-.84-.37c-.12-.06-.25-.11-.37-.17-.26-.12-.52-.24-.77-.36-.32-.15-.63-.3-.94-.45-.04-.02-.08-.04-.12-.06-.28-.14-.56-.28-.85-.42-.04-.02-.08-.04-.12-.06-.02,0-.04-.02-.05-.03-.25-.13-.5-.25-.75-.38-.06-.03-.12-.06-.18-.1-.05-.02-.09-.05-.14-.07-.16-.08-.32-.17-.49-.26-.05-.03-.11-.06-.16-.09,0,0-.02,0-.02-.01-.03-.01-.06-.03-.09-.05,0,0,0,0,0,0-.24-.13-.49-.26-.73-.4-.12-.07-.25-.14-.37-.2-.25-.14-.49-.28-.74-.41-.22-.13-.45-.26-.67-.38-.15-.09-.31-.18-.46-.27-.25-.14-.49-.29-.73-.44-.31-.19-.62-.37-.92-.56-.24-.15-.48-.3-.71-.45-.12-.07-.23-.15-.35-.23-.25-.16-.5-.32-.75-.49-.64-.42-1.27-.85-1.9-1.29-.2-.14-.39-.28-.59-.42-.01,0-.02-.02-.04-.02-.05-.03-.09-.06-.14-.1h0s-.09-.06-.13-.1c-.02-.01-.04-.03-.06-.04-.16-.11-.32-.23-.48-.35-.22-.16-.45-.33-.67-.5-.23-.17-.45-.34-.68-.51-.26-.2-.52-.4-.77-.6-.05-.04-.1-.08-.14-.11-.13-.1-.25-.2-.38-.3-.1-.08-.2-.16-.3-.24-.24-.19-.47-.38-.71-.58-.25-.21-.5-.42-.75-.63-.19-.16-.38-.32-.57-.48-.31-.26-.61-.53-.92-.8-.25-.22-.49-.44-.73-.66-.18-.16-.36-.33-.54-.49-.16-.14-.32-.29-.48-.44-.35-.32-.69-.65-1.03-.98-.27-.26-.53-.52-.8-.79-.26-.26-.53-.53-.79-.8-.33-.34-.66-.68-.99-1.03-.15-.16-.3-.32-.44-.48-.17-.18-.33-.35-.49-.54-.22-.24-.44-.49-.66-.73-.27-.3-.54-.61-.8-.92-.16-.19-.32-.38-.48-.57-.21-.25-.42-.5-.63-.75-.2-.24-.39-.47-.58-.71-.08-.1-.16-.2-.24-.3-.1-.13-.2-.25-.3-.38-.04-.05-.07-.1-.11-.14-.2-.26-.4-.52-.6-.77-.17-.22-.34-.45-.51-.68-.17-.22-.33-.45-.5-.67-.12-.16-.23-.32-.35-.48-.02-.02-.03-.04-.04-.06-.04-.04-.07-.09-.1-.13h0s-.07-.09-.1-.14c0-.01-.02-.02-.02-.04-.14-.19-.28-.39-.42-.59-.44-.62-.87-1.26-1.29-1.9-.16-.25-.33-.5-.49-.75-.08-.12-.15-.23-.23-.35-.15-.23-.3-.47-.45-.71-.19-.3-.38-.61-.56-.92-.15-.24-.29-.49-.44-.73-.09-.15-.18-.31-.27-.46-.13-.22-.26-.44-.38-.67-.14-.25-.28-.49-.41-.74-.07-.12-.14-.25-.2-.37-.13-.24-.27-.49-.4-.73,0,0,0,0,0,0-.02-.03-.03-.06-.05-.09,0,0,0-.02-.01-.02-.03-.05-.06-.11-.09-.16-.09-.16-.17-.32-.26-.49-.02-.05-.05-.09-.07-.14-.04-.06-.07-.12-.1-.18-.13-.25-.26-.5-.38-.75-.01-.02-.02-.04-.03-.05-.02-.04-.04-.08-.06-.12-.14-.28-.28-.56-.42-.85-.02-.04-.04-.08-.06-.12-.15-.31-.3-.63-.45-.94-.12-.26-.24-.51-.36-.77-.06-.12-.11-.25-.17-.37-.13-.28-.25-.56-.37-.84-.12-.28-.24-.56-.36-.85-.04-.11-.09-.21-.13-.32-.1-.24-.2-.48-.3-.73-.22-.54-.44-1.09-.65-1.64-.02-.04-.03-.08-.05-.13-.06-.15-.12-.31-.17-.46-.08-.22-.16-.44-.24-.65-.12-.32-.23-.65-.35-.97-.11-.31-.22-.62-.32-.94-.02-.04-.03-.09-.05-.14-.1-.29-.19-.59-.29-.88,0,0,0,0,0,0-.1-.32-.21-.65-.31-.98-.1-.32-.19-.64-.29-.95-.02-.05-.03-.11-.05-.16-.07-.25-.14-.5-.22-.76-.03-.1-.06-.21-.09-.32-.06-.22-.12-.44-.18-.66-.07-.25-.13-.49-.19-.74-.07-.26-.13-.52-.2-.78-.07-.28-.14-.57-.21-.86-.05-.22-.11-.45-.16-.67-.01-.05-.02-.1-.03-.14-.05-.2-.09-.4-.13-.6,0,0,0-.02,0-.03-.06-.28-.12-.57-.18-.86,0-.02,0-.03-.01-.05h0c-.05-.25-.1-.49-.15-.74,0-.03-.01-.06-.02-.09-.02-.12-.05-.24-.07-.37-.05-.23-.09-.47-.13-.71-.01-.05-.02-.1-.03-.15-.05-.27-.1-.54-.14-.81-.01-.05-.02-.11-.03-.17-.03-.19-.06-.37-.09-.56-.01-.05-.02-.1-.02-.15-.04-.26-.08-.52-.12-.78-.01-.07-.02-.15-.03-.23,0-.04-.01-.08-.02-.13-.04-.29-.08-.57-.12-.86-.04-.28-.07-.57-.11-.86,0-.05-.01-.1-.02-.14-.03-.21-.05-.42-.07-.63-.02-.21-.05-.42-.07-.63,0-.02,0-.04,0-.07,0-.06-.01-.12-.02-.18-.03-.27-.05-.55-.08-.82-.03-.3-.05-.61-.08-.91-.03-.36-.05-.71-.08-1.07-.01-.19-.02-.38-.04-.57,0-.05,0-.11,0-.16-.01-.16-.02-.31-.03-.47-.02-.35-.03-.7-.05-1.05-.01-.35-.02-.7-.03-1.05v-.35c-.02-.58-.03-1.17-.03-1.76s0-1.18,.02-1.76v-.35c.02-.35,.03-.7,.04-1.05,.01-.35,.03-.7,.05-1.05,0-.16,.02-.31,.03-.47,0-.05,0-.11,0-.16,.01-.19,.02-.38,.04-.57,.02-.36,.05-.71,.08-1.07,.02-.31,.05-.61,.08-.91,.02-.28,.05-.55,.08-.82,0-.06,.01-.12,.02-.18v-.07c.03-.21,.05-.42,.08-.63,.02-.21,.05-.42,.07-.63,0-.05,.01-.1,.02-.14,.03-.29,.07-.58,.11-.86,.04-.29,.08-.57,.12-.86,0-.04,.01-.08,.02-.13,0-.08,.02-.15,.03-.23,.04-.26,.08-.52,.12-.78,0-.05,.01-.1,.02-.15,.03-.19,.06-.37,.09-.56,0-.06,.02-.11,.03-.17,.04-.27,.09-.54,.14-.81,0-.05,.02-.1,.03-.15,.04-.24,.08-.47,.13-.71,.02-.12,.04-.25,.07-.37,0-.03,.01-.06,.02-.09,.05-.25,.1-.49,.15-.73h0s0-.04,.01-.06c.06-.29,.12-.57,.18-.86,0,0,0-.02,0-.03,.04-.2,.08-.4,.13-.6,.01-.05,.02-.1,.03-.14,.05-.23,.1-.45,.16-.67,.07-.29,.14-.58,.21-.86,.06-.26,.13-.52,.2-.78,.06-.25,.13-.5,.19-.74,.06-.22,.12-.44,.18-.66,.03-.11,.06-.21,.09-.32,.07-.25,.14-.5,.22-.76,.02-.05,.03-.11,.05-.16,.09-.32,.19-.64,.29-.95,.1-.33,.2-.66,.31-.98,0,0,0,0,0,0,.1-.3,.19-.59,.29-.88,.02-.05,.03-.09,.05-.14,.11-.31,.21-.63,.32-.94,.11-.32,.23-.65,.35-.97,.08-.22,.16-.44,.24-.65,.05-.15,.11-.31,.17-.46,.02-.04,.03-.08,.05-.13,.21-.55,.42-1.1,.65-1.64,.1-.24,.2-.49,.3-.73,.04-.11,.09-.22,.13-.32,.12-.28,.24-.56,.36-.85s.25-.56,.37-.84c.06-.12,.11-.25,.17-.37,.12-.26,.24-.52,.36-.77,.15-.32,.3-.63,.45-.94,.02-.04,.04-.08,.06-.12,.14-.28,.28-.56,.42-.85,.02-.04,.04-.08,.06-.12,0-.02,.02-.04,.03-.05,.13-.25,.25-.5,.38-.75,.03-.06,.06-.12,.1-.18,.02-.05,.05-.09,.07-.14,.08-.16,.17-.32,.26-.49,.03-.05,.06-.11,.09-.16,0,0,0-.02,.01-.02,.01-.03,.03-.06,.05-.09,0,0,0,0,0,0,.13-.24,.26-.49,.4-.73,.07-.12,.14-.25,.2-.37,.14-.25,.28-.49,.41-.74,.13-.22,.26-.45,.38-.67,.09-.15,.18-.31,.27-.46,.14-.25,.29-.49,.44-.73,.19-.31,.37-.62,.56-.92,.15-.24,.3-.48,.45-.71,.07-.12,.15-.23,.23-.35,.16-.25,.32-.5,.49-.75,.42-.64,.85-1.27,1.29-1.9,.14-.2,.28-.39,.42-.59,0-.01,.02-.02,.02-.04,.03-.05,.06-.09,.1-.14h0c.33,0,.65-.01,.98-.01,8.95,0,17.32,2.46,24.48,6.75,2.98,1.78,9.41,5.19,10,4.68v.03c-.14,.12-.27,.23-.41,.35-.1,.09-.2,.17-.3,.26-.34,.3-.67,.61-1,.92-.17,.16-.34,.32-.51,.49-.17,.16-.34,.33-.51,.5s-.34,.34-.5,.51c-.17,.17-.33,.34-.49,.51-.12,.13-.25,.26-.37,.39-.12,.13-.24,.26-.36,.4-.12,.13-.24,.26-.36,.4-.11,.13-.22,.25-.33,.38-.05,.06-.1,.12-.15,.17-.07,.08-.14,.17-.22,.26-.23,.27-.45,.54-.67,.81-.23,.28-.46,.57-.67,.86-.11,.14-.22,.28-.32,.43-.22,.29-.43,.58-.64,.87-.09,.12-.17,.24-.26,.36-.16,.22-.31,.45-.47,.68-.13,.2-.27,.4-.4,.59-.13,.2-.26,.4-.38,.59-.1,.15-.19,.3-.29,.46-.19,.31-.38,.61-.56,.92-.09,.16-.18,.31-.27,.47-.09,.16-.18,.31-.27,.47-.17,.31-.35,.63-.52,.95-.17,.32-.34,.64-.49,.96-.08,.16-.16,.32-.24,.49-.32,.65-.62,1.31-.91,1.98-.07,.16-.14,.33-.21,.5-.08,.2-.16,.4-.24,.59-.06,.14-.11,.28-.16,.41-.2,.52-.4,1.04-.58,1.56-.06,.16-.11,.33-.17,.49-.06,.16-.11,.32-.16,.49-.04,.12-.08,.24-.12,.36-.06,.2-.13,.39-.18,.59-.12,.39-.23,.79-.34,1.19-.03,.12-.07,.24-.1,.35-.04,.13-.07,.25-.1,.38-.12,.46-.23,.94-.34,1.41-.03,.12-.05,.24-.08,.35-.04,.16-.07,.32-.1,.48-.02,.1-.04,.21-.06,.31-.04,.16-.07,.32-.1,.48-.04,.18-.07,.37-.1,.55-.03,.18-.06,.37-.09,.55-.12,.74-.23,1.48-.31,2.23-.02,.19-.04,.37-.06,.56-.02,.19-.04,.37-.05,.56-.02,.19-.04,.38-.05,.57-.01,.11-.02,.22-.02,.33-.01,.16-.02,.31-.03,.47-.01,.19-.02,.38-.03,.57,0,.14-.01,.27-.02,.41,0,.15-.01,.31-.02,.46,0,.04,0,.07,0,.11,0,.17-.01,.34-.01,.5h0s0,.07,0,.1c0,.14,0,.27,0,.41,0,.17,0,.34,0,.51s0,.34,0,.51c0,.14,0,.27,0,.4,0,.04,0,.07,0,.1,0,.17,0,.34,.01,.5,0,.04,0,.07,0,.11,0,.15,0,.31,.02,.46,0,.14,.01,.27,.02,.41,0,.19,.02,.38,.03,.57,0,.16,.02,.32,.03,.47,0,.11,.01,.22,.02,.33,.01,.19,.03,.38,.05,.57,.02,.19,.04,.38,.05,.56,.02,.19,.04,.38,.06,.56,.08,.75,.19,1.49,.31,2.23,.03,.18,.06,.37,.09,.55,.03,.18,.07,.37,.1,.55,.03,.16,.06,.32,.1,.48,.02,.1,.04,.21,.06,.31,.03,.16,.07,.32,.1,.48,.02,.12,.05,.24,.08,.35,.11,.47,.22,.94,.34,1.41,.03,.13,.07,.26,.1,.38,.03,.12,.06,.24,.1,.35,.11,.4,.22,.8,.34,1.19,.06,.2,.12,.4,.18,.59,.04,.12,.08,.24,.12,.36,.05,.16,.1,.32,.16,.49,.05,.16,.11,.33,.17,.49,.18,.52,.38,1.05,.58,1.56,.05,.14,.11,.28,.16,.41,.08,.2,.16,.4,.24,.59,.07,.17,.14,.33,.21,.5,.29,.67,.59,1.33,.91,1.98,.08,.16,.16,.32,.24,.49,.16,.32,.32,.64,.49,.96,.17,.32,.34,.64,.52,.95,.09,.16,.17,.31,.27,.47,.09,.16,.18,.31,.27,.47,.18,.31,.37,.62,.56,.92,.09,.16,.19,.31,.29,.46,.13,.2,.25,.4,.38,.59,.13,.2,.26,.4,.4,.59,.15,.23,.31,.45,.47,.68,.08,.12,.17,.24,.26,.36,.21,.29,.42,.58,.64,.87,.1,.14,.21,.28,.32,.43,.22,.29,.44,.58,.67,.86,.22,.27,.44,.54,.67,.81,.07,.08,.14,.17,.22,.26,.05,.06,.1,.12,.15,.17,.11,.13,.22,.26,.33,.38,.12,.13,.23,.27,.36,.4,.12,.13,.24,.26,.36,.4,.12,.13,.24,.26,.37,.39,.16,.17,.32,.34,.49,.51,.16,.17,.33,.34,.5,.51s.34,.34,.51,.5c.17,.17,.34,.33,.51,.49,.13,.12,.26,.25,.39,.37,.13,.12,.26,.24,.4,.36,.13,.12,.26,.24,.4,.36,.13,.11,.25,.22,.38,.33,.06,.05,.12,.1,.17,.15,.08,.07,.17,.14,.26,.22,.27,.23,.54,.45,.81,.67,.28,.23,.57,.46,.86,.67,.14,.11,.28,.22,.43,.32,.29,.22,.58,.43,.87,.64,.12,.09,.24,.17,.36,.26,.22,.16,.45,.31,.68,.47,.2,.13,.4,.27,.59,.4,.2,.13,.4,.26,.59,.38,.15,.1,.3,.19,.46,.29,.31,.19,.61,.38,.92,.56,.16,.09,.31,.18,.47,.27,.16,.09,.31,.18,.47,.27,.31,.17,.63,.35,.95,.52,.32,.17,.64,.34,.96,.49,.16,.08,.32,.16,.49,.24,.65,.32,1.31,.62,1.98,.91,.16,.07,.33,.14,.5,.21,.2,.08,.4,.16,.59,.24,.14,.06,.28,.11,.41,.16,.52,.2,1.04,.4,1.56,.58,.16,.06,.33,.11,.49,.17,.16,.06,.32,.11,.49,.16,.12,.04,.24,.08,.36,.12,.2,.06,.39,.13,.59,.18,.39,.12,.79,.23,1.19,.34,.12,.03,.24,.07,.35,.1,.13,.04,.25,.07,.38,.1,.46,.12,.94,.23,1.41,.34,.12,.03,.24,.05,.35,.08,.16,.04,.32,.07,.48,.1,.1,.02,.21,.04,.31,.06,.16,.04,.32,.07,.48,.1,.18,.04,.37,.07,.55,.1s.37,.06,.55,.09c.74,.12,1.48,.23,2.23,.31,.19,.02,.37,.04,.56,.06,.19,.02,.37,.04,.56,.05,.19,.02,.38,.04,.57,.05,.11,.01,.22,.02,.33,.02,.16,.01,.31,.02,.47,.03,.19,.01,.38,.02,.57,.03,.14,0,.27,.01,.41,.02,.15,0,.31,.01,.46,.02,.04,0,.07,0,.11,0,.17,0,.34,.01,.5,.01,0,0,0,0,0,.01,.33,.46,.67,.92,1.01,1.37,8.44,11.24,19.71,20.23,32.74,25.93Z"/>
        </g>
      </g>
    </g>
  </g>
</svg>