<?xml version="1.0" encoding="UTF-8"?>
<svg id="Layer_2" data-name="Layer 2" xmlns="http://www.w3.org/2000/svg" viewBox="0 0 700 700">
  <defs>
    <style>
      .cls-1 {
        fill: #fff;
      }

      .cls-2 {
        fill: none;
      }
    </style>
  </defs>
  <g id="Logo_-_Bold_Dark" data-name="Logo - Bold Dark">
    <g>
      <g id="Logo">
        <path class="cls-1" d="M650,350c0,2.16-.02,4.31-.07,6.45l-.03,1.29c-.03,1.29-.07,2.57-.12,3.86-.05,1.28-.11,2.56-.17,3.84-.03,.58-.06,1.15-.1,1.73-.01,.19-.02,.39-.03,.58-.04,.7-.08,1.39-.13,2.09-.08,1.31-.18,2.62-.28,3.93-.09,1.12-.18,2.23-.28,3.34-.09,1.01-.18,2.02-.29,3.02-.02,.22-.04,.44-.06,.66-.01,.08-.02,.16-.03,.24-.08,.77-.16,1.54-.25,2.31-.08,.78-.17,1.55-.27,2.32-.02,.17-.04,.35-.06,.52-.12,1.06-.25,2.11-.39,3.15-.13,1.05-.28,2.1-.43,3.15-.02,.16-.05,.31-.07,.47-.03,.28-.07,.56-.12,.83-.13,.95-.28,1.91-.43,2.86-.03,.18-.05,.36-.09,.54-.1,.68-.21,1.37-.33,2.05-.03,.21-.06,.41-.1,.61-.16,1-.33,1.99-.51,2.97-.03,.19-.06,.38-.1,.56-.15,.87-.31,1.74-.48,2.6-.08,.45-.16,.9-.25,1.34-.02,.11-.04,.23-.07,.34-.17,.9-.35,1.79-.53,2.69t-.01,.02c-.01,.06-.02,.12-.04,.18-.21,1.05-.43,2.1-.66,3.14-.01,.03-.01,.07-.02,.1-.15,.74-.31,1.47-.48,2.19-.04,.18-.08,.35-.12,.53-.18,.83-.37,1.65-.57,2.47-.24,1.06-.5,2.11-.76,3.15-.23,.95-.47,1.9-.72,2.85-.23,.91-.47,1.82-.71,2.72-.22,.81-.44,1.61-.66,2.41-.1,.39-.21,.78-.32,1.16-.26,.93-.52,1.85-.79,2.77-.06,.2-.11,.4-.18,.6-.34,1.16-.69,2.33-1.05,3.49-.36,1.2-.74,2.41-1.12,3.6,0,.02-.01,.03-.01,.03-.35,1.09-.71,2.16-1.06,3.24-.06,.17-.11,.34-.17,.5-.39,1.15-.78,2.3-1.18,3.44-.42,1.19-.84,2.38-1.27,3.57-.29,.8-.59,1.6-.89,2.4-.2,.56-.41,1.12-.63,1.68-.06,.16-.12,.31-.18,.47-.77,2.02-1.56,4.02-2.37,6.01-.36,.89-.72,1.78-1.1,2.66-.16,.4-.33,.79-.49,1.18-.44,1.04-.88,2.07-1.33,3.1-.45,1.03-.9,2.05-1.36,3.07-.21,.45-.41,.9-.62,1.35-.43,.95-.87,1.89-1.31,2.83-.54,1.16-1.09,2.31-1.65,3.46-.07,.16-.14,.31-.22,.45-.5,1.04-1.01,2.07-1.53,3.1-.07,.16-.15,.31-.23,.45-.03,.06-.06,.13-.1,.19-.46,.92-.92,1.84-1.4,2.75-.11,.23-.22,.45-.35,.66-.09,.17-.17,.34-.26,.51-.31,.6-.62,1.19-.95,1.79-.1,.2-.21,.4-.32,.6-.01,.03-.03,.06-.04,.09-.05,.11-.11,.22-.17,.32-.01,.01-.01,.02-.02,.03-.47,.89-.96,1.78-1.45,2.67-.25,.45-.5,.91-.75,1.36-.5,.9-1.01,1.8-1.52,2.7-.47,.82-.94,1.64-1.41,2.45-.33,.56-.66,1.12-.99,1.68-.53,.9-1.07,1.8-1.61,2.69-.68,1.13-1.37,2.26-2.07,3.37-.55,.88-1.09,1.75-1.65,2.61-.27,.43-.55,.86-.83,1.29-.59,.92-1.19,1.84-1.79,2.75-1.54,2.34-3.12,4.66-4.74,6.95-.5,.72-1.01,1.44-1.53,2.15-.03,.04-.06,.09-.09,.13-.11,.17-.23,.34-.36,.51h-.01c-1.24,.03-2.47,.04-3.71,.04-32.8,0-63.49-9.02-89.73-24.73-10.92-6.53-34.49-19.02-36.66-17.16,2.17-1.86,4.31-3.78,6.39-5.74,.63-.59,1.26-1.19,1.88-1.8,.62-.6,1.24-1.21,1.86-1.83s1.23-1.24,1.83-1.86c.61-.62,1.21-1.25,1.8-1.88,.45-.48,.9-.96,1.34-1.44,.45-.48,.89-.96,1.32-1.45,.45-.48,.88-.97,1.31-1.46,.41-.46,.82-.93,1.22-1.4,.18-.21,.37-.43,.55-.64,.26-.31,.53-.63,.79-.94,.84-.99,1.66-1.98,2.46-2.98,.84-1.04,1.67-2.09,2.47-3.15,.41-.52,.81-1.04,1.19-1.56,.8-1.05,1.57-2.11,2.33-3.18,.32-.44,.63-.88,.94-1.32,.58-.82,1.15-1.65,1.71-2.48,.49-.72,.98-1.45,1.45-2.18,.48-.72,.95-1.45,1.41-2.18,.36-.55,.71-1.11,1.05-1.68,.7-1.12,1.38-2.24,2.04-3.38,.34-.57,.67-1.14,.99-1.71,.34-.57,.66-1.15,.98-1.72,.64-1.15,1.28-2.31,1.89-3.48,.62-1.17,1.23-2.35,1.81-3.53,.3-.59,.6-1.19,.88-1.78,1.16-2.39,2.27-4.8,3.32-7.25,.26-.6,.52-1.21,.77-1.82,.31-.72,.6-1.45,.89-2.18,.21-.51,.41-1.01,.6-1.52,.74-1.9,1.45-3.81,2.12-5.73,.22-.6,.42-1.2,.62-1.8,.21-.59,.4-1.19,.59-1.78,.15-.44,.29-.88,.43-1.32,.23-.72,.46-1.44,.67-2.17,.44-1.44,.86-2.9,1.26-4.36,.12-.43,.24-.87,.35-1.3,.13-.46,.25-.93,.37-1.4,.44-1.7,.85-3.43,1.24-5.16,.1-.43,.2-.87,.29-1.3,.13-.59,.26-1.18,.37-1.77,.09-.38,.16-.77,.23-1.15,.13-.59,.24-1.18,.35-1.77,.13-.67,.25-1.35,.37-2.02,.12-.67,.23-1.35,.34-2.02,.45-2.7,.83-5.42,1.14-8.16,.08-.68,.16-1.37,.23-2.06,.07-.68,.14-1.37,.2-2.06,.07-.69,.13-1.38,.18-2.08,.04-.4,.07-.8,.09-1.21,.05-.57,.09-1.15,.12-1.73,.05-.7,.09-1.4,.12-2.1,.03-.5,.05-1,.07-1.5,.03-.56,.05-1.12,.06-1.68,0-.13,0-.26,.02-.39,.03-.61,.04-1.23,.05-1.85,0-.13,.01-.25,.01-.38,.01-.49,.02-.98,.02-1.48,.01-.62,.01-1.24,.01-1.86s0-1.24-.01-1.86c0-.5-.01-1-.02-1.5,0-.12-.01-.23-.01-.35h0c-.01-.63-.02-1.25-.05-1.86-.01-.13-.01-.26-.02-.39-.01-.56-.03-1.12-.06-1.68-.02-.5-.04-1-.07-1.5-.03-.7-.07-1.4-.12-2.1-.03-.58-.07-1.16-.12-1.73-.02-.41-.05-.81-.09-1.21-.05-.7-.11-1.39-.18-2.08-.06-.69-.13-1.38-.2-2.06-.07-.69-.15-1.38-.23-2.06-.31-2.74-.69-5.46-1.14-8.16-.11-.67-.22-1.35-.34-2.02-.12-.67-.24-1.35-.37-2.02-.11-.59-.22-1.18-.35-1.77-.07-.38-.14-.77-.23-1.15-.11-.59-.24-1.18-.37-1.77-.09-.43-.19-.87-.29-1.3-.39-1.73-.8-3.46-1.24-5.16-.12-.47-.24-.94-.37-1.4-.11-.43-.23-.87-.35-1.3-.4-1.46-.82-2.92-1.26-4.36-.21-.73-.44-1.45-.67-2.17-.14-.44-.28-.88-.43-1.32-.19-.59-.38-1.19-.59-1.78-.2-.6-.4-1.2-.62-1.8-.67-1.92-1.38-3.83-2.12-5.73-.19-.51-.39-1.01-.6-1.52-.29-.73-.58-1.46-.89-2.18-.25-.61-.51-1.22-.77-1.82-1.05-2.45-2.16-4.86-3.32-7.25-.28-.59-.58-1.19-.88-1.78-.58-1.18-1.19-2.36-1.81-3.53-.61-1.17-1.25-2.33-1.89-3.48-.32-.57-.64-1.15-.98-1.72-.32-.57-.65-1.14-.99-1.71-.66-1.14-1.34-2.26-2.04-3.38-.34-.57-.69-1.13-1.05-1.68-.46-.73-.93-1.46-1.41-2.18-.47-.73-.96-1.46-1.45-2.18-.56-.83-1.13-1.66-1.71-2.48-.31-.44-.62-.88-.94-1.32-.76-1.07-1.53-2.13-2.33-3.18-.38-.52-.78-1.04-1.19-1.56-.8-1.06-1.63-2.11-2.47-3.15-.8-1-1.62-1.99-2.46-2.98-.26-.31-.53-.63-.79-.94-.18-.21-.37-.43-.55-.64-.4-.47-.81-.94-1.22-1.4-.43-.49-.86-.98-1.31-1.46-.43-.49-.87-.97-1.32-1.45-.44-.48-.89-.96-1.34-1.44-.59-.63-1.19-1.26-1.8-1.88-.6-.62-1.21-1.24-1.83-1.86s-1.24-1.23-1.86-1.83c-.62-.61-1.25-1.21-1.88-1.8-.48-.45-.96-.9-1.44-1.34-.48-.45-.96-.89-1.45-1.32-.48-.45-.97-.88-1.46-1.31-.46-.41-.93-.82-1.4-1.22-.21-.18-.43-.37-.64-.55-.31-.26-.63-.53-.94-.79-.99-.84-1.98-1.66-2.98-2.46-1.04-.84-2.09-1.67-3.15-2.47-.52-.41-1.04-.81-1.56-1.19-1.05-.8-2.11-1.57-3.18-2.33-.44-.32-.88-.63-1.32-.94-.82-.58-1.65-1.15-2.48-1.71-.72-.49-1.45-.98-2.18-1.45-.72-.48-1.45-.95-2.18-1.41-.55-.36-1.11-.71-1.68-1.05-1.12-.7-2.24-1.38-3.38-2.04-.57-.34-1.14-.67-1.71-.99-.57-.34-1.15-.66-1.72-.98-1.15-.64-2.31-1.28-3.48-1.89-1.17-.62-2.35-1.23-3.53-1.81-.59-.3-1.19-.6-1.78-.88-2.39-1.16-4.8-2.27-7.25-3.32-.6-.26-1.21-.52-1.82-.77-.72-.31-1.45-.6-2.18-.89-.51-.21-1.01-.41-1.52-.6-1.9-.74-3.81-1.45-5.73-2.12-.6-.22-1.2-.42-1.8-.62-.59-.21-1.19-.4-1.78-.59-.44-.15-.88-.29-1.32-.43-.72-.23-1.44-.46-2.17-.67-1.44-.44-2.9-.86-4.36-1.26-.43-.12-.87-.24-1.3-.35-.46-.13-.93-.25-1.4-.37-1.7-.44-3.43-.85-5.16-1.24-.43-.1-.87-.2-1.3-.29-.59-.13-1.18-.26-1.77-.37-.38-.09-.77-.16-1.15-.23-.59-.13-1.18-.24-1.77-.35-.67-.13-1.35-.25-2.02-.37-.67-.12-1.35-.23-2.02-.34-2.7-.45-5.42-.83-8.16-1.14-.68-.08-1.37-.16-2.06-.23-.68-.07-1.37-.14-2.06-.2-.69-.07-1.38-.13-2.08-.18-.4-.04-.8-.07-1.21-.09-.57-.05-1.15-.09-1.73-.12-.7-.05-1.4-.09-2.1-.12-.5-.03-1-.05-1.5-.07h-.12c-.52-.03-1.04-.05-1.56-.06-.13-.01-.26-.01-.39-.02h-.12c-.61-.03-1.23-.04-1.85-.05-.01,0-.02-.03-.03-.04-1.21-1.69-2.44-3.36-3.69-5.02-30.92-41.17-72.19-74.11-119.94-94.99,.02-.01,.04-.02,.06-.03,1.03-.45,2.06-.89,3.1-1.33,.39-.16,.78-.33,1.18-.49,.88-.38,1.77-.74,2.66-1.1,1.99-.81,3.99-1.6,6.01-2.37,.16-.06,.31-.12,.47-.18,.56-.22,1.12-.43,1.68-.63,.8-.3,1.6-.6,2.4-.89,1.19-.43,2.38-.85,3.57-1.27,1.14-.4,2.29-.79,3.44-1.18,.16-.06,.33-.11,.5-.17,1.08-.35,2.15-.71,3.24-1.06,0,0,.01,0,.03,0,1.19-.38,2.4-.76,3.6-1.12,1.16-.36,2.33-.71,3.49-1.05,.2-.07,.4-.12,.6-.18,.92-.27,1.84-.53,2.77-.79,.38-.11,.77-.22,1.16-.32,.8-.22,1.6-.44,2.41-.66,.9-.24,1.81-.48,2.72-.71,.95-.25,1.9-.49,2.85-.72,1.04-.26,2.09-.52,3.15-.76,.82-.2,1.64-.39,2.47-.57,.18-.04,.35-.08,.53-.12,.72-.17,1.45-.33,2.19-.48,.03-.01,.07-.01,.1-.02,1.04-.23,2.09-.45,3.14-.66,.06-.02,.12-.03,.18-.04h.03c.9-.19,1.78-.37,2.68-.54,.11-.03,.23-.05,.34-.07,.44-.09,.89-.17,1.34-.25,.86-.17,1.73-.33,2.6-.48,.18-.04,.37-.07,.56-.1,.98-.18,1.97-.35,2.97-.51,.2-.04,.4-.07,.61-.1,.68-.12,1.37-.23,2.05-.33,.18-.04,.36-.06,.54-.09,.95-.15,1.91-.3,2.86-.43,.27-.05,.55-.09,.83-.12,.16-.02,.31-.05,.47-.07,1.05-.15,2.1-.3,3.15-.43,1.04-.14,2.09-.27,3.15-.39,.17-.02,.35-.04,.52-.06,.77-.1,1.54-.19,2.32-.27,.77-.09,1.54-.17,2.31-.25l.24-.03c.22-.02,.44-.04,.66-.06,1-.11,2.01-.2,3.02-.29,1.11-.1,2.22-.19,3.34-.28,1.31-.1,2.62-.2,3.93-.28,.7-.05,1.39-.09,2.09-.13,.19-.01,.39-.02,.58-.03,.58-.04,1.15-.07,1.73-.1,1.28-.06,2.56-.12,3.84-.17,1.29-.05,2.57-.09,3.86-.12,.43,0,.86-.02,1.29-.03,2.14-.05,4.29-.07,6.45-.07s4.31,.02,6.45,.07c.43,.01,.86,.02,1.29,.03,1.29,.03,2.57,.07,3.86,.12,1.28,.05,2.56,.11,3.84,.17,.58,.03,1.15,.06,1.73,.1,.19,.01,.39,.02,.58,.03,.7,.04,1.39,.08,2.09,.13,1.31,.08,2.62,.18,3.93,.28,1.12,.09,2.23,.18,3.34,.28,1.01,.09,2.02,.18,3.02,.29,.22,.02,.44,.04,.66,.06l.24,.03c.77,.08,1.54,.16,2.31,.25,.78,.08,1.55,.17,2.32,.27,.17,.02,.35,.04,.52,.06,1.06,.12,2.11,.25,3.15,.39,1.05,.13,2.1,.28,3.15,.43,.16,.02,.31,.05,.47,.07,.28,.03,.56,.07,.83,.12,.95,.13,1.91,.28,2.86,.43,.18,.03,.36,.05,.54,.09,.68,.1,1.37,.21,2.05,.33,.21,.03,.41,.06,.61,.1,1,.16,1.99,.33,2.97,.51,.19,.03,.38,.06,.56,.1,.87,.15,1.74,.31,2.6,.48,.45,.08,.9,.16,1.34,.25,.11,.02,.23,.04,.34,.07,.9,.17,1.79,.35,2.69,.54h.02c.06,.01,.12,.02,.18,.04,1.05,.21,2.1,.43,3.14,.66,.03,0,.07,0,.1,.02,.74,.15,1.47,.31,2.19,.48,.18,.04,.35,.08,.53,.12,.83,.18,1.65,.37,2.47,.57,1.06,.24,2.11,.5,3.15,.76,.95,.23,1.9,.47,2.85,.72,.91,.23,1.82,.47,2.72,.71,.81,.22,1.61,.44,2.41,.66,.39,.1,.78,.21,1.16,.32,.93,.26,1.85,.52,2.77,.79,.2,.06,.4,.11,.6,.18,1.16,.34,2.33,.69,3.49,1.05,1.2,.36,2.41,.74,3.6,1.12,.02,0,.03,0,.03,0,1.09,.35,2.16,.71,3.24,1.06,.17,.06,.34,.11,.5,.17,1.15,.39,2.3,.78,3.44,1.18,1.19,.42,2.38,.84,3.57,1.27,.8,.29,1.6,.59,2.4,.89,.56,.2,1.12,.41,1.68,.63,.16,.06,.31,.12,.47,.18,2.02,.76,4.02,1.55,6.01,2.37,.89,.36,1.78,.72,2.66,1.1,.4,.16,.79,.33,1.18,.49,1.04,.44,2.07,.88,3.1,1.33,1.03,.45,2.05,.9,3.07,1.36,.45,.21,.9,.41,1.35,.62,.95,.43,1.89,.87,2.83,1.31,1.16,.54,2.31,1.09,3.46,1.65,.16,.07,.31,.14,.45,.22,1.04,.5,2.07,1.01,3.1,1.53,.16,.07,.31,.15,.45,.23,.06,.03,.13,.06,.19,.1,.92,.46,1.84,.92,2.75,1.4,.23,.11,.45,.22,.66,.35,.17,.09,.34,.17,.51,.26,.6,.31,1.19,.62,1.79,.95,.2,.1,.4,.21,.6,.32,.03,.01,.06,.03,.09,.04,.1,.05,.21,.11,.32,.17,0,.01,.02,.01,.03,.02,.89,.47,1.78,.96,2.67,1.45,.45,.25,.91,.5,1.36,.75,.9,.5,1.8,1.01,2.7,1.52,.82,.47,1.64,.94,2.45,1.41,.56,.33,1.12,.66,1.68,.99,.9,.53,1.8,1.07,2.69,1.61,1.13,.68,2.26,1.37,3.37,2.07,.88,.55,1.75,1.09,2.61,1.65,.43,.27,.86,.55,1.29,.83,.92,.59,1.84,1.19,2.75,1.79,2.34,1.54,4.66,3.12,6.95,4.74,.72,.5,1.44,1.01,2.15,1.53,.04,.03,.09,.06,.13,.09,.17,.11,.34,.23,.51,.36h0c.16,.12,.33,.23,.49,.36,.08,.05,.15,.1,.23,.16,.59,.42,1.17,.84,1.75,1.28,.82,.6,1.64,1.21,2.46,1.82,.83,.62,1.66,1.25,2.48,1.88,.95,.73,1.9,1.47,2.84,2.21,.18,.14,.36,.28,.53,.41,.47,.37,.93,.74,1.39,1.11,.36,.29,.73,.58,1.09,.88,.88,.7,1.74,1.4,2.61,2.12,.92,.76,1.84,1.53,2.76,2.31,.7,.58,1.39,1.18,2.08,1.77,1.13,.97,2.25,1.95,3.36,2.94,.9,.8,1.79,1.6,2.68,2.41,.67,.59,1.32,1.2,1.97,1.81,.59,.53,1.17,1.08,1.75,1.63,1.27,1.19,2.53,2.39,3.78,3.61,.98,.95,1.96,1.91,2.92,2.88,.97,.96,1.93,1.94,2.88,2.92,1.22,1.25,2.42,2.51,3.61,3.78,.55,.58,1.1,1.16,1.63,1.75,.61,.65,1.22,1.3,1.81,1.97,.81,.89,1.61,1.78,2.41,2.68,.99,1.11,1.97,2.23,2.94,3.36,.59,.69,1.19,1.38,1.77,2.08,.78,.92,1.55,1.84,2.31,2.76,.72,.87,1.42,1.73,2.12,2.61,.3,.36,.59,.73,.88,1.09,.37,.46,.74,.92,1.11,1.39,.13,.17,.27,.35,.41,.53,.74,.94,1.48,1.89,2.21,2.84,.63,.82,1.26,1.65,1.88,2.48,.61,.82,1.22,1.64,1.82,2.46,.44,.58,.86,1.16,1.28,1.75,.06,.08,.11,.15,.16,.23,.13,.16,.24,.33,.35,.49h.01c.13,.17,.25,.34,.36,.51,.03,.04,.06,.09,.09,.13,.52,.71,1.03,1.43,1.53,2.15,1.62,2.29,3.2,4.61,4.74,6.95,.6,.91,1.2,1.83,1.79,2.75,.28,.43,.56,.86,.83,1.29,.56,.86,1.1,1.73,1.65,2.61,.7,1.11,1.39,2.24,2.07,3.37,.54,.89,1.08,1.79,1.61,2.69,.33,.56,.66,1.12,.99,1.68,.47,.81,.94,1.63,1.41,2.45,.51,.9,1.02,1.8,1.52,2.7,.25,.45,.5,.91,.75,1.36,.49,.89,.98,1.78,1.45,2.67,.01,.01,.01,.02,.02,.03,.06,.1,.12,.21,.17,.32,.01,.03,.03,.06,.04,.09,.11,.2,.22,.4,.32,.6,.33,.6,.64,1.19,.95,1.79,.09,.17,.17,.34,.26,.51,.13,.21,.24,.43,.35,.66,.48,.91,.94,1.83,1.4,2.75,.04,.06,.07,.13,.1,.19,.08,.14,.16,.29,.23,.45,.52,1.03,1.03,2.06,1.53,3.1,.08,.14,.15,.29,.22,.45,.56,1.15,1.11,2.3,1.65,3.46,.44,.94,.88,1.88,1.31,2.83,.21,.45,.41,.9,.62,1.35,.46,1.02,.91,2.04,1.36,3.07,.45,1.03,.89,2.06,1.33,3.1,.16,.39,.33,.78,.49,1.18,.38,.88,.74,1.77,1.1,2.66,.81,1.99,1.6,3.99,2.37,6.01,.06,.16,.12,.31,.18,.47,.22,.56,.43,1.12,.63,1.68,.3,.8,.6,1.6,.89,2.4,.43,1.19,.85,2.38,1.27,3.57,.4,1.14,.79,2.29,1.18,3.44,.06,.16,.11,.33,.17,.5,.35,1.08,.71,2.15,1.06,3.24,0,0,.01,.01,.01,.03,.38,1.19,.76,2.4,1.12,3.6,.36,1.16,.71,2.33,1.05,3.49,.07,.2,.12,.4,.18,.6,.27,.92,.53,1.84,.79,2.77,.11,.38,.22,.77,.32,1.16,.22,.8,.44,1.6,.66,2.41,.24,.9,.48,1.81,.71,2.72,.25,.95,.49,1.9,.72,2.85,.26,1.04,.52,2.09,.76,3.15,.2,.82,.39,1.64,.57,2.47,.04,.18,.08,.35,.12,.53,.17,.72,.33,1.45,.48,2.19,.01,.03,.01,.07,.02,.1,.23,1.04,.45,2.09,.66,3.14,.02,.06,.03,.12,.04,.18,0,.01,0,.02,.01,.03,.18,.9,.36,1.78,.53,2.68,.03,.11,.05,.23,.07,.34,.09,.44,.17,.89,.25,1.34,.17,.86,.33,1.73,.48,2.6,.04,.18,.07,.37,.1,.56,.18,.98,.35,1.97,.51,2.97,.04,.2,.07,.4,.1,.61,.12,.68,.23,1.37,.33,2.05,.04,.18,.06,.36,.09,.54,.15,.95,.3,1.91,.43,2.86,.05,.27,.09,.55,.12,.83,.02,.16,.05,.31,.07,.47,.15,1.05,.3,2.1,.43,3.15,.14,1.04,.27,2.09,.39,3.15,.02,.17,.04,.35,.06,.52,.1,.77,.19,1.54,.27,2.32,.09,.77,.17,1.54,.25,2.31l.03,.24c.02,.22,.04,.44,.06,.66,.11,1,.2,2.01,.29,3.02,.1,1.11,.19,2.22,.28,3.34,.1,1.31,.2,2.62,.28,3.93,.05,.7,.09,1.39,.13,2.09,.01,.19,.02,.39,.03,.58,.04,.58,.07,1.15,.1,1.73,.06,1.28,.12,2.56,.17,3.84,.05,1.29,.09,2.57,.12,3.86l.03,1.29c.05,2.14,.07,4.29,.07,6.45Z"/>
        <path class="cls-1" d="M470,625.04c-1.03,.45-2.06,.89-3.1,1.33-.39,.16-.78,.33-1.18,.49-.88,.38-1.77,.74-2.66,1.1-1.99,.82-3.99,1.61-6.01,2.37-.16,.06-.31,.12-.47,.18-.56,.22-1.12,.43-1.68,.63-.8,.3-1.6,.6-2.4,.89-1.19,.43-2.38,.85-3.57,1.27-1.14,.4-2.29,.79-3.44,1.18-.16,.06-.33,.11-.5,.17-1.08,.35-2.15,.71-3.24,1.06,0,0-.01,.01-.03,.01-1.19,.38-2.4,.76-3.6,1.12-1.16,.36-2.33,.71-3.49,1.05-.2,.07-.4,.12-.6,.18-.92,.27-1.84,.53-2.77,.79-.38,.11-.77,.22-1.16,.32-.8,.22-1.6,.44-2.41,.66-.9,.24-1.81,.48-2.72,.71-.95,.25-1.9,.49-2.85,.72-1.04,.26-2.09,.52-3.15,.76-.82,.2-1.64,.39-2.47,.57-.18,.04-.35,.08-.53,.12-.72,.17-1.45,.33-2.19,.48-.03,0-.07,0-.1,.02-1.04,.23-2.09,.45-3.14,.66-.06,.02-.12,.03-.18,.04t-.02,.01c-.9,.18-1.79,.36-2.69,.53-.11,.03-.23,.05-.34,.07-.44,.09-.89,.17-1.34,.25-.86,.17-1.73,.33-2.6,.48-.18,.04-.37,.07-.56,.1-.98,.18-1.97,.35-2.97,.51-.2,.04-.4,.07-.61,.1-.68,.12-1.37,.23-2.05,.33-.18,.04-.36,.06-.54,.09-.95,.15-1.91,.3-2.86,.43-.27,.05-.55,.09-.83,.12-.16,.02-.31,.05-.47,.07-1.05,.15-2.1,.3-3.15,.43-1.04,.14-2.09,.27-3.15,.39-.17,.02-.35,.04-.52,.06-.77,.1-1.54,.19-2.32,.27-.77,.09-1.54,.17-2.31,.25l-.24,.03c-.22,.02-.44,.04-.66,.06-1,.11-2.01,.2-3.02,.29-1.11,.1-2.22,.19-3.34,.28-1.31,.1-2.62,.2-3.93,.28-.7,.05-1.39,.09-2.09,.13-.19,.01-.39,.02-.58,.03-.58,.04-1.15,.07-1.73,.1-1.28,.06-2.56,.12-3.84,.17-1.29,.05-2.57,.09-3.86,.12l-1.29,.03c-2.14,.05-4.29,.07-6.45,.07s-4.31-.02-6.45-.07l-1.29-.03c-1.29-.03-2.57-.07-3.86-.12-1.28-.05-2.56-.11-3.84-.17-.58-.03-1.15-.06-1.73-.1-.19-.01-.39-.02-.58-.03-.7-.04-1.39-.08-2.09-.13-1.31-.08-2.62-.18-3.93-.28-1.12-.09-2.23-.18-3.34-.28-1.01-.09-2.02-.18-3.02-.29-.22-.02-.44-.04-.66-.06l-.24-.03c-.77-.08-1.54-.16-2.31-.25-.78-.08-1.55-.17-2.32-.27-.17-.02-.35-.04-.52-.06-1.06-.12-2.11-.25-3.15-.39-1.05-.13-2.1-.28-3.15-.43-.16-.02-.31-.05-.47-.07-.28-.03-.56-.07-.83-.12-.95-.13-1.91-.28-2.86-.43-.18-.03-.36-.05-.54-.09-.68-.1-1.37-.21-2.05-.33-.21-.03-.41-.06-.61-.1-1-.16-1.99-.33-2.97-.51-.19-.03-.38-.06-.56-.1-.87-.15-1.74-.31-2.6-.48-.45-.08-.9-.16-1.34-.25-.11-.02-.23-.04-.34-.07-.9-.17-1.78-.35-2.68-.53-.01-.01-.02-.01-.03-.01-.06-.01-.12-.02-.18-.04-1.05-.21-2.1-.43-3.14-.66-.03-.01-.07-.01-.1-.02-.74-.15-1.47-.31-2.19-.48-.18-.04-.35-.08-.53-.12-.83-.18-1.65-.37-2.47-.57-1.06-.24-2.11-.5-3.15-.76-.95-.23-1.9-.47-2.85-.72-.91-.23-1.82-.47-2.72-.71-.81-.22-1.61-.44-2.41-.66-.39-.1-.78-.21-1.16-.32-.93-.26-1.85-.52-2.77-.79-.2-.06-.4-.11-.6-.18-1.16-.34-2.33-.69-3.49-1.05-1.2-.36-2.41-.74-3.6-1.12-.02,0-.03-.01-.03-.01-1.09-.35-2.16-.71-3.24-1.06-.17-.06-.34-.11-.5-.17-1.15-.39-2.3-.78-3.44-1.18-1.19-.42-2.38-.84-3.57-1.27-.8-.29-1.6-.59-2.4-.89-.56-.2-1.12-.41-1.68-.63-.16-.06-.31-.12-.47-.18-2.02-.77-4.02-1.56-6.01-2.37-.89-.36-1.78-.72-2.66-1.1-.4-.16-.79-.33-1.18-.49-1.04-.44-2.07-.88-3.1-1.33s-2.05-.9-3.07-1.36c-.45-.21-.9-.41-1.35-.62-.95-.43-1.89-.87-2.83-1.31-1.16-.54-2.31-1.09-3.46-1.65-.16-.07-.31-.14-.45-.22-1.04-.5-2.07-1.01-3.1-1.53-.16-.07-.31-.15-.45-.23-.06-.03-.13-.06-.19-.1-.92-.46-1.84-.92-2.75-1.4-.23-.11-.45-.22-.66-.35-.17-.09-.34-.17-.51-.26-.6-.31-1.19-.62-1.79-.95-.2-.1-.4-.21-.6-.32-.03-.01-.06-.03-.09-.04-.11-.05-.22-.11-.32-.17,0-.01-.02-.01-.03-.02-.89-.47-1.78-.96-2.67-1.45-.45-.25-.91-.5-1.36-.75-.9-.5-1.8-1.01-2.7-1.52-.82-.47-1.64-.94-2.45-1.41-.56-.33-1.12-.66-1.68-.99-.9-.53-1.8-1.07-2.69-1.61-1.13-.68-2.26-1.37-3.37-2.07-.88-.55-1.75-1.09-2.61-1.65-.43-.27-.86-.55-1.29-.83-.92-.59-1.84-1.19-2.75-1.79-2.34-1.54-4.66-3.12-6.95-4.74-.72-.5-1.44-1.01-2.15-1.53-.04-.03-.09-.06-.13-.09-.17-.11-.34-.23-.51-.36h0c-.16-.12-.33-.23-.49-.36-.08-.05-.15-.1-.23-.16-.59-.42-1.17-.84-1.75-1.28-.82-.6-1.64-1.21-2.46-1.82-.83-.62-1.66-1.25-2.48-1.88-.95-.73-1.9-1.47-2.84-2.21-.18-.14-.36-.28-.53-.41-.47-.37-.93-.74-1.39-1.11-.36-.29-.73-.58-1.09-.88-.88-.7-1.74-1.4-2.61-2.12-.92-.76-1.84-1.53-2.76-2.31-.7-.58-1.39-1.18-2.08-1.77-1.13-.97-2.25-1.95-3.36-2.94-.9-.8-1.79-1.6-2.68-2.41-.67-.59-1.32-1.2-1.97-1.81-.59-.53-1.17-1.08-1.75-1.63-1.27-1.19-2.53-2.39-3.78-3.61-.98-.95-1.96-1.91-2.92-2.88-.97-.96-1.93-1.94-2.88-2.92-1.22-1.25-2.42-2.51-3.61-3.78-.55-.58-1.1-1.16-1.63-1.75-.61-.65-1.22-1.3-1.81-1.97-.81-.89-1.61-1.78-2.41-2.68-.99-1.11-1.97-2.23-2.94-3.36-.59-.69-1.19-1.38-1.77-2.08-.78-.92-1.55-1.84-2.31-2.76-.72-.87-1.42-1.73-2.12-2.61-.3-.36-.59-.73-.88-1.09-.37-.46-.74-.92-1.11-1.39-.13-.17-.27-.35-.41-.53-.74-.94-1.48-1.89-2.21-2.84-.63-.82-1.26-1.65-1.88-2.48-.61-.82-1.22-1.64-1.82-2.46-.44-.58-.86-1.16-1.28-1.75-.06-.08-.11-.15-.16-.23-.13-.16-.24-.33-.35-.49h-.01c-.13-.17-.25-.34-.36-.51-.03-.04-.06-.09-.09-.13-.52-.71-1.03-1.43-1.53-2.15-1.62-2.29-3.2-4.61-4.74-6.95-.6-.91-1.2-1.83-1.79-2.75-.28-.43-.56-.86-.83-1.29-.56-.86-1.1-1.73-1.65-2.61-.7-1.11-1.39-2.24-2.07-3.37-.54-.89-1.08-1.79-1.61-2.69-.33-.56-.66-1.12-.99-1.68-.47-.81-.94-1.63-1.41-2.45-.51-.9-1.02-1.8-1.52-2.7-.25-.45-.5-.91-.75-1.36-.49-.89-.98-1.78-1.45-2.67-.01,0-.01-.02-.02-.03-.06-.11-.12-.22-.17-.32-.01-.03-.03-.06-.04-.09-.11-.2-.22-.4-.32-.6-.33-.6-.64-1.19-.95-1.79-.09-.17-.17-.34-.26-.51-.13-.21-.24-.43-.35-.66-.48-.91-.94-1.83-1.4-2.75-.04-.06-.07-.13-.1-.19-.08-.14-.16-.29-.23-.45-.52-1.03-1.03-2.06-1.53-3.1-.08-.14-.15-.29-.22-.45-.56-1.15-1.11-2.3-1.65-3.46-.44-.94-.88-1.88-1.31-2.83-.21-.45-.41-.9-.62-1.35-.46-1.02-.91-2.04-1.36-3.07-.45-1.03-.89-2.06-1.33-3.1-.16-.39-.33-.78-.49-1.18-.38-.88-.74-1.77-1.1-2.66-.82-1.99-1.61-3.99-2.37-6.01-.06-.16-.12-.31-.18-.47-.22-.56-.43-1.12-.63-1.68-.3-.8-.6-1.6-.89-2.4-.43-1.19-.85-2.38-1.27-3.57-.4-1.14-.79-2.29-1.18-3.44-.06-.16-.11-.33-.17-.5-.35-1.08-.71-2.15-1.06-3.24,0,0-.01-.01-.01-.03-.38-1.19-.76-2.4-1.12-3.6-.36-1.16-.71-2.33-1.05-3.49-.07-.2-.12-.4-.18-.6-.27-.92-.53-1.84-.79-2.77-.11-.38-.22-.77-.32-1.16-.22-.8-.44-1.6-.66-2.41-.24-.9-.48-1.81-.71-2.72-.25-.95-.49-1.9-.72-2.85-.26-1.04-.52-2.09-.76-3.15-.2-.82-.39-1.64-.57-2.47-.04-.18-.08-.35-.12-.53-.17-.72-.33-1.45-.48-2.19-.01-.03-.01-.07-.02-.1-.23-1.04-.45-2.09-.66-3.14-.02-.06-.03-.12-.04-.18v-.02c-.19-.9-.37-1.79-.54-2.69-.03-.11-.05-.23-.07-.34-.09-.44-.17-.89-.25-1.34-.17-.86-.33-1.73-.48-2.6-.04-.18-.07-.37-.1-.56-.18-.98-.35-1.97-.51-2.97-.04-.2-.07-.4-.1-.61-.12-.68-.23-1.37-.33-2.05-.04-.18-.06-.36-.09-.54-.15-.95-.3-1.91-.43-2.86-.05-.27-.09-.55-.12-.83-.02-.16-.05-.31-.07-.47-.15-1.05-.3-2.1-.43-3.15-.14-1.04-.27-2.09-.39-3.15-.02-.17-.04-.35-.06-.52-.1-.77-.19-1.54-.27-2.32-.09-.77-.17-1.54-.25-2.31-.01-.08-.02-.16-.03-.24-.02-.22-.04-.44-.06-.66-.11-1-.2-2.01-.29-3.02-.1-1.11-.19-2.22-.28-3.34-.1-1.31-.2-2.62-.28-3.93-.05-.7-.09-1.39-.13-2.09-.01-.19-.02-.39-.03-.58-.04-.58-.07-1.15-.1-1.73-.06-1.28-.12-2.56-.17-3.84-.05-1.29-.09-2.57-.12-3.86l-.03-1.29c-.05-2.14-.07-4.29-.07-6.45s.02-4.31,.07-6.45l.03-1.29c.03-1.29,.07-2.57,.12-3.86,.05-1.28,.11-2.56,.17-3.84,.03-.58,.06-1.15,.1-1.73,.01-.19,.02-.39,.03-.58,.04-.7,.08-1.39,.13-2.09,.08-1.31,.18-2.62,.28-3.93,.09-1.12,.18-2.23,.28-3.34,.09-1.01,.18-2.02,.29-3.02,.02-.22,.04-.44,.06-.66l.03-.24c.08-.77,.16-1.54,.25-2.31,.08-.78,.17-1.55,.27-2.32,.02-.17,.04-.35,.06-.52,.12-1.06,.25-2.11,.39-3.15,.13-1.05,.28-2.1,.43-3.15,.02-.16,.05-.31,.07-.47,.03-.28,.07-.56,.12-.83,.13-.95,.28-1.91,.43-2.86,.03-.18,.05-.36,.09-.54,.1-.68,.21-1.37,.33-2.05,.03-.21,.06-.41,.1-.61,.16-1,.33-1.99,.51-2.97,.03-.19,.06-.38,.1-.56,.15-.87,.31-1.74,.48-2.6,.08-.45,.16-.9,.25-1.34,.02-.11,.04-.23,.07-.34,.17-.9,.35-1.78,.54-2.68v-.03c.01-.06,.02-.12,.04-.18,.21-1.05,.43-2.1,.66-3.14,.01-.03,.01-.07,.02-.1,.15-.74,.31-1.47,.48-2.19,.04-.18,.08-.35,.12-.53,.18-.83,.37-1.65,.57-2.47,.24-1.06,.5-2.11,.76-3.15,.23-.95,.47-1.9,.72-2.85,.23-.91,.47-1.82,.71-2.72,.22-.81,.44-1.61,.66-2.41,.1-.39,.21-.78,.32-1.16,.26-.93,.52-1.85,.79-2.77,.06-.2,.11-.4,.18-.6,.34-1.16,.69-2.33,1.05-3.49,.36-1.2,.74-2.41,1.12-3.6,0-.02,.01-.03,.01-.03,.35-1.09,.71-2.16,1.06-3.24,.06-.17,.11-.34,.17-.5,.39-1.15,.78-2.3,1.18-3.44,.42-1.19,.84-2.38,1.27-3.57,.29-.8,.59-1.6,.89-2.4,.2-.56,.41-1.12,.63-1.68,.06-.16,.12-.31,.18-.47,.76-2.02,1.55-4.02,2.37-6.01,.36-.89,.72-1.78,1.1-2.66,.16-.4,.33-.79,.49-1.18,.44-1.04,.88-2.07,1.33-3.1,.45-1.03,.9-2.05,1.36-3.07,.21-.45,.41-.9,.62-1.35,.43-.95,.87-1.89,1.31-2.83,.54-1.16,1.09-2.31,1.65-3.46,.07-.16,.14-.31,.22-.45,.5-1.04,1.01-2.07,1.53-3.1,.07-.16,.15-.31,.23-.45,.03-.06,.06-.13,.1-.19,.46-.92,.92-1.84,1.4-2.75,.11-.23,.22-.45,.35-.66,.09-.17,.17-.34,.26-.51,.31-.6,.62-1.19,.95-1.79,.1-.2,.21-.4,.32-.6,.01-.03,.03-.06,.04-.09,.05-.1,.11-.21,.17-.32,.01-.01,.01-.02,.02-.03,.47-.89,.96-1.78,1.45-2.67,.25-.45,.5-.91,.75-1.36,.5-.9,1.01-1.8,1.52-2.7,.47-.82,.94-1.64,1.41-2.45,.33-.56,.66-1.12,.99-1.68,.53-.9,1.07-1.8,1.61-2.69,.68-1.13,1.37-2.26,2.07-3.37,.55-.88,1.09-1.75,1.65-2.61,.27-.43,.55-.86,.83-1.29,.59-.92,1.19-1.84,1.79-2.75,1.54-2.34,3.12-4.66,4.74-6.95,.5-.72,1.01-1.44,1.53-2.15,.03-.04,.06-.09,.09-.13,.11-.17,.23-.34,.36-.51h.01c1.2-.03,2.39-.04,3.59-.04,32.8,0,63.49,9.02,89.73,24.73,10.92,6.53,34.49,19.02,36.66,17.16v.11c-.5,.43-1,.86-1.5,1.3-.37,.32-.74,.64-1.1,.97-1.24,1.1-2.46,2.22-3.67,3.36-.63,.59-1.26,1.19-1.88,1.8-.62,.6-1.24,1.21-1.86,1.83s-1.23,1.24-1.83,1.86c-.61,.62-1.21,1.25-1.8,1.88-.45,.48-.9,.96-1.34,1.44-.45,.48-.89,.96-1.32,1.45-.45,.48-.88,.97-1.31,1.46-.41,.46-.82,.93-1.22,1.4-.18,.21-.37,.43-.55,.64-.26,.31-.53,.63-.79,.94-.84,.99-1.66,1.98-2.46,2.98-.84,1.04-1.67,2.09-2.47,3.15-.41,.52-.81,1.04-1.19,1.56-.8,1.05-1.57,2.11-2.33,3.18-.32,.44-.63,.88-.94,1.32-.58,.82-1.15,1.65-1.71,2.48-.49,.72-.98,1.45-1.45,2.18-.48,.72-.95,1.45-1.41,2.18-.36,.55-.71,1.11-1.05,1.68-.7,1.12-1.38,2.24-2.04,3.38-.34,.57-.67,1.14-.99,1.71-.34,.57-.66,1.15-.98,1.72-.64,1.15-1.28,2.31-1.89,3.48-.62,1.17-1.23,2.35-1.81,3.53-.3,.59-.6,1.19-.88,1.78-1.16,2.39-2.27,4.8-3.32,7.25-.26,.6-.52,1.21-.77,1.82-.31,.72-.6,1.45-.89,2.18-.21,.51-.41,1.01-.6,1.52-.74,1.9-1.45,3.81-2.12,5.73-.22,.6-.42,1.2-.62,1.8-.21,.59-.4,1.19-.59,1.78-.15,.44-.29,.88-.43,1.32-.23,.72-.46,1.44-.67,2.17-.44,1.44-.86,2.9-1.26,4.36-.12,.43-.24,.87-.35,1.3-.13,.46-.25,.93-.37,1.4-.44,1.7-.85,3.43-1.24,5.16-.1,.43-.2,.87-.29,1.3-.13,.59-.26,1.18-.37,1.77-.09,.38-.16,.77-.23,1.15-.13,.59-.24,1.18-.35,1.77-.13,.67-.25,1.35-.37,2.02-.12,.67-.23,1.35-.34,2.02-.45,2.7-.83,5.42-1.14,8.16-.08,.68-.16,1.37-.23,2.06-.07,.68-.14,1.37-.2,2.06-.07,.69-.13,1.38-.18,2.08-.04,.4-.07,.8-.09,1.21-.05,.57-.09,1.15-.12,1.73-.05,.7-.09,1.4-.12,2.1-.03,.5-.05,1-.07,1.5-.03,.56-.05,1.12-.06,1.68,0,.13,0,.26-.02,.39-.03,.61-.04,1.23-.05,1.85h0c0,.13-.01,.24-.01,.36-.01,.5-.02,1-.02,1.5-.01,.62-.01,1.24-.01,1.86s0,1.24,.01,1.86c0,.5,.01,.99,.02,1.48,0,.13,.01,.25,.01,.38,.01,.62,.02,1.24,.05,1.85,.01,.13,.01,.26,.02,.39,.01,.56,.03,1.12,.06,1.68,.02,.5,.04,1,.07,1.5,.03,.7,.07,1.4,.12,2.1,.03,.58,.07,1.16,.12,1.73,.02,.41,.05,.81,.09,1.21,.05,.7,.11,1.39,.18,2.08,.06,.69,.13,1.38,.2,2.06,.07,.69,.15,1.38,.23,2.06,.31,2.74,.69,5.46,1.14,8.16,.11,.67,.22,1.35,.34,2.02,.12,.67,.24,1.35,.37,2.02,.11,.59,.22,1.18,.35,1.77,.07,.38,.14,.77,.23,1.15,.11,.59,.24,1.18,.37,1.77,.09,.43,.19,.87,.29,1.3,.39,1.73,.8,3.46,1.24,5.16,.12,.47,.24,.94,.37,1.4,.11,.43,.23,.87,.35,1.3,.4,1.46,.82,2.92,1.26,4.36,.21,.73,.44,1.45,.67,2.17,.14,.44,.28,.88,.43,1.32,.19,.59,.38,1.19,.59,1.78,.2,.6,.4,1.2,.62,1.8,.67,1.92,1.38,3.83,2.12,5.73,.19,.51,.39,1.01,.6,1.52,.29,.73,.58,1.46,.89,2.18,.25,.61,.51,1.22,.77,1.82,1.05,2.45,2.16,4.86,3.32,7.25,.28,.59,.58,1.19,.88,1.78,.58,1.18,1.19,2.36,1.81,3.53,.61,1.17,1.25,2.33,1.89,3.48,.32,.57,.64,1.15,.98,1.72,.32,.57,.65,1.14,.99,1.71,.66,1.14,1.34,2.26,2.04,3.38,.34,.57,.69,1.13,1.05,1.68,.46,.73,.93,1.46,1.41,2.18,.47,.73,.96,1.46,1.45,2.18,.56,.83,1.13,1.66,1.71,2.48,.31,.44,.62,.88,.94,1.32,.76,1.07,1.53,2.13,2.33,3.18,.38,.52,.78,1.04,1.19,1.56,.8,1.06,1.63,2.11,2.47,3.15,.8,1,1.62,1.99,2.46,2.98,.26,.31,.53,.63,.79,.94,.18,.21,.37,.43,.55,.64,.4,.47,.81,.94,1.22,1.4,.43,.49,.86,.98,1.31,1.46,.43,.49,.87,.97,1.32,1.45,.44,.48,.89,.96,1.34,1.44,.59,.63,1.19,1.26,1.8,1.88,.6,.62,1.21,1.24,1.83,1.86s1.24,1.23,1.86,1.83c.62,.61,1.25,1.21,1.88,1.8,.48,.45,.96,.9,1.44,1.34,.48,.45,.96,.89,1.45,1.32,.48,.45,.97,.88,1.46,1.31,.46,.41,.93,.82,1.4,1.22,.21,.18,.43,.37,.64,.55,.31,.26,.63,.53,.94,.79,.99,.84,1.98,1.66,2.98,2.46,1.04,.84,2.09,1.67,3.15,2.47,.52,.41,1.04,.81,1.56,1.19,1.05,.8,2.11,1.57,3.18,2.33,.44,.32,.88,.63,1.32,.94,.82,.58,1.65,1.15,2.48,1.71,.72,.49,1.45,.98,2.18,1.45,.72,.48,1.45,.95,2.18,1.41,.55,.36,1.11,.71,1.68,1.05,1.12,.7,2.24,1.38,3.38,2.04,.57,.34,1.14,.67,1.71,.99,.57,.34,1.15,.66,1.72,.98,1.15,.64,2.31,1.28,3.48,1.89,1.17,.62,2.35,1.23,3.53,1.81,.59,.3,1.19,.6,1.78,.88,2.39,1.16,4.8,2.27,7.25,3.32,.6,.26,1.21,.52,1.82,.77,.72,.31,1.45,.6,2.18,.89,.51,.21,1.01,.41,1.52,.6,1.9,.74,3.81,1.45,5.73,2.12,.6,.22,1.2,.42,1.8,.62,.59,.21,1.19,.4,1.78,.59,.44,.15,.88,.29,1.32,.43,.72,.23,1.44,.46,2.17,.67,1.44,.44,2.9,.86,4.36,1.26,.43,.12,.87,.24,1.3,.35,.46,.13,.93,.25,1.4,.37,1.7,.44,3.43,.85,5.16,1.24,.43,.1,.87,.2,1.3,.29,.59,.13,1.18,.26,1.77,.37,.38,.09,.77,.16,1.15,.23,.59,.13,1.18,.24,1.77,.35,.67,.13,1.35,.25,2.02,.37s1.35,.23,2.02,.34c2.7,.45,5.42,.83,8.16,1.14,.68,.08,1.37,.16,2.06,.23,.68,.07,1.37,.14,2.06,.2,.69,.07,1.38,.13,2.08,.18,.4,.04,.8,.07,1.21,.09,.57,.05,1.15,.09,1.73,.12,.7,.05,1.4,.09,2.1,.12,.5,.03,1,.05,1.5,.07,.56,.03,1.12,.05,1.68,.06,.13,0,.26,0,.39,.02,.61,.03,1.23,.04,1.85,.05,.01,.01,.02,.03,.03,.04,1.21,1.69,2.44,3.36,3.69,5.02,30.93,41.19,72.22,74.14,120,95.02Z"/>
      </g>
      <rect class="cls-2" width="700" height="700"/>
    </g>
  </g>
</svg>