<?xml version="1.0" encoding="UTF-8"?>
<svg id="Layer_2" data-name="Layer 2" xmlns="http://www.w3.org/2000/svg" xmlns:xlink="http://www.w3.org/1999/xlink" viewBox="0 0 800 360">
  <defs>
    <style>
      .cls-1 {
        fill: url(#linear-gradient-2);
      }

      .cls-2 {
        fill: #fff;
      }

      .cls-3 {
        clip-path: url(#clippath);
      }

      .cls-4 {
        fill: none;
      }

      .cls-5 {
        fill: url(#linear-gradient-3);
      }

      .cls-6 {
        fill: url(#linear-gradient);
        filter: url(#outer-glow-1);
      }
    </style>
    <clipPath id="clippath">
      <rect class="cls-4" width="800" height="360"/>
    </clipPath>
    <linearGradient id="linear-gradient" x1="119.63" y1="209.42" x2="196.54" y2="231.07" gradientUnits="userSpaceOnUse">
      <stop offset=".01" stop-color="#e6e7e8"/>
      <stop offset=".11" stop-color="#e6d3d6"/>
      <stop offset=".73" stop-color="#eb5668"/>
      <stop offset="1" stop-color="#ee243d"/>
    </linearGradient>
    <filter id="outer-glow-1" filterUnits="userSpaceOnUse">
      <feOffset dx="0" dy="0"/>
      <feGaussianBlur result="blur" stdDeviation="26"/>
      <feFlood flood-color="#ee243d" flood-opacity=".75"/>
      <feComposite in2="blur" operator="in"/>
      <feComposite in="SourceGraphic"/>
    </filter>
    <linearGradient id="linear-gradient-2" x1="-1714.18" y1="-2168.41" x2="-1637.26" y2="-2146.77" gradientTransform="translate(-1536.84 -2017.78) rotate(-180)" gradientUnits="userSpaceOnUse">
      <stop offset="0" stop-color="#fff"/>
      <stop offset=".18" stop-color="#d2f1f1"/>
      <stop offset=".71" stop-color="#55cbc9"/>
      <stop offset=".94" stop-color="#23bcba"/>
    </linearGradient>
    <linearGradient id="linear-gradient-3" x1="686.68" y1="228.48" x2="717.45" y2="228.48" gradientUnits="userSpaceOnUse">
      <stop offset="0" stop-color="#f16274"/>
      <stop offset="1" stop-color="#ee243d"/>
    </linearGradient>
  </defs>
  <g id="Wide_Logo_-_Dark" data-name="Wide Logo - Dark">
    <g class="cls-3">
      <g id="Full_Width" data-name="Full Width">
        <g id="Logo">
          <path class="cls-2" d="M214.24,178.58c0-.09,0-.19,0-.28,0-.28-.02-.56-.03-.85-.01-.28-.02-.56-.04-.84,0-.13-.01-.25-.02-.38,0-.04,0-.09,0-.13,0-.15-.02-.31-.03-.46-.02-.29-.04-.58-.06-.86-.02-.25-.04-.49-.06-.73-.02-.22-.04-.44-.06-.66,0-.05,0-.1-.01-.14v-.05c-.02-.17-.04-.34-.06-.51-.02-.17-.04-.34-.06-.51,0-.04,0-.08-.01-.11-.03-.23-.05-.46-.09-.69-.03-.23-.06-.46-.09-.69,0-.04-.01-.07-.02-.1,0-.06-.02-.12-.03-.18-.03-.21-.06-.42-.09-.63,0-.04-.01-.08-.02-.12-.02-.15-.05-.3-.07-.45,0-.05-.01-.09-.02-.13-.04-.22-.07-.44-.11-.65,0-.04-.01-.08-.02-.12-.03-.19-.07-.38-.11-.57-.02-.1-.04-.2-.05-.29,0-.02,0-.05-.02-.07-.04-.2-.08-.39-.12-.59,0,0,0,0,0,0,0-.01,0-.03,0-.04-.05-.23-.09-.46-.14-.69,0,0,0-.02,0-.02-.03-.16-.07-.32-.11-.48,0-.04-.02-.08-.03-.12-.04-.18-.08-.36-.13-.54-.05-.23-.11-.46-.17-.69-.05-.21-.1-.42-.16-.63-.05-.2-.1-.4-.16-.6-.05-.18-.1-.35-.14-.53-.02-.09-.05-.17-.07-.25-.06-.2-.11-.41-.17-.61-.01-.04-.02-.09-.04-.13-.07-.25-.15-.51-.23-.77-.08-.26-.16-.53-.25-.79,0,0,0,0,0,0-.08-.24-.16-.47-.23-.71-.01-.04-.02-.07-.04-.11-.09-.25-.17-.5-.26-.76-.09-.26-.18-.52-.28-.78-.06-.18-.13-.35-.2-.53-.04-.12-.09-.25-.14-.37-.01-.04-.03-.07-.04-.1-.17-.44-.34-.88-.52-1.32-.08-.2-.16-.39-.24-.58-.04-.09-.07-.17-.11-.26-.1-.23-.19-.45-.29-.68-.1-.23-.2-.45-.3-.67-.05-.1-.09-.2-.14-.3-.09-.21-.19-.41-.29-.62-.12-.25-.24-.51-.36-.76-.02-.04-.03-.07-.05-.1-.11-.23-.22-.45-.34-.68-.02-.04-.03-.07-.05-.1,0-.01-.01-.03-.02-.04-.1-.2-.2-.4-.31-.6-.02-.05-.05-.1-.08-.14-.02-.04-.04-.07-.06-.11-.07-.13-.14-.26-.21-.39-.02-.04-.05-.09-.07-.13,0,0,0-.01,0-.02-.01-.02-.02-.05-.04-.07,0,0,0,0,0,0-.1-.2-.21-.39-.32-.59-.05-.1-.11-.2-.16-.3-.11-.2-.22-.4-.33-.59-.1-.18-.21-.36-.31-.54-.07-.12-.14-.25-.22-.37-.12-.2-.23-.4-.35-.59-.15-.25-.3-.5-.45-.74-.12-.19-.24-.38-.36-.57-.06-.09-.12-.19-.18-.28-.13-.2-.26-.4-.39-.6-.34-.51-.68-1.02-1.04-1.53-.11-.16-.22-.32-.34-.47,0,0-.01-.02-.02-.03-.02-.04-.05-.07-.08-.11h0s-.05-.07-.08-.11c-.01-.02-.02-.03-.04-.05-.09-.13-.18-.26-.28-.38-.13-.18-.27-.36-.4-.54-.14-.18-.27-.36-.41-.54-.16-.21-.32-.42-.49-.62-.03-.04-.06-.08-.09-.12-.08-.1-.16-.2-.24-.31-.06-.08-.13-.16-.19-.24-.15-.19-.31-.38-.47-.57-.17-.2-.34-.4-.51-.61-.13-.15-.26-.31-.39-.46-.21-.25-.43-.49-.65-.74-.18-.2-.35-.39-.53-.59-.13-.15-.26-.29-.4-.43-.12-.13-.24-.26-.36-.38-.26-.28-.52-.56-.79-.83-.21-.22-.42-.43-.63-.64-.21-.21-.43-.42-.64-.63-.27-.27-.55-.53-.83-.79-.13-.12-.25-.24-.38-.36-.14-.13-.29-.27-.43-.4-.2-.18-.39-.35-.59-.53-.24-.22-.49-.43-.74-.65-.15-.13-.3-.26-.46-.39-.2-.17-.4-.34-.61-.51-.19-.16-.38-.31-.57-.47-.08-.07-.16-.13-.24-.19-.1-.08-.2-.16-.31-.24-.04-.03-.08-.06-.12-.09-.21-.16-.41-.32-.62-.49-.18-.14-.36-.28-.54-.41-.18-.13-.36-.27-.54-.4-.13-.1-.25-.19-.38-.28-.02-.01-.03-.02-.05-.04-.04-.03-.07-.05-.11-.08h0s-.07-.06-.11-.08c0,0-.02-.01-.03-.02-.16-.11-.31-.23-.47-.34-.5-.36-1.01-.7-1.53-1.04-.2-.13-.4-.26-.6-.39-.09-.06-.19-.12-.28-.18-.19-.12-.38-.24-.57-.36-.24-.15-.49-.31-.74-.45-.2-.12-.39-.24-.59-.35-.12-.07-.25-.14-.37-.22-.18-.1-.36-.21-.54-.31-.2-.11-.4-.22-.59-.33-.1-.05-.2-.11-.3-.16-.2-.11-.39-.22-.59-.32,0,0,0,0,0,0-.02-.01-.05-.03-.07-.04,0,0-.01,0-.02,0-.04-.02-.09-.05-.13-.07-.13-.07-.26-.14-.39-.21-.04-.02-.07-.04-.11-.06-.05-.03-.09-.05-.14-.08-.2-.11-.4-.21-.6-.31-.01,0-.03-.02-.04-.02-.03-.02-.06-.04-.1-.05-.23-.11-.45-.23-.68-.34-.03-.02-.06-.03-.1-.05-.25-.12-.5-.24-.76-.36-.21-.1-.41-.19-.62-.29-.1-.05-.2-.09-.3-.14-.22-.1-.45-.2-.67-.3-.23-.1-.45-.2-.68-.29-.09-.04-.17-.07-.26-.11-.19-.08-.39-.16-.58-.24-.44-.18-.88-.35-1.32-.52-.04-.01-.07-.03-.1-.04-.12-.05-.25-.09-.37-.14-.18-.07-.35-.13-.53-.2-.26-.09-.52-.19-.78-.28-.25-.09-.5-.17-.76-.26-.04-.01-.07-.02-.11-.04-.24-.08-.47-.16-.71-.23,0,0,0,0,0,0-.26-.08-.53-.17-.79-.25-.25-.08-.51-.16-.77-.23-.04-.02-.09-.03-.13-.04-.2-.06-.4-.12-.61-.17-.08-.02-.17-.05-.25-.07-.18-.05-.35-.1-.53-.14-.2-.05-.4-.11-.6-.16-.21-.05-.42-.11-.63-.16-.23-.06-.46-.11-.69-.17-.18-.04-.36-.09-.54-.13-.04,0-.08-.02-.12-.03-.16-.04-.32-.07-.48-.11,0,0-.02,0-.02,0-.23-.05-.46-.1-.69-.14-.01,0-.03,0-.04,0h0c-.2-.04-.39-.08-.59-.12-.02,0-.05-.01-.07-.02-.1-.02-.2-.04-.29-.05-.19-.04-.38-.07-.57-.11-.04,0-.08-.02-.12-.02-.22-.04-.43-.08-.65-.11-.04,0-.09-.02-.13-.02-.15-.03-.3-.05-.45-.07-.04,0-.08-.01-.12-.02-.21-.03-.42-.07-.63-.09-.06-.01-.12-.02-.18-.03-.04,0-.07-.01-.1-.02-.23-.03-.46-.07-.69-.09-.23-.03-.46-.06-.69-.09-.04,0-.08,0-.11-.01-.17-.02-.34-.04-.51-.06-.17-.02-.34-.04-.51-.05h-.05s-.1-.02-.14-.02c-.22-.02-.44-.04-.66-.06-.24-.02-.49-.04-.73-.06-.29-.02-.58-.04-.86-.06-.15-.01-.31-.02-.46-.03-.04,0-.09,0-.13,0-.13,0-.25-.02-.38-.02-.28-.01-.56-.03-.84-.04-.28-.01-.56-.02-.85-.03-.09,0-.19,0-.28,0-.47-.01-.94-.02-1.42-.02s-.95,0-1.42,.02c-.09,0-.19,0-.28,0-.28,0-.56,.02-.85,.03-.28,.01-.56,.02-.84,.04-.13,0-.25,.01-.38,.02-.04,0-.09,0-.13,0-.15,0-.31,.02-.46,.03-.29,.02-.58,.04-.86,.06-.25,.02-.49,.04-.73,.06-.22,.02-.44,.04-.66,.06-.05,0-.1,0-.14,.01-.02,0-.04,0-.05,0-.17,.02-.34,.04-.51,.05-.17,.02-.34,.04-.51,.06-.04,0-.08,0-.11,.01-.23,.03-.46,.05-.69,.09-.23,.03-.46,.06-.69,.09-.04,0-.07,.01-.1,.02-.06,0-.12,.02-.18,.03-.21,.03-.42,.06-.63,.09-.04,0-.08,.01-.12,.02-.15,.02-.3,.05-.45,.07-.05,0-.09,.01-.13,.02-.22,.04-.44,.07-.65,.11-.04,0-.08,.01-.12,.02-.19,.03-.38,.07-.57,.11-.1,.02-.2,.04-.29,.05-.02,0-.05,0-.07,.02-.2,.04-.39,.08-.59,.12h0s-.03,0-.04,0c-.23,.05-.46,.09-.69,.14,0,0-.02,0-.02,0-.16,.03-.32,.07-.48,.11-.04,0-.08,.02-.12,.03-.18,.04-.36,.08-.54,.13-.23,.05-.46,.11-.69,.17-.21,.05-.42,.1-.63,.16-.2,.05-.4,.1-.6,.16-.18,.05-.35,.1-.53,.14-.09,.02-.17,.05-.25,.07-.2,.06-.41,.11-.61,.17-.04,.01-.09,.02-.13,.04-.25,.07-.51,.15-.77,.23-.26,.08-.53,.16-.79,.25,0,0,0,0,0,0-.24,.08-.47,.16-.71,.23-.04,.01-.07,.02-.11,.04-.25,.09-.5,.17-.76,.26-.26,.09-.52,.18-.78,.28-.18,.06-.35,.13-.53,.2-.12,.04-.25,.09-.37,.14-.04,.01-.07,.03-.1,.04-.44,.17-.88,.34-1.32,.52-.2,.08-.39,.16-.58,.24-.09,.04-.17,.07-.26,.11-.23,.1-.45,.19-.68,.29-.32,.14-.64,.28-.96,.43-.78,.36-1.55,.73-2.31,1.11-.2,.1-.4,.2-.6,.31-.09,.04-.17,.09-.26,.13-.13,.07-.26,.14-.39,.21-.27,.14-.54,.29-.81,.44-.16,.09-.32,.18-.48,.27-.17,.09-.33,.19-.5,.28-.15,.09-.3,.17-.45,.26-.12,.07-.25,.14-.37,.22-.2,.12-.4,.23-.59,.35-.25,.15-.5,.3-.74,.45-.19,.12-.38,.24-.57,.36-.09,.06-.19,.12-.28,.18-.2,.13-.4,.26-.6,.39-.26,.17-.51,.34-.77,.52-.25,.17-.51,.35-.76,.52-.16,.11-.32,.22-.47,.34-.05,.03-.09,.07-.14,.1-.19,.14-.38,.27-.57,.41-.14,.1-.28,.21-.42,.31-.32,.24-.63,.48-.95,.72-.11,.08-.21,.16-.31,.24-.22,.17-.44,.35-.66,.53-.19,.15-.38,.31-.57,.47-.2,.17-.4,.34-.61,.51-.44,.37-.88,.75-1.31,1.14-.08,.07-.17,.15-.25,.22-.08,.07-.15,.14-.23,.2-.56,.5-1.11,1.02-1.65,1.55-.22,.21-.43,.42-.64,.63-.21,.21-.42,.43-.63,.64-.53,.54-1.04,1.09-1.55,1.65-.07,.07-.14,.15-.2,.23-.07,.08-.15,.16-.22,.25-.39,.43-.77,.87-1.14,1.31-.17,.2-.34,.4-.51,.61-.16,.19-.31,.38-.47,.57-.18,.22-.35,.44-.53,.66-.08,.1-.16,.21-.24,.31-.47,.6-.92,1.21-1.37,1.83-.03,.04-.05,.07-.08,.11h0s-.05,.07-.08,.11c0,0-.01,.02-.02,.03-.11,.16-.23,.31-.34,.47-.36,.5-.7,1.01-1.04,1.53-.13,.2-.26,.4-.39,.6-.06,.09-.12,.19-.18,.28-.12,.19-.24,.38-.36,.57-.15,.24-.31,.49-.45,.74-.12,.2-.24,.39-.35,.59-.07,.12-.14,.25-.22,.37-.1,.18-.21,.36-.31,.54-.11,.2-.22,.4-.33,.59-.05,.1-.11,.2-.16,.3-.11,.2-.22,.39-.32,.59,0,0,0,0,0,0-.01,.02-.03,.05-.04,.07,0,0,0,.01,0,.02-.02,.04-.05,.09-.07,.13-.07,.13-.14,.26-.21,.39-.02,.04-.04,.07-.06,.11-.03,.05-.05,.09-.08,.14-.11,.2-.21,.4-.31,.6,0,.01-.02,.03-.02,.04-.02,.03-.04,.06-.05,.1-.11,.23-.23,.45-.34,.68-.02,.03-.03,.06-.05,.1-.12,.25-.24,.5-.36,.76-.1,.21-.19,.41-.29,.62-.05,.1-.09,.2-.14,.3-.1,.22-.2,.45-.3,.67s-.2,.45-.29,.68c-.04,.09-.07,.17-.11,.26-.08,.19-.16,.39-.24,.58-.18,.44-.35,.88-.52,1.32-.01,.04-.03,.07-.04,.1-.05,.12-.09,.25-.14,.37-.07,.18-.13,.35-.2,.53-.09,.26-.19,.52-.28,.78-.09,.25-.17,.5-.26,.76-.01,.04-.02,.07-.04,.11-.08,.24-.16,.47-.23,.71,0,0,0,0,0,0-.08,.26-.17,.53-.25,.79-.08,.25-.16,.51-.23,.77-.02,.04-.03,.09-.04,.13-.06,.2-.12,.4-.17,.61-.02,.08-.05,.17-.07,.25-.05,.18-.1,.35-.14,.53-.05,.2-.11,.4-.16,.6-.05,.21-.11,.42-.16,.63-.06,.23-.11,.46-.17,.69-.04,.18-.09,.36-.13,.54,0,.04-.02,.08-.03,.12-.04,.16-.07,.32-.11,.48,0,0,0,.02,0,.02-.05,.23-.1,.46-.14,.69,0,.01,0,.03,0,.04h0c-.04,.2-.08,.4-.12,.59,0,.02-.01,.05-.02,.07-.02,.1-.04,.2-.05,.29-.04,.19-.07,.38-.11,.57,0,.04-.02,.08-.02,.12-.04,.22-.08,.43-.11,.65,0,.04-.02,.09-.02,.13-.03,.15-.05,.3-.07,.45,0,.04-.01,.08-.02,.12-.03,.21-.07,.42-.09,.63-.01,.06-.02,.12-.03,.18,0,.04-.01,.07-.02,.1-.03,.23-.07,.46-.09,.69-.03,.23-.06,.46-.09,.69,0,.04,0,.08-.01,.11-.02,.17-.04,.34-.06,.51-.02,.17-.04,.34-.05,.51v.05s-.02,.1-.02,.14c-.02,.22-.04,.44-.06,.66-.02,.24-.04,.49-.06,.73-.02,.29-.04,.58-.06,.86-.01,.15-.02,.31-.03,.46,0,.04,0,.09,0,.13,0,.13-.02,.25-.02,.38-.01,.28-.03,.56-.04,.84-.01,.28-.02,.56-.03,.85v.28c-.02,.47-.02,.94-.02,1.42s0,.95,.02,1.42v.28c.01,.28,.02,.56,.03,.85,.01,.28,.02,.56,.04,.84,0,.13,.01,.25,.02,.38,0,.04,0,.09,0,.13,0,.15,.02,.31,.03,.46,.02,.29,.04,.58,.06,.86,.02,.25,.04,.49,.06,.73,.02,.22,.04,.44,.06,.66,0,.05,0,.1,.01,.14,0,.02,0,.04,0,.05,.02,.17,.04,.34,.05,.51,.02,.17,.04,.34,.06,.51,0,.04,0,.08,.01,.11,.03,.23,.05,.46,.09,.69,.03,.23,.06,.46,.09,.69,0,.04,.01,.07,.02,.1,0,.06,.02,.12,.03,.18,.03,.21,.06,.42,.09,.63,0,.04,.01,.08,.02,.12,.02,.15,.05,.3,.07,.45,0,.05,.01,.09,.02,.13,.04,.22,.07,.44,.11,.65,0,.04,.01,.08,.02,.12,.03,.19,.07,.38,.11,.57,.02,.1,.04,.2,.05,.29,0,.02,0,.05,.02,.07,.04,.2,.08,.39,.12,.59h0s0,.03,0,.04c.05,.23,.09,.46,.14,.69,0,0,0,.02,0,.02,.03,.16,.07,.32,.11,.48,0,.04,.02,.08,.03,.12,.04,.18,.08,.36,.13,.54,.05,.23,.11,.46,.17,.69,.05,.21,.1,.42,.16,.63,.05,.2,.1,.4,.16,.6,.05,.18,.1,.35,.14,.53,.02,.09,.05,.17,.07,.25,.06,.2,.11,.41,.17,.61,.01,.04,.02,.09,.04,.13,.07,.25,.15,.51,.23,.77,.08,.26,.16,.53,.25,.79,0,0,0,0,0,0,.08,.24,.16,.47,.23,.71,.01,.04,.02,.07,.04,.11,.09,.25,.17,.5,.26,.76,.09,.26,.18,.52,.28,.78,.06,.18,.13,.35,.2,.53,.04,.12,.09,.25,.14,.37,.01,.04,.03,.07,.04,.1,.17,.44,.34,.88,.52,1.32,.08,.2,.16,.39,.24,.58,.04,.09,.07,.17,.11,.26,.1,.23,.19,.45,.29,.68,.1,.23,.2,.45,.3,.67,.05,.1,.09,.2,.14,.3,.09,.21,.19,.41,.29,.62,.12,.25,.24,.51,.36,.76,.02,.04,.03,.07,.05,.1,.11,.23,.22,.45,.34,.68,.02,.04,.03,.07,.05,.1,0,.01,.01,.03,.02,.04,.1,.2,.2,.4,.31,.6,.02,.05,.05,.1,.08,.14,.02,.04,.04,.07,.06,.11,.07,.13,.14,.26,.21,.39,.02,.04,.05,.09,.07,.13,0,0,0,.01,0,.02,.01,.02,.02,.05,.04,.07,0,0,0,0,0,0,.1,.2,.21,.39,.32,.59,.05,.1,.11,.2,.16,.3,.11,.2,.22,.4,.33,.59,.1,.18,.21,.36,.31,.54,.07,.12,.14,.25,.22,.37,.12,.2,.23,.4,.35,.59,.15,.25,.3,.5,.45,.74,.12,.19,.24,.38,.36,.57,.06,.09,.12,.19,.18,.28,.13,.2,.26,.4,.39,.6,.34,.51,.68,1.02,1.04,1.53,.11,.16,.22,.32,.34,.47,0,0,.01,.02,.02,.03,.02,.04,.05,.07,.08,.11h0s.05,.07,.08,.11c.01,.02,.02,.03,.04,.05,.09,.13,.18,.26,.28,.38,.13,.18,.27,.36,.4,.54,.14,.18,.27,.36,.41,.54,.16,.21,.32,.42,.49,.62,.03,.04,.06,.08,.09,.12,.08,.1,.16,.2,.24,.31,.06,.08,.13,.16,.19,.24,.15,.19,.31,.38,.47,.57,.17,.2,.34,.4,.51,.61,.13,.15,.26,.31,.39,.46,.21,.25,.43,.49,.65,.74,.18,.2,.35,.39,.53,.59,.13,.15,.26,.29,.4,.43,.12,.13,.24,.26,.36,.38,.26,.28,.52,.56,.79,.83,.21,.22,.42,.43,.63,.64,.21,.21,.43,.42,.64,.63,.27,.27,.55,.53,.83,.79,.13,.12,.25,.24,.38,.36,.14,.13,.29,.27,.43,.4,.2,.18,.39,.35,.59,.53,.24,.22,.49,.43,.74,.65,.15,.13,.3,.26,.46,.39,.2,.17,.4,.34,.61,.51,.19,.16,.38,.31,.57,.47,.08,.07,.16,.13,.24,.19,.1,.08,.2,.16,.31,.24,.04,.03,.08,.06,.12,.09,.21,.16,.41,.32,.62,.49,.18,.14,.36,.28,.54,.41,.18,.13,.36,.27,.54,.4,.13,.1,.25,.19,.38,.28,.02,.01,.03,.02,.05,.04,.04,.03,.07,.05,.11,.08h0s.07,.06,.11,.08c0,0,.02,.01,.03,.02,.16,.11,.31,.23,.47,.34,.5,.36,1.01,.7,1.53,1.04,.2,.13,.4,.26,.6,.39,.09,.06,.19,.12,.28,.18,.19,.12,.38,.24,.57,.36,.24,.15,.49,.31,.74,.45,.2,.12,.39,.24,.59,.35,.12,.07,.25,.14,.37,.22,.18,.1,.36,.21,.54,.31,.2,.11,.4,.22,.59,.33,.1,.05,.2,.11,.3,.16,.2,.11,.39,.22,.59,.32,0,0,0,0,0,0,.02,.01,.05,.03,.07,.04,0,0,.01,0,.02,0,.04,.02,.09,.05,.13,.07,.13,.07,.26,.14,.39,.21,.04,.02,.07,.04,.11,.06,.05,.03,.09,.05,.14,.08,.2,.11,.4,.21,.6,.31,.01,0,.03,.02,.04,.02,.03,.02,.06,.04,.1,.05,.23,.11,.45,.23,.68,.34,.03,.02,.06,.03,.1,.05,.25,.12,.5,.24,.76,.36,.21,.1,.41,.19,.62,.29,.1,.05,.2,.09,.3,.14,.22,.1,.45,.2,.67,.3,.23,.1,.45,.2,.68,.29,.09,.04,.17,.07,.26,.11,.19,.08,.39,.16,.58,.24,.44,.18,.88,.35,1.32,.52,.04,.01,.07,.03,.1,.04,.12,.05,.25,.09,.37,.14,.18,.07,.35,.13,.53,.2,.26,.09,.52,.19,.78,.28,.25,.09,.5,.17,.76,.26,.04,.01,.07,.02,.11,.04,.24,.08,.47,.16,.71,.23,0,0,0,0,0,0,.26,.08,.53,.17,.79,.25,.25,.08,.51,.16,.77,.23,.04,.02,.09,.03,.13,.04,.2,.06,.4,.12,.61,.17,.08,.02,.17,.05,.25,.07,.18,.05,.35,.1,.53,.14,.2,.05,.4,.11,.6,.16,.21,.05,.42,.11,.63,.16,.23,.06,.46,.11,.69,.17,.18,.04,.36,.09,.54,.13,.04,0,.08,.02,.12,.03,.16,.04,.32,.07,.48,.11,0,0,.02,0,.02,0,.23,.05,.46,.1,.69,.14,.01,0,.03,0,.04,0,0,0,0,0,0,0,.2,.04,.39,.08,.59,.12,.02,0,.05,.01,.07,.02,.1,.02,.2,.04,.29,.05,.19,.04,.38,.07,.57,.11,.04,0,.08,.02,.12,.02,.22,.04,.43,.08,.65,.11,.04,0,.09,.02,.13,.02,.15,.03,.3,.05,.45,.07,.04,0,.08,.01,.12,.02,.21,.03,.42,.07,.63,.09,.06,.01,.12,.02,.18,.03,.04,0,.07,.01,.1,.02,.23,.03,.46,.07,.69,.09,.23,.03,.46,.06,.69,.09,.04,0,.08,0,.11,.01,.17,.02,.34,.04,.51,.06,.17,.02,.34,.04,.51,.05,.02,0,.04,0,.05,0,.05,0,.1,0,.14,.01,.22,.02,.44,.04,.66,.06,.24,.02,.49,.04,.73,.06,.29,.02,.58,.04,.86,.06,.15,.01,.31,.02,.46,.03,.04,0,.09,0,.13,0,.13,0,.25,.02,.38,.02,.28,.01,.56,.03,.84,.04,.28,.01,.56,.02,.85,.03h.28c.47,.02,.94,.02,1.42,.02s.95,0,1.42-.02h.28c.28-.01,.56-.02,.85-.03,.28-.01,.56-.02,.84-.04,.13,0,.25-.01,.38-.02,.04,0,.09,0,.13,0,.15,0,.31-.02,.46-.03,.29-.02,.58-.04,.86-.06,.25-.02,.49-.04,.73-.06,.22-.02,.44-.04,.66-.06,.05,0,.1,0,.14-.01h.05c.17-.02,.34-.04,.51-.06,.17-.02,.34-.04,.51-.06,.04,0,.08,0,.11-.01,.23-.03,.46-.05,.69-.09,.23-.03,.46-.06,.69-.09,.04,0,.07-.01,.1-.02,.06,0,.12-.02,.18-.03,.21-.03,.42-.06,.63-.09,.04,0,.08-.01,.12-.02,.15-.02,.3-.05,.45-.07,.05,0,.09-.01,.13-.02,.22-.04,.44-.07,.65-.11,.04,0,.08-.01,.12-.02,.19-.03,.38-.07,.57-.11,.1-.02,.2-.04,.29-.05,.02,0,.05,0,.07-.02,.2-.04,.39-.08,.59-.12t0,0s.03,0,.04,0c.23-.05,.46-.09,.69-.14,0,0,.02,0,.02,0,.16-.03,.32-.07,.48-.11,.04,0,.08-.02,.12-.03,.18-.04,.36-.08,.54-.13,.23-.05,.46-.11,.69-.17,.21-.05,.42-.1,.63-.16,.2-.05,.4-.1,.6-.16,.18-.05,.35-.1,.53-.14,.09-.02,.17-.05,.25-.07,.2-.06,.41-.11,.61-.17,.04-.01,.09-.02,.13-.04,.25-.07,.51-.15,.77-.23,.26-.08,.53-.16,.79-.25,0,0,0,0,0,0,.24-.08,.47-.16,.71-.23,.04-.01,.07-.02,.11-.04,.25-.09,.5-.17,.76-.26,.26-.09,.52-.18,.78-.28,.18-.06,.35-.13,.53-.2,.12-.04,.25-.09,.37-.14,.04-.01,.07-.03,.1-.04,.44-.17,.88-.34,1.32-.52,.2-.08,.39-.16,.58-.24,.09-.04,.17-.07,.26-.11,.23-.1,.45-.19,.68-.29,.32-.14,.65-.29,.97-.43,.21-.09,.41-.19,.62-.29,.25-.12,.51-.24,.76-.36,.03-.02,.07-.03,.1-.05,.23-.11,.45-.22,.68-.34,.04-.02,.07-.03,.1-.05,.22-.11,.43-.22,.65-.33,.05-.02,.1-.05,.14-.08,.21-.11,.42-.22,.64-.34,.03-.02,.06-.03,.1-.05,.2-.1,.39-.21,.59-.32,.81-.44,1.6-.9,2.39-1.38,.25-.15,.5-.3,.74-.45,.29-.18,.57-.36,.86-.54,.2-.13,.4-.26,.6-.39,.51-.34,1.02-.69,1.53-1.04,.17-.12,.34-.23,.5-.36,.04-.03,.07-.05,.11-.08,.55-.4,1.09-.8,1.63-1.21,.21-.16,.42-.32,.62-.49,.22-.17,.44-.35,.66-.53,.19-.15,.38-.31,.57-.47,.2-.17,.4-.34,.61-.51,.15-.13,.31-.26,.46-.39,.25-.21,.49-.43,.74-.65,.2-.18,.39-.35,.59-.53,.15-.13,.29-.26,.43-.4,.13-.12,.26-.24,.38-.36,1-.93,1.96-1.9,2.9-2.9,.12-.13,.24-.25,.36-.38,.13-.14,.27-.29,.4-.43,.18-.2,.35-.39,.53-.59,.22-.24,.43-.49,.65-.74,.13-.15,.26-.3,.39-.46,.17-.2,.34-.4,.51-.61,.16-.19,.31-.38,.47-.57,.18-.22,.35-.44,.53-.66,.16-.21,.32-.41,.49-.62,.37-.48,.74-.97,1.09-1.47,.04-.05,.08-.11,.11-.16h0s.05-.07,.08-.11c0,0,.01-.02,.02-.03,.11-.16,.23-.31,.34-.47,.36-.5,.7-1.01,1.04-1.53,.13-.2,.26-.4,.39-.6,.06-.09,.12-.19,.18-.28,.12-.19,.24-.38,.36-.57,.15-.24,.31-.49,.45-.74,.12-.2,.24-.39,.35-.59,.07-.12,.14-.25,.22-.37,.1-.18,.21-.36,.31-.54,.11-.2,.22-.4,.33-.59,.05-.1,.11-.2,.16-.3,.11-.2,.22-.39,.32-.59,0,0,0,0,0,0,.01-.02,.03-.05,.04-.07,0,0,0-.01,0-.02,.02-.04,.05-.09,.07-.13,.07-.13,.14-.26,.21-.39,.02-.04,.04-.07,.06-.11,.03-.05,.05-.09,.08-.14,.11-.2,.21-.4,.31-.6,0-.01,.02-.03,.02-.04,.02-.03,.04-.06,.05-.1,.11-.23,.23-.45,.34-.68,.02-.03,.03-.06,.05-.1,.12-.25,.24-.5,.36-.76,.1-.21,.19-.41,.29-.62,.05-.1,.09-.2,.14-.3,.1-.22,.2-.45,.3-.67,.1-.23,.2-.45,.29-.68,.04-.09,.07-.17,.11-.26,.08-.19,.16-.39,.24-.58,.18-.44,.35-.88,.52-1.32,.01-.04,.03-.07,.04-.1,.05-.12,.09-.25,.14-.37,.07-.18,.13-.35,.2-.53,.09-.26,.19-.52,.28-.78,.09-.25,.17-.5,.26-.76,.01-.04,.02-.07,.04-.11,.08-.24,.16-.47,.23-.71,0,0,0,0,0,0,.08-.26,.17-.53,.25-.79,.08-.25,.16-.51,.23-.77,.02-.04,.03-.09,.04-.13,.06-.2,.12-.4,.17-.61,.02-.08,.05-.17,.07-.25,.05-.18,.1-.35,.14-.53,.05-.2,.11-.4,.16-.6,.05-.21,.11-.42,.16-.63,.06-.23,.11-.46,.17-.69,.04-.18,.09-.36,.13-.54,0-.04,.02-.08,.03-.12,.04-.16,.07-.32,.11-.48,0,0,0-.02,0-.02,.05-.23,.1-.46,.14-.69,0-.01,0-.03,0-.04t0,0c.04-.2,.08-.39,.12-.59,0-.02,.01-.05,.02-.07,.02-.1,.04-.2,.05-.29,.04-.19,.07-.38,.11-.57,0-.04,.02-.08,.02-.12,.04-.22,.08-.43,.11-.65,0-.04,.02-.09,.02-.13,.03-.15,.05-.3,.07-.45,0-.04,.01-.08,.02-.12,.03-.21,.07-.42,.09-.63,.01-.06,.02-.12,.03-.18,0-.04,.01-.07,.02-.1,.03-.23,.07-.46,.09-.69,.03-.23,.06-.46,.09-.69,0-.04,0-.08,.01-.11,.02-.17,.04-.34,.06-.51,.02-.17,.04-.34,.05-.51,0-.02,0-.04,0-.05,0-.05,0-.1,.01-.14,.02-.22,.04-.44,.06-.66,.02-.24,.04-.49,.06-.73,.02-.29,.04-.58,.06-.86,.01-.15,.02-.31,.03-.46,0-.04,0-.09,0-.13,0-.13,.02-.25,.02-.38,.01-.28,.03-.56,.04-.84,.01-.28,.02-.56,.03-.85,0-.09,0-.19,0-.28,.01-.47,.02-.94,.02-1.42s0-.95-.02-1.42Zm-91.55,29.96c-.11-.09-.21-.19-.32-.29-.11-.1-.21-.2-.32-.29-.14-.13-.28-.26-.41-.4-.14-.13-.27-.27-.41-.4s-.27-.27-.4-.41c-.13-.14-.27-.27-.4-.41-.1-.11-.2-.21-.29-.32-.1-.11-.2-.21-.29-.32-.1-.11-.19-.21-.29-.32-.09-.1-.18-.2-.27-.31-.04-.05-.08-.09-.12-.14-.06-.07-.12-.14-.17-.21-.18-.22-.36-.43-.54-.65-.18-.23-.37-.46-.54-.69-.09-.11-.18-.23-.26-.34-.18-.23-.34-.46-.51-.7-.07-.1-.14-.19-.21-.29-.13-.18-.25-.36-.38-.54-.11-.16-.22-.32-.32-.48-.11-.16-.21-.32-.31-.48-.08-.12-.16-.24-.23-.37-.15-.25-.3-.49-.45-.74-.07-.13-.15-.25-.22-.38-.07-.13-.14-.25-.22-.38-.14-.25-.28-.51-.41-.76-.14-.26-.27-.52-.4-.77-.07-.13-.13-.26-.19-.39-.25-.52-.5-1.05-.73-1.59-.06-.13-.11-.27-.17-.4-.07-.16-.13-.32-.2-.48-.05-.11-.09-.22-.13-.33-.16-.42-.32-.84-.47-1.26-.05-.13-.09-.26-.14-.4-.05-.13-.09-.26-.13-.39-.03-.1-.06-.19-.09-.29-.05-.16-.1-.32-.15-.48-.1-.32-.19-.64-.28-.96-.03-.09-.05-.19-.08-.29-.03-.1-.05-.2-.08-.31-.1-.37-.19-.75-.27-1.13-.02-.09-.04-.19-.06-.29-.03-.13-.06-.26-.08-.39-.02-.08-.04-.17-.05-.25-.03-.13-.05-.26-.08-.39-.03-.15-.05-.3-.08-.44s-.05-.3-.07-.44c-.1-.59-.18-1.19-.25-1.79-.02-.15-.04-.3-.05-.45-.02-.15-.03-.3-.04-.45-.02-.15-.03-.3-.04-.46,0-.09-.02-.18-.02-.27-.01-.13-.02-.25-.03-.38-.01-.15-.02-.31-.03-.46,0-.11-.01-.22-.02-.33,0-.12-.01-.25-.01-.37,0-.03,0-.06,0-.09,0-.13,0-.27-.01-.41,0-.03,0-.05,0-.08,0-.11,0-.22,0-.32,0-.14,0-.27,0-.41s0-.27,0-.41c0-.11,0-.22,0-.33,0-.03,0-.05,0-.08h0c0-.14,0-.27,.01-.41,0-.03,0-.06,0-.09,0-.12,0-.25,.01-.37,0-.11,0-.22,.02-.33,0-.15,.02-.31,.03-.46,0-.13,.02-.25,.03-.38,0-.09,.01-.18,.02-.27,.01-.15,.02-.31,.04-.46,.01-.15,.03-.3,.04-.45,.02-.15,.03-.3,.05-.45,.07-.6,.15-1.2,.25-1.79,.02-.15,.05-.3,.07-.44s.05-.3,.08-.44c.02-.13,.05-.26,.08-.39,.02-.08,.03-.17,.05-.25,.02-.13,.05-.26,.08-.39,.02-.09,.04-.19,.06-.29,.09-.38,.18-.76,.27-1.13,.03-.1,.05-.21,.08-.31,.02-.09,.05-.19,.08-.29,.09-.32,.18-.64,.28-.96,.05-.16,.1-.32,.15-.48,.03-.1,.06-.19,.09-.29,.04-.13,.08-.26,.13-.39,.04-.13,.09-.26,.14-.4,.15-.42,.3-.84,.47-1.26,.04-.11,.09-.22,.13-.33,.06-.16,.13-.32,.2-.48,.05-.13,.11-.27,.17-.4,.23-.54,.47-1.07,.73-1.59,.06-.13,.13-.26,.19-.39,.13-.26,.26-.52,.4-.77,.13-.26,.27-.51,.41-.76,.07-.13,.14-.25,.22-.38,.07-.13,.14-.25,.22-.38,.14-.25,.29-.5,.45-.74,.07-.13,.15-.25,.23-.37,.1-.16,.2-.32,.31-.48,.1-.16,.21-.32,.32-.48,.12-.18,.25-.36,.38-.54,.07-.1,.14-.19,.21-.29,.17-.23,.34-.47,.51-.7,.08-.11,.17-.23,.26-.34,.18-.23,.36-.46,.54-.69,.18-.22,.36-.44,.54-.65,.06-.07,.12-.14,.17-.21,.04-.05,.08-.09,.12-.14,.09-.1,.18-.21,.27-.31,.09-.11,.19-.22,.29-.32,.09-.11,.19-.21,.29-.32,.1-.11,.2-.21,.29-.32,.13-.14,.26-.28,.4-.41,.13-.14,.27-.27,.4-.41s.27-.27,.41-.4c.14-.13,.27-.27,.41-.4,.27-.25,.53-.5,.81-.74,.08-.07,.16-.14,.24-.21,.19-.16,.37-.32,.56-.48,.2-.17,.4-.33,.6-.49,.44-.36,.89-.71,1.35-1.04,.14-.11,.29-.21,.44-.32,1.05-.76,2.15-1.46,3.28-2.11,.13-.07,.25-.14,.38-.22,.25-.14,.51-.28,.76-.41,.26-.14,.52-.27,.77-.4,.13-.07,.26-.13,.39-.19,.91-.44,1.85-.85,2.8-1.22,.15-.06,.31-.12,.46-.18,.15-.06,.31-.12,.46-.17,.12-.04,.24-.09,.36-.13s.24-.08,.37-.13c.08-.03,.16-.06,.25-.08,.14-.05,.29-.09,.43-.14,.16-.05,.32-.1,.48-.15,.41-.13,.83-.24,1.24-.35,.1-.03,.2-.05,.31-.08,.44-.11,.89-.22,1.34-.32,.16-.04,.31-.07,.47-.1,.08-.02,.17-.04,.25-.05,1.53-.31,3.1-.52,4.69-.64,.13-.01,.25-.02,.38-.03,.15-.01,.31-.02,.46-.03,.23-.01,.47-.02,.7-.03,.16,0,.33-.01,.49-.02,.27,0,.54,0,.82,0s.54,0,.82,0c.14,0,.27,0,.41,.01,.03,0,.06,0,.09,0,.12,0,.25,0,.37,.01,.11,0,.22,0,.33,.02,.15,0,.31,.02,.46,.03,.13,0,.25,.02,.38,.03,.09,0,.18,.01,.27,.02,.15,.01,.31,.02,.46,.04,.15,.01,.3,.03,.45,.04,.15,.02,.3,.03,.45,.05,.6,.07,1.2,.15,1.79,.25,.15,.02,.3,.05,.44,.07,.15,.03,.3,.05,.44,.08,.13,.02,.26,.05,.39,.08,.08,.02,.17,.03,.25,.05,.13,.02,.26,.05,.39,.08,.09,.02,.19,.04,.29,.06,.38,.09,.76,.18,1.13,.27,.1,.03,.21,.05,.31,.08,.09,.02,.19,.05,.29,.08,.32,.09,.64,.18,.96,.28,.16,.05,.32,.1,.48,.15,.1,.03,.19,.06,.29,.09,.13,.04,.26,.08,.39,.13,.13,.04,.26,.09,.4,.14,.42,.15,.84,.3,1.26,.47,.11,.04,.22,.09,.33,.13,.16,.06,.32,.13,.48,.2,.13,.05,.27,.11,.4,.17,.54,.23,1.07,.47,1.59,.73,.13,.06,.26,.13,.39,.19,.26,.13,.52,.26,.77,.4,.26,.13,.51,.27,.76,.41,.13,.07,.25,.14,.38,.22,.13,.07,.25,.14,.38,.22,.25,.14,.5,.29,.74,.45,.13,.07,.25,.15,.37,.23,.16,.1,.32,.2,.48,.31,.16,.1,.32,.21,.48,.32,.18,.12,.36,.25,.54,.38,.1,.07,.19,.14,.29,.21,.23,.17,.47,.34,.7,.51,.11,.08,.23,.17,.34,.26,.23,.18,.46,.36,.69,.54,.22,.18,.44,.36,.65,.54,.07,.06,.14,.12,.21,.17,.05,.04,.09,.08,.14,.12,.1,.09,.21,.18,.31,.27,.11,.09,.22,.19,.32,.29,.11,.09,.21,.19,.32,.29,.11,.1,.21,.2,.32,.29,.14,.13,.28,.26,.41,.4,.14,.13,.27,.27,.41,.4s.27,.27,.4,.41c.13,.14,.27,.27,.4,.41,.1,.11,.2,.21,.29,.32,.1,.11,.2,.21,.29,.32,.1,.11,.19,.21,.29,.32,.09,.1,.18,.2,.27,.31,.04,.05,.08,.09,.12,.14,.06,.07,.12,.14,.17,.21,.18,.22,.36,.43,.54,.65,.18,.23,.37,.46,.54,.69,.09,.11,.18,.23,.26,.34,.18,.23,.34,.46,.51,.7,.07,.1,.14,.19,.21,.29,.13,.18,.25,.36,.38,.54,.11,.16,.22,.32,.32,.48,.11,.16,.21,.32,.31,.48,.08,.12,.16,.24,.23,.37,.15,.25,.3,.49,.45,.74,.07,.13,.15,.25,.22,.38,.07,.13,.14,.25,.22,.38,.14,.25,.28,.51,.41,.76,.14,.26,.27,.52,.4,.77,.07,.13,.13,.26,.19,.39,.25,.52,.5,1.05,.73,1.59,.06,.13,.11,.27,.17,.4,.07,.16,.13,.32,.2,.48,.05,.11,.09,.22,.13,.33,.16,.42,.32,.84,.47,1.26,.05,.13,.09,.26,.14,.4,.05,.13,.09,.26,.13,.39,.03,.1,.06,.19,.09,.29,.05,.16,.1,.32,.15,.48,.1,.32,.19,.64,.28,.96,.03,.09,.05,.19,.08,.29,.03,.1,.05,.2,.08,.31,.1,.37,.19,.75,.27,1.13,.02,.09,.04,.19,.06,.29,.03,.13,.06,.26,.08,.39,.02,.08,.04,.17,.05,.25,.03,.13,.05,.26,.08,.39,.03,.15,.05,.3,.08,.44,.03,.15,.05,.3,.07,.44,.1,.59,.18,1.19,.25,1.79,.02,.15,.04,.3,.05,.45,.02,.15,.03,.3,.04,.45,.02,.15,.03,.3,.04,.46,0,.09,.02,.18,.02,.27,.01,.13,.02,.25,.03,.38,.01,.15,.02,.31,.03,.46,0,.11,.01,.22,.02,.33,0,.12,.01,.25,.01,.37,0,.03,0,.06,0,.09,0,.13,0,.27,.01,.41h0s0,.05,0,.08c0,.11,0,.22,0,.33,0,.14,0,.27,0,.41s0,.27,0,.41c0,.11,0,.22,0,.32,0,.03,0,.05,0,.08,0,.14,0,.27-.01,.41,0,.03,0,.06,0,.09,0,.12,0,.25-.01,.37,0,.11,0,.22-.02,.33,0,.15-.02,.31-.03,.46,0,.13-.02,.25-.03,.38,0,.09-.01,.18-.02,.27-.01,.15-.02,.31-.04,.46-.01,.15-.03,.3-.04,.45-.02,.15-.03,.3-.05,.45-.07,.6-.15,1.2-.25,1.79-.02,.15-.05,.3-.07,.44-.03,.15-.05,.3-.08,.44-.02,.13-.05,.26-.08,.39-.02,.08-.03,.17-.05,.25-.02,.13-.05,.26-.08,.39-.02,.09-.04,.19-.06,.29-.09,.38-.18,.76-.27,1.13-.03,.1-.05,.21-.08,.31-.02,.09-.05,.19-.08,.29-.09,.32-.18,.64-.28,.96-.05,.16-.1,.32-.15,.48-.03,.1-.06,.19-.09,.29-.04,.13-.08,.26-.13,.39-.04,.13-.09,.26-.14,.4-.15,.42-.3,.84-.47,1.26-.04,.11-.09,.22-.13,.33-.06,.16-.13,.32-.2,.48-.05,.13-.11,.27-.17,.4-.23,.54-.47,1.07-.73,1.59-.06,.13-.13,.26-.19,.39-.13,.26-.26,.52-.4,.77-.13,.26-.27,.51-.41,.76-.07,.13-.14,.25-.22,.38-.07,.13-.14,.25-.22,.38-.14,.25-.29,.5-.45,.74-.07,.13-.15,.25-.23,.37-.1,.16-.2,.32-.31,.48-.1,.16-.21,.32-.32,.48-.12,.18-.25,.36-.38,.54-.07,.1-.14,.19-.21,.29-.17,.23-.34,.47-.51,.7-.08,.11-.17,.23-.26,.34-.18,.23-.36,.46-.54,.69-.18,.22-.36,.44-.54,.65-.06,.07-.12,.14-.17,.21-.04,.05-.08,.09-.12,.14-.09,.1-.18,.21-.27,.31-.09,.11-.19,.22-.29,.32-.09,.11-.19,.21-.29,.32-.1,.11-.2,.21-.29,.32-.13,.14-.26,.28-.4,.41-.13,.14-.27,.27-.4,.41s-.27,.27-.41,.4c-.14,.13-.27,.27-.41,.4-.46,.43-.93,.85-1.4,1.26-.07,.06-.14,.12-.21,.17-.22,.18-.43,.36-.65,.54-.57,.45-1.14,.89-1.73,1.31-.1,.07-.19,.14-.29,.21-.49,.35-.99,.68-1.5,1-.12,.08-.25,.16-.37,.23-.25,.15-.49,.3-.74,.45-.13,.07-.25,.15-.38,.22-.13,.07-.25,.14-.38,.22-.25,.14-.51,.28-.76,.41-.26,.14-.51,.27-.77,.4-.13,.07-.26,.13-.39,.19-.52,.25-1.05,.5-1.59,.73-.13,.06-.27,.11-.4,.17-.16,.07-.32,.13-.48,.2-.11,.04-.22,.09-.33,.13-1.22,.48-2.48,.9-3.77,1.25-.09,.03-.19,.05-.29,.08-.1,.03-.2,.05-.31,.08-.47,.12-.94,.23-1.42,.34-.13,.03-.26,.05-.39,.08-.08,.02-.17,.04-.25,.05-.13,.03-.26,.05-.39,.08-.15,.03-.3,.05-.44,.08s-.29,.05-.44,.07c-.59,.1-1.19,.18-1.79,.25-.15,.02-.3,.04-.45,.05s-.3,.03-.45,.04c-.15,.02-.3,.03-.46,.04-.09,0-.18,.02-.27,.02-.13,.01-.25,.02-.38,.03-.15,.01-.31,.02-.46,.03-.11,0-.22,.01-.33,.02-.12,0-.25,.01-.37,.01-.16,0-.33,.01-.49,.02-.03,0-.05,0-.08,0-.11,0-.22,0-.32,0-.14,0-.27,0-.41,0s-.27,0-.41,0c-.11,0-.22,0-.32,0-.03,0-.05,0-.08,0-.14,0-.27,0-.41-.01-.03,0-.06,0-.09,0-.12,0-.25,0-.37-.01-.11,0-.22,0-.33-.02-.15,0-.31-.02-.46-.03-.13,0-.25-.02-.38-.03-.09,0-.18-.01-.27-.02-.15-.01-.31-.02-.46-.04-.15-.01-.3-.03-.45-.04-.15-.02-.3-.03-.45-.05-.6-.07-1.2-.15-1.79-.25-.15-.02-.3-.05-.44-.07s-.3-.05-.44-.08c-.13-.02-.26-.05-.39-.08-.08-.02-.17-.03-.25-.05-.13-.02-.26-.05-.39-.08-.09-.02-.19-.04-.29-.06-.38-.09-.76-.18-1.13-.27-.1-.03-.21-.05-.31-.08-.09-.02-.19-.05-.29-.08-.32-.09-.64-.18-.96-.28-.16-.05-.32-.1-.48-.15-.1-.03-.19-.06-.29-.09-.13-.04-.26-.08-.39-.13-.13-.04-.26-.09-.4-.14-.42-.15-.84-.3-1.26-.47-.11-.04-.22-.09-.33-.13-.16-.06-.32-.13-.48-.2-.13-.05-.27-.11-.4-.17-.54-.23-1.07-.47-1.59-.73-.13-.06-.26-.13-.39-.19-.26-.13-.52-.26-.77-.4-.26-.13-.51-.27-.76-.41-.13-.07-.25-.14-.38-.22-.13-.07-.25-.14-.38-.22-.25-.14-.5-.29-.74-.45-.13-.07-.25-.15-.37-.23-.16-.1-.32-.2-.48-.31-.16-.1-.32-.21-.48-.32-.18-.12-.36-.25-.54-.38-.1-.07-.19-.14-.29-.21-.23-.17-.47-.34-.7-.51-.11-.08-.23-.17-.34-.26-.23-.18-.46-.36-.69-.54-.22-.18-.44-.36-.65-.54-.07-.06-.14-.12-.21-.17-.05-.04-.09-.08-.14-.12-.1-.09-.21-.18-.31-.27-.11-.09-.22-.19-.32-.29Z"/>
          <path class="cls-6" d="M201.91,218.41c-.04,.05-.08,.11-.11,.16-.36,.5-.72,.99-1.09,1.47-.16,.21-.32,.42-.49,.62-.17,.22-.35,.44-.53,.66-.15,.19-.31,.38-.47,.57-.17,.2-.34,.4-.51,.61-.13,.15-.26,.31-.39,.46-.21,.25-.43,.49-.65,.74-.18,.2-.35,.39-.53,.59-.13,.15-.26,.29-.4,.43-.12,.13-.24,.26-.36,.38-.93,1-1.9,1.96-2.9,2.9-.13,.12-.25,.24-.38,.36-.14,.13-.29,.27-.43,.4-.2,.18-.39,.35-.59,.53-.24,.22-.49,.43-.74,.65-.15,.13-.3,.26-.46,.39-.2,.17-.4,.34-.61,.51-.19,.16-.38,.31-.57,.47-.22,.18-.44,.35-.66,.53-.21,.16-.41,.32-.62,.49-.54,.41-1.08,.81-1.63,1.21-.04,.03-.07,.05-.11,.08-.16,.12-.33,.24-.5,.36-.5,.35-1.01,.7-1.53,1.04-.2,.13-.4,.26-.6,.39-.28,.18-.57,.36-.86,.54-.24,.15-.49,.31-.74,.45-.78,.48-1.58,.94-2.39,1.38-.2,.11-.39,.22-.59,.32-.03,.02-.06,.04-.1,.05-.21,.12-.42,.23-.64,.34-.05,.03-.1,.05-.14,.08-.22,.11-.43,.22-.65,.33-.03,.02-.06,.03-.1,.05-.23,.11-.45,.23-.68,.34-.03,.02-.07,.03-.1,.05-.25,.12-.5,.24-.76,.36-.21,.1-.41,.19-.62,.29-.32,.15-.65,.29-.97,.43-10.49-4.58-19.55-11.82-26.34-20.86-.27-.36-.54-.73-.81-1.1,0,0,0,0,0,0-.14,0-.27,0-.41-.01-.03,0-.06,0-.09,0-.12,0-.25,0-.37-.01-.11,0-.22,0-.33-.02-.15,0-.31-.02-.46-.03-.13,0-.25-.02-.38-.03-.09,0-.18-.01-.27-.02-.15-.01-.31-.02-.46-.04-.15-.01-.3-.03-.45-.04-.15-.02-.3-.03-.45-.05-.6-.07-1.2-.15-1.79-.25-.15-.02-.3-.05-.44-.07s-.3-.05-.44-.08c-.13-.02-.26-.05-.39-.08-.08-.02-.17-.03-.25-.05-.13-.02-.26-.05-.39-.08-.09-.02-.19-.04-.29-.06-.38-.09-.76-.18-1.13-.27-.1-.03-.21-.05-.31-.08-.09-.02-.19-.05-.29-.08-.32-.09-.64-.18-.96-.28-.16-.05-.32-.1-.48-.15-.1-.03-.19-.06-.29-.09-.13-.04-.26-.08-.39-.13-.13-.04-.26-.09-.4-.14-.42-.15-.84-.3-1.26-.47-.11-.04-.22-.09-.33-.13-.16-.06-.32-.13-.48-.2-.13-.05-.27-.11-.4-.17-.54-.23-1.07-.47-1.59-.73-.13-.06-.26-.13-.39-.19-.26-.13-.52-.26-.77-.4-.26-.13-.51-.27-.76-.41-.13-.07-.25-.14-.38-.22-.13-.07-.25-.14-.38-.22-.25-.14-.5-.29-.74-.45-.13-.07-.25-.15-.37-.23-.16-.1-.32-.2-.48-.31-.16-.1-.32-.21-.48-.32-.18-.12-.36-.25-.54-.38-.1-.07-.19-.14-.29-.21-.23-.17-.47-.34-.7-.51-.11-.08-.23-.17-.34-.26-.23-.18-.46-.36-.69-.54-.22-.18-.44-.36-.65-.54-.07-.06-.14-.12-.21-.17-.05-.04-.09-.08-.14-.12,6.56-1.26,14.5-2.26,23.53-2.36,10.31-.11,19.28,.98,26.49,2.36v.12c.48-.41,5.65,2.33,8.05,3.77,5.76,3.45,12.5,5.43,19.7,5.43,.27,0,.54,0,.81,0h0Z"/>
          <path class="cls-1" d="M94.87,141.59c.04-.05,.08-.11,.11-.16,.36-.5,.72-.99,1.09-1.47,.16-.21,.32-.42,.49-.62,.17-.22,.35-.44,.53-.66,.15-.19,.31-.38,.47-.57,.17-.2,.34-.4,.51-.61,.13-.15,.26-.31,.39-.46,.21-.25,.43-.49,.65-.74,.18-.2,.35-.39,.53-.59,.13-.15,.26-.29,.4-.43,.12-.13,.24-.26,.36-.38,.93-1,1.9-1.96,2.9-2.9,.13-.12,.25-.24,.38-.36,.14-.13,.29-.27,.43-.4,.2-.18,.39-.35,.59-.53,.24-.22,.49-.43,.74-.65,.15-.13,.3-.26,.46-.39,.2-.17,.4-.34,.61-.51,.19-.16,.38-.31,.57-.47,.22-.18,.44-.35,.66-.53,.21-.16,.41-.32,.62-.49,.54-.41,1.08-.81,1.63-1.21,.04-.03,.07-.05,.11-.08,.16-.12,.33-.24,.5-.36,.5-.35,1.01-.7,1.53-1.04,.2-.13,.4-.26,.6-.39,.28-.18,.57-.36,.86-.54,.24-.15,.49-.31,.74-.45,.78-.48,1.58-.94,2.39-1.38,.2-.11,.39-.22,.59-.32,.03-.02,.06-.04,.1-.05,.21-.12,.42-.23,.64-.34,.05-.03,.1-.05,.14-.08,.22-.11,.43-.22,.65-.33,.03-.02,.06-.03,.1-.05,.23-.11,.45-.23,.68-.34,.03-.02,.07-.03,.1-.05,.25-.12,.5-.24,.76-.36,.21-.1,.41-.19,.62-.29,.32-.15,.65-.29,.97-.43,10.49,4.58,19.55,11.82,26.34,20.86,.27,.36,.54,.73,.81,1.1,0,0,0,0,0,0,.14,0,.27,0,.41,.01,.03,0,.06,0,.09,0,.12,0,.25,0,.37,.01,.11,0,.22,0,.33,.02,.15,0,.31,.02,.46,.03,.13,0,.25,.02,.38,.03,.09,0,.18,.01,.27,.02,.15,.01,.31,.02,.46,.04,.15,.01,.3,.03,.45,.04,.15,.02,.3,.03,.45,.05,.6,.07,1.2,.15,1.79,.25,.15,.02,.3,.05,.44,.07s.3,.05,.44,.08c.13,.02,.26,.05,.39,.08,.08,.02,.17,.03,.25,.05,.13,.02,.26,.05,.39,.08,.09,.02,.19,.04,.29,.06,.38,.09,.76,.18,1.13,.27,.1,.03,.21,.05,.31,.08,.09,.02,.19,.05,.29,.08,.32,.09,.64,.18,.96,.28,.16,.05,.32,.1,.48,.15,.1,.03,.19,.06,.29,.09,.13,.04,.26,.08,.39,.13,.13,.04,.26,.09,.4,.14,.42,.15,.84,.3,1.26,.47,.11,.04,.22,.09,.33,.13,.16,.06,.32,.13,.48,.2,.13,.05,.27,.11,.4,.17,.54,.23,1.07,.47,1.59,.73,.13,.06,.26,.13,.39,.19,.26,.13,.52,.26,.77,.4,.26,.13,.51,.27,.76,.41,.13,.07,.25,.14,.38,.22,.13,.07,.25,.14,.38,.22,.25,.14,.5,.29,.74,.45,.13,.07,.25,.15,.37,.23,.16,.1,.32,.2,.48,.31,.16,.1,.32,.21,.48,.32,.18,.12,.36,.25,.54,.38,.1,.07,.19,.14,.29,.21,.23,.17,.47,.34,.7,.51,.11,.08,.23,.17,.34,.26,.23,.18,.46,.36,.69,.54,.22,.18,.44,.36,.65,.54,.07,.06,.14,.12,.21,.17,.05,.04,.09,.08,.14,.12-6.56,1.26-14.5,2.26-23.53,2.36-10.31,.11-19.28-.98-26.49-2.36v-.12c-.48,.41-5.65-2.33-8.05-3.77-5.76-3.45-12.5-5.43-19.7-5.43-.27,0-.54,0-.81,0h0Z"/>
        </g>
        <g id="Letters">
          <path class="cls-2" d="M234.26,244.16v-69.78h27.8v69.78h-27.8Zm27.8-37.72l-12.91-11.49c3.59-7.56,7.78-13.12,12.55-16.66,4.77-3.55,10.75-5.32,17.94-5.32,3.21,0,5.98,.38,8.3,1.13,2.32,.76,4.18,1.84,5.6,3.26l-15.6,22.12c-.66-.76-1.63-1.39-2.91-1.91-1.28-.52-2.77-.78-4.47-.78-2.84,0-4.96,.83-6.38,2.48-1.42,1.66-2.13,4.04-2.13,7.16Z"/>
          <path class="cls-2" d="M354.53,244.16c-8.13,0-15.27-1.54-21.41-4.61-6.15-3.07-10.94-7.37-14.39-12.91-3.45-5.53-5.18-11.89-5.18-19.07s1.68-13.38,5.03-18.86c3.36-5.48,7.96-9.81,13.83-12.98,5.86-3.17,12.48-4.75,19.85-4.75s13.71,1.49,19.29,4.47c5.58,2.98,9.95,7.12,13.12,12.41,3.17,5.3,4.75,11.35,4.75,18.15,0,1.42-.07,2.91-.21,4.47-.14,1.56-.45,3.38-.92,5.46l-62.97,.43v-17.02l52.61-.43-12.91,7.52c0-3.78-.45-6.88-1.35-9.29-.9-2.41-2.25-4.23-4.04-5.46-1.8-1.23-4.07-1.84-6.81-1.84s-5.3,.71-7.37,2.13c-2.08,1.42-3.66,3.45-4.75,6.1-1.09,2.65-1.63,5.86-1.63,9.64s.59,7.12,1.77,9.71c1.18,2.6,2.91,4.56,5.18,5.89,2.27,1.33,5.11,1.99,8.51,1.99s6.22-.54,8.72-1.63c2.5-1.09,4.8-2.81,6.88-5.18l13.9,13.76c-3.5,3.97-7.71,6.95-12.62,8.94-4.92,1.99-10.54,2.98-16.88,2.98Z"/>
          <path class="cls-2" d="M409.41,244.16v-69.78h27.8v69.78h-27.8Zm44.39,0v-39.14c0-2.74-.78-4.84-2.34-6.31-1.56-1.47-3.52-2.2-5.89-2.2-1.61,0-3.05,.33-4.33,.99-1.28,.66-2.27,1.63-2.98,2.91s-1.06,2.81-1.06,4.61l-10.78-4.82c0-5.67,1.25-10.54,3.76-14.61,2.5-4.06,5.96-7.18,10.35-9.36,4.4-2.17,9.38-3.26,14.96-3.26,5.01,0,9.48,1.11,13.4,3.33,3.92,2.22,7.02,5.25,9.29,9.08,2.27,3.83,3.4,8.25,3.4,13.26v45.52h-27.8Z"/>
          <path class="cls-2" d="M501.6,227.28l31.2-36.02h34.46l-31.2,36.02h-34.46Zm0,16.88v-16.88l16.59-5.25h48.22v22.12h-64.81Zm2.41-47.65v-22.12h63.25v16.88l-16.59,5.25h-46.66Z"/>
          <path class="cls-2" d="M627.11,244.16c-7.66,0-14.49-1.58-20.49-4.75-6.01-3.17-10.73-7.54-14.18-13.12-3.45-5.58-5.18-11.86-5.18-18.86s1.7-13.24,5.11-18.72c3.4-5.48,8.11-9.81,14.11-12.98,6-3.17,12.83-4.75,20.49-4.75s14.47,1.58,20.42,4.75c5.96,3.17,10.66,7.49,14.11,12.98,3.45,5.48,5.18,11.72,5.18,18.72s-1.7,13.28-5.11,18.86c-3.4,5.58-8.08,9.95-14.04,13.12-5.96,3.17-12.76,4.75-20.42,4.75Zm-.14-24.39c2.36,0,4.42-.5,6.17-1.49,1.75-.99,3.1-2.41,4.04-4.25,.94-1.84,1.42-3.99,1.42-6.45s-.5-4.61-1.49-6.45c-.99-1.84-2.34-3.26-4.04-4.25-1.7-.99-3.74-1.49-6.1-1.49s-4.28,.52-6.03,1.56c-1.75,1.04-3.12,2.48-4.11,4.33-.99,1.84-1.49,3.99-1.49,6.45s.5,4.47,1.49,6.31c.99,1.84,2.36,3.26,4.11,4.25,1.75,.99,3.76,1.49,6.03,1.49Z"/>
          <path class="cls-5" d="M702.14,244.16c-4.44,0-8.13-1.51-11.06-4.54-2.93-3.02-4.4-6.71-4.4-11.06s1.46-8.18,4.4-11.2c2.93-3.02,6.62-4.54,11.06-4.54s8.11,1.51,10.99,4.54c2.88,3.03,4.33,6.76,4.33,11.2s-1.44,8.04-4.33,11.06c-2.89,3.02-6.55,4.54-10.99,4.54Z"/>
        </g>
      </g>
    </g>
  </g>
</svg>